<svg id="Layer_1" data-name="Layer 1" xmlns="http://www.w3.org/2000/svg" viewBox="0 0 91.93 106.15"><defs><style>.cls-1{fill:#fff;}</style></defs><polygon points="73.35 32.19 73.35 11.31 55.26 21.75 73.35 32.19"/><path class="cls-1" d="M72.85,11l-.5.29L55.76,20.88l-.5.29-.5.29-.5.29,1,.58.5.29,16.59,9.57,1,.58.5-.29v-22Zm0,1.15V31.33L56.26,21.75Z"/><polygon points="73.35 11.31 73.35 32.19 91.43 21.75 73.35 11.31"/><path class="cls-1" d="M91.43,21.17l-.5-.29L74.35,11.31l-.5-.29-1-.58V33.06l.5-.29,1-.58,17.08-9.86.5-.29v-.58ZM73.85,31.33V12.17l16.58,9.58Z"/><polygon points="55.26 42.63 55.26 21.75 37.17 32.19 55.26 42.63"/><path class="cls-1" d="M55.26,21.17l-.5.29-.5.29L37.67,31.33l-.5.29-.5.28-.5.29,1,.58.5.29,16.59,9.57.5.29.5.29.5-.29v-22Zm-17.09,11,16.59-9.57V41.77L46.47,37Z"/><polygon points="55.26 21.75 55.26 42.63 73.35 32.19 55.26 21.75"/><path class="cls-1" d="M73.85,31.9l-.5-.29-.5-.28h0L56.26,21.75l-.5-.29-.5-.29-.5-.29V43.5l.5-.29.5-.29.5-.29,16.59-9.57.5-.29,1-.58ZM55.76,41.77V22.62l16.59,9.57Z"/><polygon points="37.17 53.08 37.17 32.19 19.09 42.63 37.17 53.08"/><path class="cls-1" d="M37.17,31.62l-.5.28h0l-.5.28L19.59,41.77l-.5.29h0l-.49.28-.49.29.49.29.5.29.5.29,16.58,9.58.5.28h0l.49.28h0l.49.29V31.33Zm-.5,1.44V52.21L20.09,42.63Z"/><polygon points="37.17 32.19 37.17 53.08 55.26 42.63 37.17 32.19"/><path class="cls-1" d="M55.26,42.05l-.5-.28h0L46.47,37l-8.3-4.79-.5-.28h0l-.5-.28-.5-.29V53.94l.5-.29h0l.48-.28h0l.49-.28h0L54.76,43.5l.5-.29.5-.29.5-.29ZM37.67,52.21V33.06l16.59,9.57Z"/><polygon points="19.09 63.52 19.09 42.63 1 53.08 19.09 63.52"/><path class="cls-1" d="M19.09,42.06h0l-.49.28h0l-.49.28L0,53.08,18.09,63.52l.5.28h0l.49.28h0l.5.29V41.77Zm-.5,1.44V62.65L2,53.08Z"/><polygon points="91.43 21.75 91.43 0.86 73.35 11.31 91.43 21.75"/><path class="cls-1" d="M73.85,10.44l-1,.58-.5.29,1,.58.5.28h0l16.58,9.57,1,.58.5-.29V0ZM90.93,20.88,74.35,11.31,90.93,1.73Z"/><polygon points="19.09 42.63 19.09 63.52 37.17 53.08 19.09 42.63"/><path class="cls-1" d="M37.67,52.79l-.5-.29-.5-.29L20.09,42.63l-.5-.28h0l-.49-.28h0l-.49-.29V64.38l.49-.29h0l.49-.28h0l.5-.28,8.29-4.79L36.67,54h0l.5-.28h0l.48-.28h0l.49-.29ZM19.59,62.65V43.5l16.58,9.58Z"/><polygon points="73.35 94.84 91.43 84.4 73.35 73.96 73.35 94.84"/><path class="cls-1" d="M91.44,83.83,74.35,74l-.5-.29-.5-.29-.5-.29V95.71l.5-.29.5-.29.5-.29,16.58-9.57,1-.58v-.58Zm-17.59-9L90.43,84.4l-8.29,4.79L73.85,94Z"/><polygon points="91.43 84.4 73.35 94.84 91.43 105.29 91.43 84.4"/><path class="cls-1" d="M91.44,83.83l-.5.28h0l-.5.29-8.29,4.79L73.85,94h0l-.5.28-.5.29-.5.29.5.29.5.29.5.29,18.08,10.44v-22Zm-.51,20.59L74.35,94.84l16.58-9.57Z"/><polygon points="55.26 84.4 73.35 73.96 55.26 63.52 55.26 84.4"/><path class="cls-1" d="M73.85,73.67l-.5-.29-.5-.29L56.26,63.52l-1-.58-.5-.29V85.27l1-.58.5-.29,16.59-9.57,1-.58.5-.29ZM55.76,83.54V64.38L72.35,74Z"/><polygon points="73.35 73.96 55.26 84.4 73.35 94.84 73.35 73.96"/><path class="cls-1" d="M73.35,73.38l-.5.29-.5.29L55.76,83.53h0l-.5.28-.5.29-.5.29.5.29,1,.58,16.59,9.57.5.29.5.29.5.29v-22ZM72.85,94,56.26,84.4l16.59-9.57Z"/><polygon points="37.17 73.96 55.26 63.52 37.17 53.08 37.17 73.96"/><path class="cls-1" d="M55.26,62.94l-.5-.29L38.17,53.08h0l-.49-.29-.5-.29-.5-.29V74.83l1-.58.5-.29,16.59-9.57h0l.5-.28.5-.29.5-.29ZM37.67,73.09V53.94l16.59,9.58Z"/><polygon points="55.26 63.52 37.17 73.96 55.26 84.4 55.26 63.52"/><path class="cls-1" d="M55.26,62.94l-1,.58L37.67,73.09l-.5.29-.5.29-.5.29.5.29,1,.58L54.26,84.4l.5.29,1,.58v-22Zm-.5,20.6L38.17,74l16.59-9.58Z"/><polygon points="37.17 53.08 19.09 63.52 37.17 73.96 37.17 53.08"/><path class="cls-1" d="M37.17,52.5l-1,.58L19.59,62.65l-.5.29-1,.58.5.29.49.28h0l.5.29L36.17,74l.5.29,1,.58V52.21Zm-.5,20.59L20.09,63.52l8.29-4.79,8.29-4.79Z"/></svg>