<svg id="Layer_1" data-name="Layer 1" xmlns="http://www.w3.org/2000/svg" viewBox="0 0 35.94 35.12"><defs><style>.cls-1{fill:#fff;stroke:#000;stroke-miterlimit:10;}</style></defs><path class="cls-1" d="M13.74,33.86l-.18-4.6a4.56,4.56,0,0,1-3.61,0c-1-.48-1.3-1.26-2.64-2.93A30.5,30.5,0,0,0,5,23.81a2.73,2.73,0,0,1,2-.17c.9.33,1,1.13,1.89,2.06.21.22,2,2,3.62,1.5a3.51,3.51,0,0,0,2-3.05,7.37,7.37,0,0,1-7.06-4.48,7.8,7.8,0,0,1,1-7.11,5.34,5.34,0,0,1-.34-2.93,5,5,0,0,1,.75-1.9A9.37,9.37,0,0,1,11,8.25a9.24,9.24,0,0,1,2.53,1.44A14.69,14.69,0,0,1,17.81,9a15.31,15.31,0,0,1,4.59.63,9.21,9.21,0,0,1,1.84-1.09,9.68,9.68,0,0,1,3.16-.81,9.4,9.4,0,0,1,.4,2.36,9,9,0,0,1-.23,2.41,7.58,7.58,0,0,1,1.55,6c-.7,3.16-3.85,5.6-7.69,5.68.3.75.61,1.49.92,2.24q0,3.68.11,7.35c.29-.09.69-.21,1.16-.38,5.45-2.06,11.78-8.21,11.82-16C35.48,8.7,27.57.52,18,.5,8,.47-.06,9.57.53,19,1,26.06,6.7,31.85,11.89,34.1c.46.2.86.34,1.16.44l.34-.34Z"/></svg>