<svg id="Layer_1" data-name="Layer 1" xmlns="http://www.w3.org/2000/svg" viewBox="0 0 35.91 35.91"><defs><style>.cls-1,.cls-2{fill:#fff;}.cls-1{stroke:#000;stroke-miterlimit:10;}</style></defs><rect class="cls-1" x="0.5" y="0.5" width="34.91" height="34.91" rx="0.41"/><path class="cls-2" d="M5.78,29.74V14h5.15V29.74ZM8.34,11.31a2.41,2.41,0,1,1,0-4.81,2.42,2.42,0,1,1,0,4.81Z"/><path d="M8.37,7A1.89,1.89,0,0,1,10.5,8.92a1.93,1.93,0,0,1-2.16,1.89A1.92,1.92,0,1,1,8.37,7m2.06,7.51V29.24H6.28V14.51h4.15M8.37,6a2.91,2.91,0,1,0,0,5.81A2.91,2.91,0,1,0,8.37,6Zm3.06,7.51H5.28V30.24h6.15V13.51Z"/><path class="cls-2" d="M25.16,29.74V21.13c0-2.95-1.44-3.56-2.65-3.56a2.55,2.55,0,0,0-2.46,1.76,3.65,3.65,0,0,0-.21,1.42v9H14.69V19.22c0-2-.06-3.76-.12-5.21h4.34l.27,2.14H20l.15-.21a5.54,5.54,0,0,1,4.62-2.3c3.58,0,5.55,2.39,5.55,6.74v9.36Z"/><path d="M24.76,14.14c4.17,0,5,3.39,5,6.24v8.86H25.66V21.13c0-3.67-2.2-4.06-3.15-4.06a3.06,3.06,0,0,0-2.91,2.05,4,4,0,0,0-.26,1.63v8.49H15.19v-10c0-1.8,0-3.4-.1-4.71h3.38l.16,1.27.11.87h1.51l.3-.43a5,5,0,0,1,4.21-2.08m0-1a6.08,6.08,0,0,0-5,2.51h-.1l-.28-2.14h-5.3c.07,1.56.14,3.47.14,5.71v11h6.15V20.75a3.21,3.21,0,0,1,.17-1.22,2.1,2.1,0,0,1,2-1.46c1.5,0,2.15,1.12,2.15,3.06v9.11h6.15V20.38c0-4.59-2.14-7.24-6-7.24Z"/></svg>