<svg id="Layer_1" data-name="Layer 1" xmlns="http://www.w3.org/2000/svg" viewBox="0 0 285.59 120.77"><path d="M181,2.32,148.52,80.66l0,0a.37.37,0,0,1-.05.11l-.06.1a1.33,1.33,0,0,1-.14.19l-.07.09-.09.08-.09.08-.07,0-.24.14-.14.06-.07,0-.15,0a.57.57,0,0,1-.18,0h-.42l-.11,0-.24-.07-.09,0-.11,0a1.89,1.89,0,0,1-.38-.27c-.05-.06-.11-.12-.15-.18l-.06-.07a1.38,1.38,0,0,1-.14-.24v0L127.67,43.49a1.67,1.67,0,1,1,3-1.44L146.86,75.9,178,1A1.67,1.67,0,1,1,181,2.32Z"/><path d="M85.07,2.32,52.54,80.66s0,0,0,0a.37.37,0,0,1-.05.11l-.06.1a1.27,1.27,0,0,1-.13.19l-.08.09-.09.08a.36.36,0,0,1-.09.08l-.07,0a1.38,1.38,0,0,1-.24.14l-.14.06-.07,0-.15,0a.57.57,0,0,1-.18,0h-.42l-.11,0-.24-.07h0l-.06,0-.1,0a1.46,1.46,0,0,1-.38-.27l-.16-.18L49.62,81a1.4,1.4,0,0,1-.15-.24v0L33.31,46.89,3.23,119.73a1.68,1.68,0,0,1-1.55,1,1.59,1.59,0,0,1-.64-.13,1.67,1.67,0,0,1-.91-2.19L31.62,42.2a1.47,1.47,0,0,1,.1-.22,1,1,0,0,1,.12-.19,1.3,1.3,0,0,1,.15-.18,1.61,1.61,0,0,1,.28-.24l.1-.06.11-.06.17-.07h0l.17,0h0l.18,0h.18l.26,0,.09,0a1.57,1.57,0,0,1,.43.15l.2.12a1.55,1.55,0,0,1,.27.24,1.33,1.33,0,0,1,.14.19l.07.1.06.12v0L50.88,75.9,82,1a1.68,1.68,0,1,1,3.1,1.28Z"/><path d="M119.33,65.52c0-.08-.08-.16-.08-.24l-9-18.92-6.76-14.09-1.94-4.1c-.08-.08-.08-.08-.08-.16a.08.08,0,0,1-.08-.09c-.08-.07-.08-.16-.16-.16l-.24-.24c-.08-.08-.16-.08-.24-.16s-.24-.08-.4-.16H99.6c-.08.08-.08.08-.16.08a.28.28,0,0,0-.16.08c-.08,0-.08,0-.16.08H99l-.24.24c-.08.08-.16.17-.16.24s-.08.09-.17.17-.08.16-.08.24L66.91,104.57a1.74,1.74,0,0,0,.89,2.18,2.47,2.47,0,0,0,.64.16,1.64,1.64,0,0,0,1.53-1L80,81.55l19.64-7.09L108,71.4l10.31-3.7h.08c.08-.08.24-.08.32-.16s.16-.08.16-.16a2.4,2.4,0,0,0,.57-.73v-.16a1.31,1.31,0,0,0,0-.56v-.24A.28.28,0,0,1,119.33,65.52Zm-11,2.26-8.3,3-18.27,6.6L100.08,33l2.82,5.87,6.77,14V53l5.79,12.24Z"/><path d="M228.48,27.87l-38.3,15.77,17,35.56a1.89,1.89,0,0,1,.11.25,1,1,0,0,1,0,.16.43.43,0,0,1,0,.11,0,0,0,0,1,0,0s0,.08,0,.11a1.45,1.45,0,0,1,0,.55l0,.11a1.72,1.72,0,0,1-.49.76l-.16.12a1.5,1.5,0,0,1-.38.19l0,0L167.34,95.69a1.65,1.65,0,0,1-.58.1,1.68,1.68,0,0,1-.57-3.26l37.19-13.46-17-35.55a.61.61,0,0,1,0-.12s0,0,0,0l0-.08,0-.12a.06.06,0,0,1,0,0l0-.17a1.09,1.09,0,0,1,0-.18,1.72,1.72,0,0,1,.14-.68l0-.1a.6.6,0,0,1,.09-.15l.06-.09a1.56,1.56,0,0,1,.7-.53l.09,0L227.2,24.77a1.68,1.68,0,0,1,1.28,3.1Z"/><path d="M285.43,25.67a1.64,1.64,0,0,0-2.18-.89l-.72.33L243.4,41.21h-.08a1.78,1.78,0,0,0-.73.56.08.08,0,0,1-.08.08c0,.09,0,.09-.08.16v.09a1.88,1.88,0,0,0-.16.64v.4h.08v.24h.08v.16l7,14.66,3.7,7.73,7.09,14.81c0,.08.08.16.16.24v.08c.08.08.16.08.16.16.16.09.24.25.4.25a.08.08,0,0,0,.08.08h.08v.08h.24c.08,0,.08.08.16.08h.41c.08,0,.16,0,.16-.08h.24c.08-.08.08-.08.16-.08s.16-.08.24-.16l.08-.08.08-.09.08-.08.08-.08a.28.28,0,0,0,.08-.16.08.08,0,0,0,.08-.08c0-.08.09-.08.09-.16l17.63-42.51,4.51-10.87a2.37,2.37,0,0,0,.16-.8A2.84,2.84,0,0,0,285.43,25.67ZM274.72,44.35,261.59,75.91l-5.95-12.48-3.71-7.73-5.71-12.07,30.19-12.4,4.51-1.86Z"/><path d="M263,1.84a13.41,13.41,0,1,0,13.45,13.44A13.4,13.4,0,0,0,263,1.84Zm0,23.51a10.07,10.07,0,1,1,10.07-10.07A10.07,10.07,0,0,1,263,25.35Z"/></svg>