<svg id="Layer_1" data-name="Layer 1" xmlns="http://www.w3.org/2000/svg" viewBox="0 0 35.91 35.91"><defs><style>.cls-1{fill:#fff;}</style></defs><path class="cls-1" d="M35,.5H.92A.41.41,0,0,0,.5.91V35a.42.42,0,0,0,.42.41H35a.42.42,0,0,0,.42-.41V.91A.41.41,0,0,0,35,.5ZM4.76,14.08l-.43-.21a.5.5,0,0,1-.23-.67A.49.49,0,0,1,4.76,13Zm27.29-.44-.89.44V13l.45-.22a.5.5,0,0,1,.67.23A.51.51,0,0,1,32.05,13.64Z"/><path d="M35,0H.92A.91.91,0,0,0,0,.91V35a.91.91,0,0,0,.91.91H35a.91.91,0,0,0,.91-.91V.91A.91.91,0,0,0,35,0Zm-.09,34.91H1V1H34.92Z"/><rect class="cls-1" x="5.26" y="8.06" width="25.4" height="19.79" rx="0.83"/><path d="M29.84,7.56H6.09A1.34,1.34,0,0,0,4.76,8.89V27a1.34,1.34,0,0,0,1.33,1.33H29.84A1.33,1.33,0,0,0,31.16,27V8.89A1.33,1.33,0,0,0,29.84,7.56ZM30.16,27a.32.32,0,0,1-.32.33H6.09A.33.33,0,0,1,5.76,27V8.89a.33.33,0,0,1,.33-.33H29.84a.32.32,0,0,1,.32.33Z"/><path d="M18.41,20.25a.43.43,0,0,1-.2.2l-.05,0-.1,0h-.12a.5.5,0,0,1-.26-.08L5.76,14.57l-.5-.24-.5-.25V13h0l.49.24.5.25,12.18,6,.24.11A.5.5,0,0,1,18.41,20.25Z"/><path d="M31.16,13v1.12l-.5.24-.5.25L18.21,20.45l-.05,0a.59.59,0,0,1-.22.05.5.5,0,0,1-.26-.08.46.46,0,0,1-.19-.2.5.5,0,0,1,.22-.67l.23-.11,12.22-6,.5-.24Z"/></svg>