<svg id="Layer_1" data-name="Layer 1" xmlns="http://www.w3.org/2000/svg" viewBox="0 0 106.15 106.15"><defs><style>.cls-1{fill:#fff;}.cls-2{fill:gold;}</style></defs><polygon class="cls-1" points="32.19 77.69 21.75 95.77 42.63 95.77 32.19 77.69"/><path d="M43.21,95.77l-.28-.5-.29-.5-4.79-8.29-4.78-8.3h0l-.28-.5h0l-.28-.49h0l-.29-.49-.29.49-.29.5-.29.5L21.76,94.77h0l-.29.5h0l-.28.49-.29.5H43.5Zm-20.59-.5L32.2,78.68l9.57,16.59Z"/><polygon class="cls-1" points="21.75 95.77 32.19 77.69 11.31 77.69 21.75 95.77"/><path d="M11,77.18l-.28.5.28.5h0l.28.5L16.1,87l4.78,8.29h0l.28.5h0l.28.5H22l.29-.5.29-.5L32.2,78.68h0l.28-.49h0l.28-.48h0l.29-.5ZM21.75,94.77,12.18,78.18H31.33Z"/><polygon class="cls-1" points="53.08 77.69 42.63 95.77 63.52 95.77 53.08 77.69"/><path d="M63.81,95.27l-.29-.5L54,78.18l-.58-1h-.58l-.29.5-.29.5L42.64,94.77l-.58,1-.29.5H64.39Zm-1.15,0H43.5l9.58-16.58Z"/><polygon class="cls-1" points="42.63 95.77 53.08 77.69 32.19 77.69 42.63 95.77"/><path d="M31.33,77.18l.29.5.29.5.29.49h0l9.57,16.59.29.5.29.5h.58l.28-.5h0l.28-.5h0l9.57-16.58h0l.29-.5.58-1Zm1.73,1H52.21L42.64,94.77l-4.79-8.29Z"/><polygon class="cls-1" points="73.96 77.69 63.52 95.77 84.4 95.77 73.96 77.69"/><path d="M85,95.77l-.28-.49h0l-.29-.5L74.83,78.18l-.58-1L74,76.69l-.29.49h0l-.28.49h0l-.28.5h0l-4.78,8.3-4.79,8.29-.29.5-.28.5-.29.5H85.27Zm-20.59-.5L74,78.68l9.58,16.59Z"/><polygon class="cls-1" points="63.52 95.77 73.96 77.69 53.08 77.69 63.52 95.77"/><path d="M52.21,77.18l.29.5.58,1h0l9.57,16.58h0l.28.5h0l.28.5h.58l.58-1L74,78.68h0l.28-.5.58-1Zm16.1,9.3-4.79,8.29L54,78.18H73.1Z"/><polygon class="cls-2" points="94.84 77.69 84.4 95.77 105.29 95.77 94.84 77.69"/><path d="M95.71,78.18l-.29-.5-.28-.5-.29-.5-.29.5-.29.5-.29.5L84.41,94.77l-.29.5-.29.5-.29.5h22.62Zm8.71,17.09H85.27L90.06,87l4.79-8.3Z"/><polygon points="11.31 77.69 0.86 95.77 21.75 95.77 11.31 77.69"/><path d="M22.33,95.77l-.29-.5-.28-.5h0L12.18,78.18l-.29-.5-.58-1-.29.5-.28.5-.29.5L0,96.27H22.62Zm-11-17.09L16.1,87l4.79,8.29H1.74Z"/><polygon class="cls-1" points="84.4 95.77 94.84 77.69 73.96 77.69 84.4 95.77"/><path d="M95.14,77.18h-22l.29.5h0l.28.48h0l.28.49h0l9.57,16.59.29.5.29.5h.58l.28-.5h0l.28-.5h0L90.06,87l4.79-8.3.28-.5h0l.28-.5ZM84.41,94.77,74.83,78.18H94Z"/><polygon class="cls-1" points="63.52 23.43 42.63 23.43 53.08 41.52 63.52 23.43"/><path d="M63.81,22.93H42.35l-.29.5.58,1L52.21,41l.29.5.58,1,.29-.5L54,41l9.57-16.58.29-.5.29-.5Zm-20.31,1H62.66L53.08,40.5Z"/><polygon class="cls-1" points="42.63 23.43 63.52 23.43 53.08 5.34 42.63 23.43"/><path d="M63.81,22.93l-.29-.5L53.08,4.34,42.64,22.43l-.58,1-.29.5H64.39Zm-20.31,0L53.08,6.34l9.58,16.59Z"/><polygon class="cls-1" points="73.96 41.52 53.08 41.52 63.52 59.6 73.96 41.52"/><path d="M74.25,41h-22l.29.5.58,1h0L62.66,59.1l.29.5.28.5.29.5.29-.5.58-1L74,42.51l.29-.5.29-.5Zm-5.94,9.3L63.52,58.6,54,42H73.1Z"/><polygon class="cls-1" points="53.08 41.52 73.96 41.52 63.52 23.43 53.08 41.52"/><path d="M74.25,41l-.29-.5L64.39,23.93l-.58-1-.29-.5-.58,1-.28.5h0L53.08,40.5h0l-.58,1-.29.5H74.83ZM54,41l9.57-16.58L73.1,41Z"/><polygon class="cls-1" points="84.4 59.6 63.52 59.6 73.96 77.69 84.4 59.6"/><path d="M84.7,59.1h-22l.29.5.28.5h0l.28.5,9.57,16.58h0l.28.5h0l.28.48h0l.29.49.29-.49.58-1L84.41,60.6l.28-.5h0L85,59.6h0Zm-20.31,1H83.54L74,76.68Z"/><polygon class="cls-1" points="63.52 59.6 84.4 59.6 73.96 41.52 63.52 59.6"/><path d="M85,59.6h0l-.28-.49h0l-.28-.49h0L74.83,42l-.58-1-.29-.5-.58,1-.28.5h0l-4.78,8.3L63.52,58.6l-.28.5h0l-.28.5.28.5h22Zm-20.59-.5L74,42.51,83.54,59.1Z"/><polygon class="cls-1" points="73.96 77.69 94.84 77.69 84.4 59.6 73.96 77.69"/><path d="M95.42,77.68l-.28-.5h0l-.28-.5L85.27,60.1,85,59.6h0l-.28-.49-.29-.49-.29.49-.29.5-.29.5L74,76.68h0l-.28.49h0l-.28.49h0l-.29.49H95.71Zm-20.59-.5L84.41,60.6,94,77.18Z"/><polygon class="cls-1" points="21.75 59.6 32.19 77.69 42.63 59.6 21.75 59.6"/><path d="M21.46,59.1l-.28.49h0l.28.49h0l.28.5,9.58,16.58.29.5.29.5.29.49.29-.49h0l.28-.48h0l.28-.5h0L42.64,60.6l.28-.5h0l.28-.5.29-.5Zm1.16,1H41.77L32.2,76.68Z"/><polygon class="cls-1" points="32.19 77.69 21.75 59.6 11.31 77.69 32.19 77.69"/><path d="M32.77,77.69h0l-.28-.49h0l-.28-.49h0L22.62,60.1l-.29-.5L22,59.1l-.29-.49-.29.49-.28.49h0l-.29.5L11.31,76.68l-.28.5h0l-.28.5-.29.5H33.06Zm-20.59-.51L21.75,60.6l9.58,16.58Z"/><polygon class="cls-1" points="32.19 41.52 42.63 59.6 53.08 41.52 32.19 41.52"/><path d="M31.91,41l-.29.5.58,1L41.77,59.1l.29.5.58,1,.29-.5.28-.5.29-.5,9.58-16.58h0l.29-.5L54,41ZM42.64,58.6l-4.79-8.29L33.06,42H52.21Z"/><polygon class="cls-1" points="42.63 59.6 32.19 41.52 21.75 59.6 42.63 59.6"/><path d="M42.93,59.1h0l-.28-.5-4.79-8.29L33.07,42h0l-.28-.5-.29-.5-.29-.5-.58,1-.29.5-9.58,16.6-.28.49h0l-.28.49h0l-.29.5h22l.28-.5Zm-20.31,0L32.2,42.51,41.77,59.1Z"/><polygon class="cls-1" points="53.08 41.52 42.63 23.43 32.19 41.52 53.08 41.52"/><path d="M53.37,41l-.29-.5h0L43.51,23.93h0l-.28-.5-.29-.5-.29-.5-.58,1-.29.5L32.2,40.51l-.58,1-.29.5H54ZM33.06,41l9.58-16.58L52.21,41Z"/></svg>