<svg id="Layer_1" data-name="Layer 1" xmlns="http://www.w3.org/2000/svg" viewBox="0 0 106.15 92.43"><defs><style>.cls-1{fill:#fff;stroke:#000;stroke-miterlimit:10;}</style></defs><polygon class="cls-1" points="21.75 91.43 32.19 73.34 11.31 73.34 21.75 91.43"/><polygon class="cls-1" points="94.84 73.34 84.4 91.43 105.29 91.43 94.84 73.34"/><polygon class="cls-1" points="11.31 73.34 0.87 91.43 21.75 91.43 11.31 73.34"/><polygon class="cls-1" points="84.4 91.43 94.84 73.34 73.96 73.34 84.4 91.43"/><polygon class="cls-1" points="63.52 19.09 42.63 19.09 53.08 37.17 63.52 19.09"/><polygon class="cls-1" points="42.63 19.09 63.52 19.09 53.08 1 42.63 19.09"/><polygon class="cls-1" points="73.96 37.17 53.08 37.17 63.52 55.26 73.96 37.17"/><polygon class="cls-1" points="53.08 37.17 73.96 37.17 63.52 19.09 53.08 37.17"/><polygon class="cls-1" points="84.4 55.26 63.52 55.26 73.96 73.34 84.4 55.26"/><polygon class="cls-1" points="63.52 55.26 84.4 55.26 73.96 37.17 63.52 55.26"/><polygon class="cls-1" points="73.96 73.34 94.84 73.34 84.4 55.26 73.96 73.34"/><polygon class="cls-1" points="21.75 55.26 32.19 73.34 42.63 55.26 21.75 55.26"/><polygon class="cls-1" points="32.19 73.34 21.75 55.26 11.31 73.34 32.19 73.34"/><polygon class="cls-1" points="32.19 37.17 42.63 55.26 53.08 37.17 32.19 37.17"/><polygon class="cls-1" points="42.63 55.26 32.19 37.17 21.75 55.26 42.63 55.26"/><polygon class="cls-1" points="53.08 37.17 42.63 19.09 32.19 37.17 53.08 37.17"/></svg>