<svg id="Layer_1" data-name="Layer 1" xmlns="http://www.w3.org/2000/svg" viewBox="0 0 91.93 106.16"><defs><style>.cls-1{fill:#fff;}</style></defs><polygon class="cls-1" points="73.34 32.2 73.34 11.31 55.26 21.76 73.34 32.2"/><path d="M73.34,10.74h0l-.49.28h0l-.49.28h0L55.76,20.89l-1,.58-.5.29.49.28h0l.5.29.5.28h0l8.29,4.78,8.29,4.79.5.28h0l.49.28h0l.49-.28v-22Zm-.5,20.59L56.26,21.76l16.58-9.58Z"/><polygon class="cls-1" points="73.34 11.31 73.34 32.2 91.43 21.76 73.34 11.31"/><path d="M72.84,11v22l.5-.29h0l.49-.28h0l.5-.28,8.3-4.79,8.29-4.78h0l.5-.28h0l.5-.28v-.58l-1-.58L74.34,11.31l-.5-.28h0l-.49-.28h0ZM90.43,21.76,73.84,31.33V12.18Z"/><polygon class="cls-1" points="55.26 42.64 55.26 21.76 37.17 32.2 55.26 42.64"/><path d="M54.76,21.47l-.5.29L37.67,31.33l-1,.58-.5.29,1,.58.5.28h0l16.59,9.57,1,.58.5-.29v-22Zm0,20.3L38.17,32.2l16.59-9.58Z"/><polygon class="cls-1" points="55.26 21.76 55.26 42.64 73.34 32.2 55.26 21.76"/><path d="M54.76,21.47v22l.5-.29,1-.58,16.58-9.57h0l.5-.28h0l.49-.28.5-.29-.49-.29h0l-.49-.28-.51-.3L56.26,21.76l-.5-.29h0l-.49-.28Zm1,20.3V22.62l8.29,4.79,8.29,4.79Z"/><polygon class="cls-1" points="37.17 53.08 37.17 32.2 19.09 42.64 37.17 53.08"/><path d="M36.67,31.91l-.5.29L19.59,41.77l-1,.58-.5.29,1,.58.5.29,16.58,9.57,1,.58.5.29V31.33Zm0,20.31L20.09,42.64l16.58-9.58Z"/><polygon class="cls-1" points="37.17 32.2 37.17 53.08 55.26 42.64 37.17 32.2"/><path d="M36.67,31.91V54l.5-.29,1-.58,16.59-9.57.5-.29,1-.58-.5-.29-1-.58L38.17,32.2l-.5-.29-.5-.29Zm1,1.15,16.59,9.58L37.67,52.22Z"/><polygon class="cls-1" points="19.09 63.52 19.09 42.64 1 53.08 19.09 63.52"/><path d="M18.59,42.35l-.5.29L0,53.08,18.09,63.52l1,.58.5.29V41.77Zm0,20.31L2,53.08l16.59-9.57Z"/><polygon class="cls-1" points="91.43 21.76 91.43 0.87 73.34 11.31 91.43 21.76"/><path d="M73.84,10.45l-.5.29h0l-.49.28-.49.29.49.29.5.29h0l.49.28,16.59,9.57h0l.5.28h0l.49.29.5-.28V0ZM90.93,1.74V20.89L74.34,11.31Z"/><polygon class="cls-1" points="19.09 42.64 19.09 63.52 37.17 53.08 19.09 42.64"/><path d="M18.59,42.35V63.81l.5.29,1-.58L36.67,54l.5-.29,1-.58-.5-.29-.49-.28h0l-.5-.28h0L20.09,42.64l-.5-.29-.5-.29ZM36.17,53.08l-8.29,4.79-8.29,4.79V43.51Z"/><polygon class="cls-1" points="73.34 94.85 91.43 84.41 73.34 73.97 73.34 94.85"/><path d="M72.84,95.14l.5.29.5-.29h0l.49-.29,16.59-9.57h0l.5-.28h0l.5-.28v-.58l-.5-.29-.5-.29L74.34,74h0l-.5-.28-.5-.29-.5-.29Zm9.3-15.52,8.29,4.79L73.84,94V74.83Z"/><polygon class="cls-1" points="91.43 84.41 73.34 94.85 91.43 105.29 91.43 84.41"/><path d="M90.43,84.41,73.84,94l-.49.28h0l-.5.29-.5.29.5.29,1,.58,18.09,10.44v-22l-.5-.29Zm.5,20L74.34,94.85l16.59-9.58Z"/><polygon class="cls-1" points="55.26 84.41 73.34 73.97 55.26 63.52 55.26 84.41"/><path d="M54.76,84.7l.49.28h0l.49-.28h0l.5-.28,8.29-4.79,8.29-4.78h0l.5-.28h0l.48-.27h0l.48-.29-.49-.29-.5-.29-.5-.29L56.26,63.52h0l-.49-.28h0l-.5-.28-.5-.29Zm1-20.31L72.34,74,55.76,83.54Z"/><polygon class="cls-1" points="73.34 73.97 55.26 84.41 73.34 94.85 73.34 73.97"/><path d="M72.34,74,55.76,83.54l-.5.29-1,.58.5.29.49.28h0l.5.29,16.58,9.58.5.29,1,.58v-22l-.5-.29Zm.5,20L56.26,84.41l16.58-9.58Z"/><polygon class="cls-1" points="37.17 73.97 55.26 63.52 37.17 53.08 37.17 73.97"/><path d="M36.67,74.26l.5.28.49-.28h0l.5-.28,16.59-9.58.5-.29.5-.29.49-.29-.49-.29-.5-.28-.5-.29L38.17,53.08l-.5-.28h0l-.49-.28h0l-.5-.29ZM54.26,63.52,37.67,73.1V54Z"/><polygon class="cls-1" points="55.26 63.52 37.17 73.97 55.26 84.41 55.26 63.52"/><path d="M54.77,63.23h0l-.5.28L37.67,73.1l-.5.29-.5.29-.49.29.49.29.5.28.5.29,16.59,9.58.5.28h0l.49.28h0l.5.29v-22l-.5-.28Zm0,20.31L38.17,74l16.59-9.58Z"/><polygon class="cls-1" points="37.17 53.08 19.09 63.52 37.17 73.97 37.17 53.08"/><path d="M37.18,52.51h0l-.49.28h0l-.5.28-8.29,4.79-8.29,4.78h0l-.5.28-.5.29-.5.29,1,.58.5.29L36.18,74l.49.28h0l.5.28.5.29V52.22ZM36.67,73.1,20.09,63.52,36.67,54Z"/></svg>