<svg id="Layer_1" data-name="Layer 1" xmlns="http://www.w3.org/2000/svg" viewBox="0 0 91.93 106.16"><defs><style>.cls-1{fill:#fff;}</style></defs><polygon class="cls-1" points="18.58 73.96 18.58 94.84 36.67 84.4 18.58 73.96"/><path d="M18.59,95.42h0l.49-.28h0l.49-.28h0l16.58-9.58,1-.58.5-.29-.49-.28h0l-.5-.29-.5-.28h0l-8.29-4.78L19.59,74l-.5-.28h0l-.49-.28h0l-.49.28v22Zm.5-20.59L35.67,84.4,19.09,94Z"/><polygon class="cls-1" points="18.58 94.84 18.58 73.96 0.5 84.4 18.58 94.84"/><path d="M19.09,95.14v-22l-.5.29h0l-.49.28h0l-.5.28-8.3,4.79L1,83.53H1l-.5.28h0l-.5.28v.58l1,.58,16.59,9.58.5.28h0l.49.28h0ZM1.5,84.4l16.59-9.57V94Z"/><polygon class="cls-1" points="36.67 63.52 36.67 84.4 54.76 73.96 36.67 63.52"/><path d="M37.17,84.69l.5-.29,16.59-9.57,1-.58.5-.29-1-.58-.5-.28h0L37.67,63.52l-1-.58-.5.29v22Zm0-20.3L53.76,74,37.17,83.54Z"/><polygon class="cls-1" points="36.67 84.4 36.67 63.52 18.58 73.96 36.67 84.4"/><path d="M37.17,84.69v-22l-.5.29-1,.58L19.09,73.09h0l-.5.28h0l-.49.28-.5.29.49.29h0l.49.28.51.3L35.67,84.4l.5.29h0l.49.28Zm-1-20.3V83.54l-8.29-4.79L19.59,74Z"/><polygon class="cls-1" points="54.76 53.08 54.76 73.96 72.84 63.52 54.76 53.08"/><path d="M55.26,74.25l.5-.29,16.58-9.57,1-.58.5-.29-1-.58-.5-.29L55.76,53.08l-1-.58-.5-.29V74.83Zm0-20.31,16.58,9.58L55.26,73.1Z"/><polygon class="cls-1" points="54.76 73.96 54.76 53.08 36.67 63.52 54.76 73.96"/><path d="M55.26,74.25v-22l-.5.29-1,.58L37.17,62.65l-.5.29-1,.58.5.29,1,.58L53.76,74l.5.29.5.29Zm-1-1.15L37.67,63.52l16.59-9.58Z"/><polygon class="cls-1" points="72.84 42.63 72.84 63.52 90.93 53.08 72.84 42.63"/><path d="M73.34,63.81l.5-.29L91.93,53.08,73.84,42.64l-1-.58-.5-.29V64.39Zm0-20.31,16.59,9.58L73.34,62.65Z"/><polygon class="cls-1" points="0.5 84.4 0.5 105.29 18.58 94.84 0.5 84.4"/><path d="M18.09,95.71l.5-.29h0l.49-.28.49-.29-.49-.29-.5-.29h0L18.09,94,1.5,84.41h0L1,84.12H1L.5,83.83l-.5.28v22ZM1,104.42V85.27l16.59,9.58Z"/><polygon class="cls-1" points="72.84 63.52 72.84 42.63 54.76 53.08 72.84 63.52"/><path d="M73.34,63.81V42.35l-.5-.29-1,.58L55.26,52.21l-.5.29-1,.58.5.29.49.28h0l.5.28h0l16.58,9.57.5.29.5.29ZM55.76,53.08l8.29-4.79,8.29-4.79V62.65Z"/><polygon class="cls-1" points="18.58 11.31 0.5 21.75 18.58 32.19 18.58 11.31"/><path d="M19.09,11l-.5-.29-.5.29h0l-.49.29L1,20.88H1l-.5.28h0l-.5.28V22l.5.29.5.29,16.59,9.57h0l.5.28.5.29.5.29ZM9.79,26.54,1.5,21.75l16.59-9.57V31.33Z"/><polygon class="cls-1" points="0.5 21.75 18.58 11.31 0.5 0.87 0.5 21.75"/><path d="M1.5,21.75l16.59-9.57.49-.28h0l.5-.29.5-.29-.5-.29-1-.58L0,0V22l.5.29ZM1,1.73l16.59,9.58L1,20.89Z"/><polygon class="cls-1" points="36.67 21.75 18.58 32.19 36.67 42.63 36.67 21.75"/><path d="M37.17,21.46l-.49-.28h0l-.49.28h0l-.5.28-8.29,4.79-8.29,4.78h0l-.5.28h0l-.48.27h0l-.48.29.49.29.5.29.5.29,16.58,9.58h0l.49.28h0l.5.28.5.29Zm-1,20.31L19.59,32.19l16.58-9.57Z"/><polygon class="cls-1" points="18.58 32.19 36.67 21.75 18.58 11.31 18.58 32.19"/><path d="M19.59,32.19l16.58-9.57.5-.29,1-.58-.5-.29-.49-.28h0l-.5-.29L19.59,11.31l-.5-.29-1-.58v22l.5.29Zm-.5-20,16.58,9.57L19.09,31.33Z"/><polygon class="cls-1" points="54.76 32.19 36.67 42.63 54.76 53.08 54.76 32.19"/><path d="M55.26,31.9l-.5-.28-.49.28h0l-.5.28L37.17,41.77l-.5.29-.5.29-.49.29.49.29.5.28.5.29,16.59,9.58.5.28h0l.49.28h0l.5.29ZM37.67,42.64l16.59-9.58V52.21Z"/><polygon class="cls-1" points="36.67 42.63 54.76 32.19 36.67 21.75 36.67 42.63"/><path d="M37.16,42.93h0l.5-.28,16.59-9.58.5-.29.5-.29.49-.29-.49-.29-.5-.28-.5-.29L37.67,21.75l-.5-.28h0l-.49-.28h0l-.5-.29v22l.5.28Zm0-20.31,16.59,9.57L37.17,41.77Z"/><polygon class="cls-1" points="54.76 53.08 72.84 42.63 54.76 32.19 54.76 53.08"/><path d="M54.75,53.65h0l.49-.28h0l.5-.28,8.29-4.79,8.29-4.78h0l.5-.28.5-.29.5-.29-1-.58-.5-.29L55.75,32.19l-.49-.28h0l-.5-.28-.5-.29V53.94Zm.51-20.59,16.58,9.58L55.26,52.21Z"/></svg>