<svg id="Layer_1" data-name="Layer 1" xmlns="http://www.w3.org/2000/svg" viewBox="0 0 106.16 91.93"><defs><style>.cls-1{fill:#fff;}</style></defs><polygon class="cls-1" points="32.2 18.58 11.31 18.58 21.76 36.67 32.2 18.58"/><path d="M10.74,18.59h0l.28.49h0l.28.49h0l9.58,16.58.58,1,.29.5.28-.49h0l.29-.5.28-.5h0l4.78-8.29,4.79-8.29.28-.5h0l.28-.49h0l-.28-.49h-22Zm20.59.5L21.76,35.67,12.18,19.09Z"/><polygon class="cls-1" points="11.31 18.58 32.2 18.58 21.76 0.5 11.31 18.58"/><path d="M11,19.09h22l-.29-.5h0l-.28-.49h0l-.28-.5-4.79-8.3L22.63,1h0L22.34.5h0L22.05,0h-.58l-.58,1L11.31,17.59l-.28.5h0l-.28.49h0ZM21.76,1.5l9.57,16.59H12.18Z"/><polygon class="cls-1" points="42.64 36.67 21.76 36.67 32.2 54.76 42.64 36.67"/><path d="M21.47,37.17l.29.5,9.57,16.59.58,1,.29.5.58-1,.28-.5h0l9.57-16.59.58-1-.29-.5h-22Zm20.3,0L32.2,53.76,22.62,37.17Z"/><polygon class="cls-1" points="21.76 36.67 42.64 36.67 32.2 18.58 21.76 36.67"/><path d="M21.47,37.17h22l-.29-.5-.58-1L33.07,19.09h0l-.28-.5h0l-.28-.49-.29-.5-.29.49h0l-.28.49-.3.51L21.76,35.67l-.29.5h0l-.28.49Zm20.3-1H22.62l4.79-8.29,4.79-8.29Z"/><polygon class="cls-1" points="53.08 54.76 32.2 54.76 42.64 72.84 53.08 54.76"/><path d="M31.91,55.26l.29.5,9.57,16.58.58,1,.29.5.58-1,.29-.5,9.57-16.58.58-1,.29-.5H31.33Zm20.31,0L42.64,71.84,33.06,55.26Z"/><polygon class="cls-1" points="32.2 54.76 53.08 54.76 42.64 36.67 32.2 54.76"/><path d="M31.91,55.26H54l-.29-.5-.58-1L43.51,37.17l-.29-.5-.58-1-.29.5-.58,1L32.2,53.76l-.29.5-.29.5Zm1.15-1,9.58-16.59,9.58,16.59Z"/><polygon class="cls-1" points="63.52 72.84 42.64 72.84 53.08 90.93 63.52 72.84"/><path d="M42.35,73.34l.29.5L53.08,91.93,63.52,73.84l.58-1,.29-.5H41.77Zm20.31,0L53.08,89.93,43.51,73.34Z"/><polygon class="cls-1" points="21.76 0.5 0.87 0.5 11.31 18.58 21.76 0.5"/><path d="M10.45,18.09l.29.5h0l.28.49.29.49.29-.49.29-.5h0l.28-.49L21.75,1.5h0L22,1h0L22.33.5,22.05,0H0ZM1.74,1H20.89L11.31,17.59Z"/><polygon class="cls-1" points="42.64 72.84 63.52 72.84 53.08 54.76 42.64 72.84"/><path d="M42.35,73.34H63.81l.29-.5-.58-1L54,55.26l-.29-.5-.58-1-.29.5-.28.49h0l-.28.5h0L42.64,71.84l-.29.5-.29.5ZM53.08,55.76l4.79,8.29,4.79,8.29H43.51Z"/><polygon class="cls-1" points="94.85 18.58 84.41 0.5 73.97 18.58 94.85 18.58"/><path d="M95.14,19.09l.29-.5-.29-.5h0l-.29-.49L85.28,1h0L85,.5h0L84.7,0h-.58l-.29.5-.29.5L74,17.59h0l-.28.5-.29.5-.29.5ZM79.62,9.79,84.41,1.5,94,18.09H74.83Z"/><polygon class="cls-1" points="84.41 0.5 94.85 18.58 105.29 0.5 84.41 0.5"/><path d="M84.41,1.5,94,18.09l.28.49h0l.29.5.29.5.29-.5.58-1L106.16,0h-22l-.29.5Zm20-.5L94.85,17.59,85.27,1Z"/><polygon class="cls-1" points="84.41 36.67 73.97 18.58 63.52 36.67 84.41 36.67"/><path d="M84.7,37.17l.28-.49h0l-.28-.49h0l-.28-.5-4.79-8.29-4.78-8.29h0l-.28-.5h0l-.27-.48v0L74,17.6l-.29.49-.29.5-.29.5L63.52,35.67h0l-.28.49h0l-.28.5-.29.5Zm-20.31-1L74,19.59l9.57,16.58Z"/><polygon class="cls-1" points="73.97 18.58 84.41 36.67 94.85 18.58 73.97 18.58"/><path d="M74,19.59l9.57,16.58.29.5.58,1,.29-.5.28-.49h0l.29-.5,9.58-16.58.29-.5.58-1h-22l-.29.5Zm20-.5L84.41,35.67,74.83,19.09Z"/><polygon class="cls-1" points="73.97 54.76 63.52 36.67 53.08 54.76 73.97 54.76"/><path d="M74.26,55.26l.28-.5-.28-.49h0l-.28-.5L64.39,37.17l-.29-.5-.29-.5-.29-.49-.29.49-.28.5-.29.5L53.08,53.76l-.28.5h0l-.28.49h0l-.29.5ZM63.52,37.67,73.1,54.26H54Z"/><polygon class="cls-1" points="63.52 36.67 73.97 54.76 84.41 36.67 63.52 36.67"/><path d="M63.23,37.16h0l.28.5L73.1,54.26l.29.5.29.5.29.49.29-.49.28-.5.29-.5,9.58-16.59.28-.5h0l.28-.49h0l.29-.5h-22l-.28.5Zm20.31,0L74,53.76,64.39,37.17Z"/><polygon class="cls-1" points="53.08 54.76 63.52 72.84 73.97 54.76 53.08 54.76"/><path d="M52.51,54.75h0l.28.49h0l.28.5,4.79,8.29,4.78,8.29h0l.28.5.29.5.29.5.58-1,.29-.5L74,55.75l.28-.49h0l.28-.5.29-.5H52.22Zm20.59.51L63.52,71.84,54,55.26Z"/></svg>