<svg id="Layer_1" data-name="Layer 1" xmlns="http://www.w3.org/2000/svg" viewBox="0 0 28.7 31.52"><defs><style>.cls-1{fill:#fff;}</style></defs><polygon class="cls-1" points="2.34 23.4 3.02 31.07 9.32 26.64 2.34 23.4"/><path d="M9.55,26.48h0l-.25-.12h0L9,26.23H9L2.84,23.36h0l-.52-.24h0L2.05,23l0,.28,0,.29,0,.29.68,7.67L9.1,27.09l.23-.16h0l.23-.16.23-.17ZM3.23,30.61l-.61-6.8,6.19,2.88Z"/><polygon class="cls-1" points="8.63 18.98 9.32 26.64 15.61 22.22 8.63 18.98"/><path d="M15.85,22.05l-.27-.12-.26-.12h0l-3.09-1.43-3.1-1.44h0l-.25-.12-.27-.12-.26-.12,0,.28h0l0,.28h0l0,.28.6,6.8,0,.29,0,.29,0,.28.23-.16h0l.23-.17.23-.16,5.6-3.93.23-.16.48-.34ZM9.52,26.19l-.6-6.8,6.19,2.87Z"/><polygon class="cls-1" points="1.65 15.74 2.34 23.4 8.63 18.98 1.65 15.74"/><path d="M8.87,18.81l-.27-.12-.26-.12h0L5.25,17.13l-3.1-1.44-.26-.12-.27-.12-.26-.12,0,.28,0,.29,0,.29.63,7.09h0l0,.29,0,.29.23-.17.23-.16.24-.16h0l5.59-3.92.23-.16h0l.23-.16.23-.17ZM1.94,16.15,8.13,19,2.54,23Z"/><polygon class="cls-1" points="9.32 26.64 8.63 18.98 2.34 23.4 9.32 26.64"/><path d="M9.55,26.48h0l0-.28-.6-6.8,0-.29,0-.29,0-.29-.24.17-.23.16h0L8.13,19,2.54,23l-.23.16h0l-.22.16,0,.29.26.12.26.13,6.19,2.88.52.24h0l.23-.16h0ZM9,26.23,2.84,23.36l5.58-3.93L9,26.23Z"/><polygon class="cls-1" points="14.93 14.55 15.61 22.22 21.91 17.79 14.93 14.55"/><path d="M22.14,17.63h0l-.25-.12h0l-.25-.13h0l-6.18-2.87h0l-.25-.12h0l-.25-.12h0l-.25-.12h0l0,.28,0,.28h0l0,.28h0l.6,6.79h0l0,.29,0,.29,0,.28.23-.16.48-.34,5.58-3.92.24-.17.23-.16.24-.17ZM15.22,15h0l6.19,2.87-5.59,3.92L15.21,15Z"/><polygon class="cls-1" points="21.22 10.13 21.91 17.79 28.2 13.37 21.22 10.13"/><path d="M21.72,10.08h0L21.46,10h0l-.25-.12-.27-.12L21,10l0,.29,0,.28.6,6.8,0,.29,0,.29,0,.29.24-.17.23-.16.24-.17,6.3-4.43Zm-.21.46,6.19,2.87-5.59,3.93Z"/><polygon class="cls-1" points="14.24 6.89 14.93 14.55 21.22 10.13 14.24 6.89"/><path d="M14.53,7.3l.6,6.8h0Zm0,0,.6,6.8h0Zm0,0,.6,6.8h0Zm0,0,.6,6.8h0Zm0,0,.6,6.8h0ZM21.46,10h0l-.25-.12-.27-.12L14.74,6.84h0l-.25-.12h0l-.25-.12L14,6.48l0,.29,0,.29,0,.28.6,6.8,0,.29h0l0,.28,0,.29h0l.23-.16.23-.16h0l.23-.16h0L21,10.58l.24-.17.23-.16.23-.17Zm-.74.21L15.14,14.1l-.61-6.8ZM14.53,7.3l.6,6.8h0Zm0,0,.6,6.8h0Zm0,0,.6,6.8h0Zm0,0,.6,6.8h0Zm0,0,.6,6.8h0Z"/><polygon class="cls-1" points="21.91 17.79 21.22 10.13 14.93 14.55 21.91 17.79"/><path d="M22.14,17.63h0l0-.28-.6-6.8,0-.29,0-.29h0l-.25-.12L21,10,15.14,14.1h0l-.22.15h0l-.22.16h0l-.23.16.25.12h0l.26.12.26.12h0l6.19,2.87.25.12.27.12.23-.16Zm-.53-.25-6.18-2.87L21,10.58l.61,6.8Z"/><polygon class="cls-1" points="0.97 8.07 1.65 15.74 7.95 11.31 0.97 8.07"/><path d="M8.19,11.15h0l-.52-.24h0L1.47,8h0L1.21,7.9,1,7.78h0L.68,7.66.71,8l0,.29,0,.29.6,6.8,0,.28,0,.29,0,.29L1.67,16h0l.23-.16.24-.17,5.58-3.92h0L8,11.6H8l.22-.16h0l.23-.16Zm-.74.21L1.86,15.28l-.61-6.8Z"/><polygon class="cls-1" points="7.27 3.65 7.95 11.31 14.24 6.89 7.27 3.65"/><path d="M7.55,4.06l.6,6.8h0Zm0,0,.6,6.8h0Zm0,0,.6,6.8h0Zm0,0,.6,6.8h0Zm0,0,.6,6.8h0Zm6.93,2.66h0l-.25-.12L14,6.48,7.76,3.6,7.5,3.48l-.27-.12L7,3.24l0,.28H7l0,.28,0,.29.27,3.15.32,3.65,0,.28v0l0,.28h0l0,.28h0L8,11.6H8l.22-.16h0l.23-.16h0L14,7.34l.24-.17L14.5,7l.23-.17Zm-.74.21L8.16,10.86l-.61-6.8ZM7.55,4.06l.6,6.8h0Zm0,0,.6,6.8h0Zm0,0,.6,6.8h0Zm0,0,.6,6.8h0Zm0,0,.6,6.8h0Z"/><polygon class="cls-1" points="0.29 0.41 0.97 8.07 7.27 3.65 0.29 0.41"/><path d="M7.5,3.48l-.27-.12L7,3.24,0,0,.68,7.66.71,8l0,.29,0,.29L1,8.36l.24-.17L1.46,8h0L7.05,4.1h0l.23-.17.23-.16.24-.17ZM.57.82,6.76,3.69,1.18,7.62Z"/><polygon class="cls-1" points="7.95 11.31 7.27 3.65 0.97 8.07 7.95 11.31"/><path d="M8.2,11.44h0l0-.28h0l0-.27h0l-.6-6.8,0-.29,0-.29-.27-.12L7,3.52H7l-.23.16L1.18,7.62,1,7.78h0L.71,8l0,.29L1,8.36l.25.12,6.2,2.88.25.12h0L8,11.6H8l.25.12Zm-.54-.54h0L1.47,8,7.05,4.1l.28,3.15Z"/><polygon class="cls-1" points="14.93 14.55 14.24 6.89 7.95 11.31 14.93 14.55"/><path d="M15.19,14.68h0l0-.28h0l0-.27h0l-.6-6.8,0-.29,0-.29h0l-.25-.12L14,6.77,8.16,10.86h0L7.93,11h0l-.23.16h0l-.23.16.25.12h0L8,11.6H8l.25.12h0l6.19,2.87.25.12h0l.26.12.26.12Zm-.56-.54L8.45,11.27,14,7.34l.61,6.8Z"/><polygon class="cls-1" points="8.63 18.98 7.95 11.31 1.65 15.74 8.63 18.98"/><path d="M8.89,19.1l0-.29,0-.29-.6-6.79h0l0-.29,0-.28h0l0-.28h0L7.93,11h0l-.23.16h0l-.23.16L1.86,15.28l-.24.17-.23.16,0,.29.26.12h0l.26.13L8.13,19l.26.12h0l.26.11h0l.26.12Zm-3.64-2-3.1-1.44,5.58-3.92.61,6.79h0Z"/><polygon class="cls-1" points="15.61 22.22 14.93 14.55 8.63 18.98 15.61 22.22"/><path d="M15.85,22.05l0-.29L15.22,15h0l0-.28h0l0-.28h0l0-.28h0l-.22.15h0l-.22.16h0l-.23.16L8.84,18.52l-.24.17-.23.16h0L8.13,19l.26.12h0l.25.12h0l.26.12,6.19,2.87.26.13.26.12.24-.17Zm-3.62-1.68-3.1-1.44L14.71,15l.61,6.79h0Z"/><polygon class="cls-1" points="7.95 11.31 8.63 18.98 14.93 14.55 7.95 11.31"/><path d="M15.17,14.39h0l-.25-.12h0l-.25-.11h0L8.45,11.27h0l-.25-.12h0L7.93,11h0l-.26-.12h0l0,.27h0l0,.29,0,.28h0l.6,6.79h0l0,.28h0l0,.28h0l0,.28.23-.16h0l.23-.16.23-.17h0L14.71,15h0l.23-.16.23-.16h0l.23-.16ZM8.24,11.72h0l6.19,2.87L8.84,18.52l-.61-6.8Z"/></svg>