<svg id="Layer_1" data-name="Layer 1" xmlns="http://www.w3.org/2000/svg" viewBox="0 0 116.6 91.43"><defs><style>.cls-1{fill:#fff;}</style></defs><path d="M43.21,18.59l-.57-1L33.06,1l-.58-1H31.9l-.28.5L20.89,19.09H43.5Zm-20.59-.5L32.19,1.5l9.58,16.59Z"/><polygon class="cls-1" points="41.77 18.09 22.62 18.09 32.19 1.5 41.77 18.09"/><path d="M94,0l.29.5.58,1,9.57,16.59.58,1h.58l.28-.5L116.6,0Zm11.31,17.59L100.5,9.3,95.71,1h19.15Z"/><polygon class="cls-1" points="114.86 1 105.29 17.59 100.5 9.3 95.72 1 114.86 1"/><path d="M105.29,17.59,100.5,9.3,95.72,1h0L95.42.5,95.14,0h-.58l-.29.5L94,1,84.41,17.59h0l-.57,1-.29.5h22l.28-.5Zm-20,.5L94.85,1.5l9.57,16.59Z"/><polygon class="cls-1" points="104.42 18.09 85.27 18.09 94.85 1.5 104.42 18.09"/><path d="M64.1,18.59l-.58-1h0L54,1h0L53.65.5,53.37,0h-.58L52.5.5l-.29.5L42.64,17.59l-.58,1-.29.5H64.39Zm-20.6-.5L48.29,9.8l4.79-8.3,9.57,16.59Z"/><polygon class="cls-1" points="62.65 18.09 43.51 18.09 48.29 9.8 53.08 1.5 62.65 18.09"/><path d="M31.9,0l-.28.5.57,1,9.58,16.59.29.5.29.5h.58l.28-.5.29-.5h0L48.29,9.8l4.79-8.3.57-1,.29-.5ZM42.64,17.59,33.06,1H52.21Z"/><polygon class="cls-1" points="52.21 1 42.64 17.59 33.06 1 52.21 1"/><path d="M85,18.59l-.57-1h0L74.83,1,74.54.5,74.25,0h-.58l-.28.5L73.1,1h0L63.52,17.58h0l-.58,1-.29.5H85.27Zm-20.59-.5L74,1.5l4.79,8.3,4.79,8.29Z"/><polygon class="cls-1" points="83.53 18.09 64.39 18.09 73.96 1.5 78.75 9.8 83.53 18.09"/><path d="M52.21,0l.29.5.58,1,9.57,16.59.58,1h.58l.29-.5.29-.5L74,1.5l.58-1,.29-.5ZM63.52,17.58,53.94,1H73.1Z"/><polygon class="cls-1" points="73.09 1 63.52 17.58 53.95 1 73.09 1"/><path d="M73.1,0l.29.5.57,1,4.79,8.3,4.78,8.29h0l.29.5.28.5h.58l.29-.5.29-.5L94.85,1.5l.57-1,.29-.5ZM84.4,17.59,74.83,1H94Z"/><polygon class="cls-1" points="93.98 1 84.4 17.59 74.83 1 93.98 1"/><path d="M22.33,90.93l-.58-1L12.18,73.34l-.58-1H11l-.29.5L0,91.43H22.62Zm-20.6-.5,9.58-16.59,9.58,16.59Z"/><polygon class="cls-1" points="20.88 90.43 1.73 90.43 11.31 73.84 20.88 90.43"/><path d="M73.1,72.34l.29.5.57,1,4.79,8.3,4.78,8.29h0l.57,1h.58l.29-.5L95.71,72.34ZM84.4,89.93,74.83,73.34H94Z"/><polygon class="cls-1" points="93.98 73.34 84.4 89.93 74.83 73.34 93.98 73.34"/><path d="M84.4,89.93,74.83,73.34l-.29-.5-.29-.5h-.58l-.28.5-.29.5h0L63.52,89.92h0l-.58,1-.29.5h22l.29-.5Zm-20,.5L74,73.84l4.79,8.3,4.79,8.29Z"/><polygon class="cls-1" points="83.53 90.43 64.39 90.43 73.96 73.84 78.75 82.14 83.53 90.43"/><path d="M43.21,90.93l-.57-1L33.06,73.34l-.29-.5-.29-.5H31.9l-.28.5-.29.5h0l-4.78,8.3-4.79,8.29-.57,1-.29.5H43.5Zm-20.59-.5,9.57-16.59,9.58,16.59Z"/><polygon class="cls-1" points="41.77 90.43 22.62 90.43 32.19 73.84 41.77 90.43"/><path d="M11,72.34l-.29.5.58,1,9.57,16.59h0l.29.5.28.5H22l.58-1,9.57-16.59h0l.57-1,.29-.5Zm15.52,9.3-4.79,8.29L12.18,73.34H31.33Z"/><polygon class="cls-1" points="31.32 73.34 26.54 81.64 21.75 89.93 12.18 73.34 31.32 73.34"/><path d="M64.1,90.93l-.58-1h0L54,73.34h0l-.29-.5-.28-.5h-.58l-.29.5-.29.5L42.64,89.93l-.58,1-.29.5H64.39Zm-20.6-.5,4.79-8.29,4.79-8.3,9.57,16.59Z"/><polygon class="cls-1" points="62.65 90.43 43.51 90.43 48.29 82.14 53.08 73.84 62.65 90.43"/><path d="M31.33,72.34l.29.5.57,1h0l9.57,16.59.29.5.29.5h.58l.28-.5.29-.5h0l4.78-8.29,4.79-8.3.57-1,.29-.5ZM42.64,89.93,33.06,73.34H52.21Z"/><polygon class="cls-1" points="52.21 73.34 42.64 89.93 33.06 73.34 52.21 73.34"/><path d="M52.21,72.34l.29.5.58,1,9.57,16.59.58,1h.58l.29-.5.29-.5L74,73.84l.58-1,.29-.5ZM63.52,89.92,53.94,73.34H73.1Z"/><polygon class="cls-1" points="73.09 73.34 63.52 89.92 53.95 73.34 73.09 73.34"/><path d="M21.46,36.18l-.28.49.57,1L26.54,46l4.78,8.29h0l.29.51.28.49h.58l.29-.5.29-.5,9.58-16.58h0l.57-1,.29-.49ZM32.19,53.76,22.62,37.18H41.77Z"/><polygon class="cls-1" points="41.77 37.18 32.19 53.76 22.62 37.18 41.77 37.18"/><path d="M83.54,36.18l.29.49.57,1h0L94,54.26l.58,1h.58l.28-.49,10.73-18.59ZM94.85,53.76,85.27,37.18h19.15Z"/><polygon class="cls-1" points="104.42 37.18 94.85 53.76 85.27 37.18 104.42 37.18"/><path d="M41.77,36.17h0l.28.5.58,1h0l9.57,16.58.29.5.29.5h.58l.28-.49.29-.51h0l7.38-12.79,2.19-3.79.58-1,.28-.5H41.77Zm13.95,13-2.64,4.58L43.5,37.17H62.65Z"/><polygon class="cls-1" points="62.65 37.17 55.72 49.18 53.08 53.76 43.5 37.17 62.65 37.17"/><path d="M53.65,54.77l-.57-1L43.5,37.17l-.29-.5-.28-.49h-.58l-.29.5-.29.5L32.2,53.76h0l-.57,1-.29.49H53.94Zm-20.59-.51,9.58-16.58,9.57,16.58Z"/><polygon class="cls-1" points="52.21 54.26 33.06 54.26 42.64 37.68 52.21 54.26"/><path d="M32.77,54.76l-.57-1h0L22.62,37.18l-.58-1h-.58l-.28.49L10.44,55.26H33.06Zm-20.59-.5,9.57-16.58L26.54,46l4.79,8.29Z"/><polygon class="cls-1" points="31.32 54.26 12.18 54.26 21.75 37.68 26.54 45.97 31.32 54.26"/><path d="M62.65,36.18l.29.5.58,1,9.57,16.58h0l.29.51.28.49h.58l.29-.5.29-.5L84.4,37.68h0l.57-1,.29-.5Zm16.1,9.29L74,53.76,64.39,37.18H83.54Z"/><polygon class="cls-1" points="83.53 37.18 78.75 45.47 73.96 53.76 64.39 37.18 83.53 37.18"/><path d="M74.54,54.76l-.58-1L64.39,37.18l-.29-.5-.29-.5h-.58l-.29.5-.29.49-6.93,12-2.64,4.58-.58,1-.29.5H74.83Zm-20.6-.5,7.39-12.79,2.19-3.79L73.1,54.26Z"/><polygon class="cls-1" points="73.09 54.26 53.95 54.26 61.33 41.47 63.52 37.68 73.09 54.26"/><path d="M94.85,53.76,85.27,37.18l-.29-.5-.29-.5h-.58l-.28.49-.29.51h0l-4.78,8.29L74,53.76l-.57,1-.29.49h22l.28-.49Zm-20,.5L84.4,37.68,94,54.26Z"/><polygon class="cls-1" points="93.98 54.26 74.83 54.26 84.4 37.68 93.98 54.26"/></svg>