<svg id="Layer_1" data-name="Layer 1" xmlns="http://www.w3.org/2000/svg" viewBox="0 0 35.91 35.91"><defs><style>.cls-1{stroke:#fff;}.cls-1,.cls-2{stroke-miterlimit:10;}.cls-2{fill:#fff;stroke:#000;}</style></defs><rect class="cls-1" x="0.5" y="0.5" width="34.91" height="34.91" rx="0.41"/><path class="cls-2" d="M11.5,8.92a2.92,2.92,0,0,1-3.16,2.89A2.91,2.91,0,1,1,8.37,6,2.9,2.9,0,0,1,11.5,8.92ZM5.28,30.24V13.51h6.15V30.24Z"/><path class="cls-2" d="M14.19,19.22c0-2.24-.07-4.15-.14-5.71h5.3l.28,2.14h.1a6.08,6.08,0,0,1,5-2.51c3.91,0,6,2.65,6,7.24v9.86H24.66V21.13c0-1.94-.65-3.06-2.15-3.06a2.1,2.1,0,0,0-2,1.46,3.21,3.21,0,0,0-.17,1.22v9.49H14.19Z"/></svg>