<svg id="Layer_1" data-name="Layer 1" xmlns="http://www.w3.org/2000/svg" viewBox="0 0 327 327"><defs><style>.cls-1{fill:#fff;}</style></defs><path d="M327,163.5a163.55,163.55,0,0,1-2.1,26.26c0,.24-.07.47-.11.7a161.66,161.66,0,0,1-10.3,35.85c-.06.16-.12.31-.19.47l-.2.47c-1.19,2.8-2.44,5.55-3.79,8.27-.09.2-.19.39-.29.59l-.3.59h0a163.75,163.75,0,0,1-30.36,42.16l-.49.49A166.91,166.91,0,0,1,263,293.28l-.56.42c-2.21,1.68-4.47,3.31-6.76,4.87l-.49.34-.5.33A163,163,0,0,1,231,312.45l-.67.31a161.63,161.63,0,0,1-21,7.71c-.23.08-.47.14-.7.21-2.6.74-5.24,1.43-7.89,2l-.49.11-.49.11c-1.61.38-3.23.72-4.86,1l-.82.16q-5.27,1-10.65,1.65l-.7.09a159,159,0,0,1-17.55,1.1h-4.16q-4.16-.06-8.26-.32l-1-.08q-7-.49-13.8-1.57l-.7-.11-.75-.13-.51-.09-.51-.09a159.6,159.6,0,0,1-19.23-4.53l-.7-.21q-3-.92-6-2h0l-.48-.17-.48-.17q-7.12-2.54-13.91-5.7l-.5-.23-.48-.23a163.4,163.4,0,0,1-47.53-34l-.49-.5c-.16-.17-.32-.33-.47-.5a162,162,0,0,1-17.1-21.16l-.33-.49-.32-.48q-4-6-7.53-12.42l-.25-.46-.25-.46A162,162,0,0,1,7.39,212.22l-.16-.52-.16-.52a161.75,161.75,0,0,1-4.86-20.72c0-.23-.07-.46-.11-.7-.77-4.76-1.34-9.6-1.68-14.5,0-.35,0-.7-.08-1C.12,170.66,0,167.1,0,163.5c0-1.28,0-2.56.05-3.83v0c0-.16,0-.32,0-.49V159c0-.1,0-.2,0-.3C.2,154.33.49,150,1,145.81l.06-.58c0-.2,0-.39.07-.59q.67-5.94,1.78-11.75c.05-.28.11-.55.16-.82.28-1.47.59-2.94.92-4.4.06-.29.13-.57.19-.85s.13-.57.2-.85c.16-.68.32-1.35.49-2l.18-.7a157.93,157.93,0,0,1,6.35-19.68h0c.1-.27.2-.52.31-.79L12,102q1.08-2.67,2.25-5.3l.31-.67c.11-.26.22-.51.34-.76l.33-.7A163.63,163.63,0,0,1,33.3,64.59l.42-.56c.81-1,1.63-2.08,2.45-3.11.19-.23.38-.47.58-.7q5.14-6.31,10.89-12.09l.49-.49c1.78-1.77,3.61-3.5,5.47-5.19l.37-.34.38-.34A163.07,163.07,0,0,1,69,30.08l.6-.43.6-.41A162.76,162.76,0,0,1,115.54,7.15l.7-.21a162.17,162.17,0,0,1,21-4.84l.7-.11A164.38,164.38,0,0,1,163.5,0q5.25,0,10.42.33l.65,0,.64,0q3.79.26,7.55.7l.7.09a161.41,161.41,0,0,1,25.2,5.11c.23.07.47.13.7.21a162.22,162.22,0,0,1,45.29,21.22l.58.39c2.53,1.71,5,3.51,7.43,5.36l.62.47.61.47h0l.48.38.55.44c2.93,2.32,5.79,4.74,8.55,7.26.18.16.35.31.51.47l.53.5.38.35.39.37q3.63,3.38,7,7c.17.17.32.34.48.51,2.56,2.72,5,5.54,7.38,8.43l.07.09.37.45.21.25a163.83,163.83,0,0,1,20.95,33.61l.33.7a162.44,162.44,0,0,1,8.54,23c.05.19.11.37.16.56s.11.37.15.56c.37,1.29.71,2.58,1,3.88l.18.7c.13.51.25,1,.36,1.51,0,.16.08.33.12.49l.12.51a163.22,163.22,0,0,1,4.16,32.5c0,.24,0,.47,0,.7C327,160.93,327,162.21,327,163.5Z"/><path class="cls-1" d="M76.83,61.12l-.32.38h0l-.32.37L76,61.73l-.26-.22-.08-.07-22.07-19,.37-.34.38-.34L76.61,60.93l.12.1h0Z"/><path class="cls-1" d="M76.77,61.92l0,0h0L76.6,62l-.56.36L71.77,65.1h0L11.35,103.55c.1-.27.2-.52.31-.79L12,102,75.67,61.44l.56-.36.25.39h0v0h0Z"/><path class="cls-1" d="M76.84,61.87l-.06.06h0l-.11.1-.61.55L3.94,127.67c.06-.29.13-.57.19-.85s.13-.57.2-.85L71.76,65.11h0l4-3.59.42-.38.31.34h0v0h0Z"/><path class="cls-1" d="M81.56,150l-.17,0h0l-.19,0h0l-.55.07-.74.09L.05,159.67v0c0-.16,0-.32,0-.49V159c0-.1,0-.2,0-.3L81,149.07l.45-.06h0l0,.38v.11h0Z"/><path class="cls-1" d="M81.82,149.89l-.09.08-.19.15-.24.21-1.38,1.16L7.39,212.22l-.16-.52-.16-.52,72.82-61,1.09-.91.2-.17.31.37h0Z"/><rect class="cls-1" x="77" y="61.48" width="1" height="46.04" transform="translate(-3.6 3.45) rotate(-2.49)"/><path class="cls-1" d="M78.72,108l-.06,0-.61.29L1,145.81l.06-.58c0-.2,0-.39.07-.59L78,107.19l.29-.14.22.45v0Z"/><rect class="cls-1" x="74.61" y="50" width="65.79" height="1" transform="translate(-10.69 38.81) rotate(-19.51)"/><path class="cls-1" d="M138.57,39l-.07.45v0l-.07.49-.12,0h0l-1.88-.27L69,30.08l.6-.43.6-.41L138.31,39l.17,0h.09Z"/><path class="cls-1" d="M174.57.37l.64,0L139.69,39l-.44.48-.38.41-.36-.34h0l-.36-.33.08-.09.09-.1L173.92.33Z"/><rect class="cls-1" x="77.4" y="95.5" width="121.2" height="1" transform="translate(-15.69 27.9) rotate(-10.93)"/><rect class="cls-1" x="136.5" y="11.42" width="1" height="123.17" transform="translate(39.7 193.96) rotate(-79.24)"/><rect class="cls-1" x="167.5" y="24.9" width="1" height="74.2" transform="translate(16.82 157.98) rotate(-52.67)"/><rect class="cls-1" x="79.5" y="107.45" width="1" height="42.11" transform="translate(-8.95 6.03) rotate(-4.09)"/><rect class="cls-1" x="150.63" y="109.5" width="60.75" height="1" transform="translate(-9.65 202.28) rotate(-57.12)"/><rect class="cls-1" x="80.92" y="142" width="84.17" height="1" transform="matrix(0.99, -0.17, 0.17, 0.99, -21.95, 22.39)"/><path class="cls-1" d="M35.59,239l-.14,0h0l-.8.14L20,241.83l-.25-.46-.25-.46,15.71-2.86.24,0Z"/><rect class="cls-1" x="8.41" y="193.5" width="100.18" height="1" transform="translate(-140.71 156.96) rotate(-62.68)"/><path class="cls-1" d="M36,238.72h0l-.19.41-7.62,16.08-.33-.49-.32-.48,7.15-15.09.41-.87.45.21.12.06h0Z"/><path class="cls-1" d="M133.51,276.5v.5h-1.32l-10.9,0-36,.16-7.59,0-31.51.14-.49-.5c-.16-.17-.32-.33-.47-.5l32.89-.14,7.59,0,34.53-.15,10.59-.05h2.66v.5Z"/><rect class="cls-1" x="107" y="144.39" width="1" height="137.23" transform="translate(-72.69 56.62) rotate(-22.27)"/><path class="cls-1" d="M133.84,276.87l-.12.11-.33.29-.34.3h0L131.43,279l-3,2.71L94.71,311.86l-.5-.23-.48-.23,33.69-30.13,4.77-4.26.37-.33.35-.31.12-.11.12-.11,0,0,.33.36h0l0,0Z"/><path class="cls-1" d="M138.87,284.25,165.21,327h-1.16l-26.4-42.82-3.55-5.77-.59-1-.12-.19-.16-.27-.06-.09-.09-.15.41-.25h0l.28-.17.14-.09,0,.05v0l.05.07v0l.11.18.2.32Z"/><path class="cls-1" d="M133.93,276.76l0,.07-.08.14-.3.49-.42.72h0l-2.61,4.4L109.59,317.9h0l-.48-.17-.48-.17,20.91-35.33,1.9-3.2,1.19-2,.15-.24.18-.3.07-.13,0-.08.42.25h0Z"/><path class="cls-1" d="M136,324.68l-.51-.09-2.11-41.12-.27-5.28h0l0-.6h0l0-.57v-.15l0-.25v-.07l.48,0h0l.49,0v.46l.08,1.47.27,5.29,2.12,41.07Z"/><rect class="cls-1" x="133.27" y="272.5" width="52.47" height="1" transform="translate(-34.84 23.6) rotate(-7.63)"/><rect class="cls-1" x="111" y="133.22" width="1" height="71.56" transform="translate(-90.96 170.39) rotate(-56.98)"/><path class="cls-1" d="M274.9,43.84l.39.37-.16.08L244.36,60.45l-9.69,5.09L210.1,78.45l-11.25,5.91-.72.37-.28.15-.11.06-.22-.43h0l-.13-.26-.1-.18.06,0h0l.09,0,.13-.07.49-.26h0l12.56-6.59,24.65-13L245,59l29.56-15.52Z"/><rect class="cls-1" x="198.5" y="115.87" width="1" height="80.26" transform="translate(-36.77 247.39) rotate(-59.28)"/><path class="cls-1" d="M263.89,34.44l-.59,0L139.91,39.94l-1.32.06h-.06l0-.48v0h0v0l0-.46h0l1.19,0,123-5.45.62.47Z"/><path class="cls-1" d="M322.66,125.94l.12.51-88.3,50.07-.6.35-.06,0-.07,0-.24-.43,0,0-.23-.42.08,0,.18-.1.24-.13,88.78-50.34C322.59,125.61,322.62,125.78,322.66,125.94Z"/><path class="cls-1" d="M320.81,118.8c.05.19.11.37.15.56l-.28-.08L230.37,94.16l-11.69-3.25L204.63,87l-6.3-1.75-.61-.17-.23-.07-.08,0h0l.13-.47h0l.13-.47.1,0h0l1.1.31,6.52,1.81,14.8,4.12,10.58,2.94,89.9,25C320.7,118.43,320.76,118.61,320.81,118.8Z"/><rect class="cls-1" x="215" y="81.11" width="1" height="98.79" transform="translate(-32.74 87.5) rotate(-21.37)"/><rect class="cls-1" x="141.11" y="182" width="92.78" height="1" transform="translate(-21.97 25.71) rotate(-7.41)"/><rect class="cls-1" x="124.12" y="161.5" width="57.78" height="1" transform="translate(-56.52 237.85) rotate(-66.54)"/><rect class="cls-1" x="112.79" y="226" width="141.42" height="1" transform="translate(-106.41 196.1) rotate(-45)"/><rect class="cls-1" x="93.32" y="232" width="88.36" height="1" transform="matrix(0.09, -1, 1, 0.09, -106.52, 348.33)"/><path class="cls-1" d="M255.65,298.57l-.49.34-.5.33-68.4-28.88h0l-.81-.34-.13-.06.19-.45h0l.19-.46.5.21.83.35Z"/><path class="cls-1" d="M200.77,322.72l-.49.11-.49.11-14.65-52.88-.12-.42.48-.13h0l.47-.13.05.2.08.28.14.51h0Z"/><rect class="cls-1" x="157.18" y="222.5" width="104.66" height="1" transform="translate(-84.77 306.81) rotate(-62.68)"/><path class="cls-1" d="M234.48,176.52l80,49.79c-.06.16-.12.31-.19.47l-.2.47-80.4-50-.12-.08-.19-.12-.14-.09h0l.2-.33,0,0,0-.06h0l.26-.42.14.09Z"/><path class="cls-1" d="M310.31,235.52c-.09.2-.19.39-.29.59l-.3.59h0L187,269.6l-.92.25-.48.13-.12-.45v0h0l-.13-.48,1.1-.29Z"/><rect class="cls-1" x="84" y="204.95" width="1" height="105.11" transform="translate(-186.13 243.2) rotate(-68.81)"/><path d="M167.26,249.68c-.1-.45-.22-.9-.36-1.34a29.51,29.51,0,0,0-1.43-3.81,27.92,27.92,0,0,0-3.72-5.93c-.22-.28-.46-.56-.7-.82A28,28,0,0,0,148,229.42c-.44-.13-.89-.25-1.33-.36a27.69,27.69,0,0,0-6.61-.79c-.7,0-1.4,0-2.1.08h-.06l-.64,0a28,28,0,0,0-19.14,10.48,28.65,28.65,0,0,0-1.86,2.65c-.25.38-.48.78-.7,1.18s-.44.81-.64,1.23c-.11.22-.22.44-.32.66a27.93,27.93,0,0,0,.76,24.85l.2.37c.22.4.45.8.7,1.19a28.08,28.08,0,0,0,4.52,5.54,27.59,27.59,0,0,0,7.13,4.95c.69.33,1.39.64,2.1.91a29.15,29.15,0,0,0,7.25,1.73l.7.05.32,0c.59,0,1.19.07,1.78.07a27.81,27.81,0,0,0,11.67-2.55c.22-.1.44-.2.66-.32a28.14,28.14,0,0,0,8.68-6.64l.7-.81c.38-.46.74-.93,1.08-1.42a27.83,27.83,0,0,0,5.22-16.27A27.55,27.55,0,0,0,167.26,249.68Z"/><path d="M211.28,60.92c-.06-.23-.12-.47-.19-.7a26.83,26.83,0,0,0-1.73-4.5c-.21-.46-.45-.91-.7-1.36a28,28,0,0,0-24.5-14.45h-.7c-.24,0-.47,0-.7,0a27.94,27.94,0,0,0-21,11.19c-.25.32-.48.64-.7,1a25.72,25.72,0,0,0-1.87,3.16,26.54,26.54,0,0,0-2,4.95c-.07.23-.14.47-.2.7a28.38,28.38,0,0,0-.88,7,27.79,27.79,0,0,0,4.9,15.81c.22.33.45.65.7,1a28.23,28.23,0,0,0,13.65,9.83,26.19,26.19,0,0,0,2.53.7,27.41,27.41,0,0,0,4.83.66c.23,0,.46,0,.7,0h.7c.81,0,1.62,0,2.41-.11.37,0,.73-.07,1.09-.11.92-.12,1.83-.28,2.72-.48l.21,0c.79-.18,1.57-.4,2.33-.65A27.83,27.83,0,0,0,200,91a28.39,28.39,0,0,0,8.63-9.5c.25-.44.49-.9.7-1.35a25.23,25.23,0,0,0,1-2.39h0a27.55,27.55,0,0,0,1.57-6.3c0-.37.08-.72.11-1.09.07-.79.1-1.61.1-2.42A27.92,27.92,0,0,0,211.28,60.92Z"/><path class="cls-1" d="M168.21,167.4l-.36-.75-.32-.66-3-6.34-.33-.7-2-4.15-.32-.66-.12-.26v1.36l-.7.7v3.71h-.91l8.35,8.35Zm0,0-.36-.75-.32-.66-3-6.34-.33-.7-2-4.15-.32-.66-.12-.26v1.36l-.7.7v3.71h-.91l8.35,8.35Zm.28.6-.28-.6-.36-.75-.32-.66-3-6.34-.33-.7-2-4.15-.32-.66-.12-.26v1.36l-.7.7v3.71h-.91l-.7-.7h-1l.7.7,1.89,1.89,5.46,5.46,2.88,2.88Zm0,0-.28-.6-.36-.75-.32-.66-3-6.34-.33-.7-2-4.15-.32-.66-.12-.26v1.36l-.7.7v3.71h-.91l-.7-.7h-1l.7.7,1.89,1.89,5.46,5.46,2.88,2.88Zm0,0-.28-.6-.36-.75-.32-.66-3-6.34-.33-.7-2-4.15-.32-.66-.12-.26v1.36l-.7.7v3.71h-.91l-.7-.7h-1l.7.7,1.89,1.89,5.46,5.46,2.88,2.88Zm0,0-.28-.6-.36-.75-.32-.66-3-6.34-.33-.7-2-4.15-.32-.66-.12-.26v1.36l-.7.7v3.71h-.91l-.7-.7h-1l.7.7,1.89,1.89,5.46,5.46,2.88,2.88Zm0,0-.28-.6-.36-.75-.32-.66-3-6.34-.33-.7-2-4.15-.32-.66-.12-.26v1.36l-.7.7v3.71h-.91l-.7-.7h-1l.7.7,1.89,1.89,5.46,5.46,2.88,2.88Zm0,0-.28-.6-.36-.75-.32-.66-3-6.34-.33-.7-2-4.15-.32-.66-.12-.26v1.36l-.7.7v3.71h-.91l-.7-.7h-1l.7.7,1.89,1.89,5.46,5.46,2.88,2.88Zm0,0-.28-.6-.36-.75-.32-.66-3-6.34-.33-.7-2-4.15-.32-.66-.12-.26v1.36l-.7.7v3.71h-.91l-.7-.7h-1l.7.7,1.89,1.89,5.46,5.46,2.88,2.88Zm0,0-.28-.6-.36-.75-.32-.66-3-6.34-.33-.7-2-4.15-.32-.66-.12-.26v1.36l-.7.7v3.71h-.91l-.7-.7h-1l.7.7,1.89,1.89,5.46,5.46,2.88,2.88Zm-9.33-8.35-.7-.7H158l-.7.7h-.59l.19.4,4.11,8.61v-7.12Zm9.33,8.35-.28-.6-.36-.75-.32-.66-3-6.34-.33-.7-2-4.15-.32-.66-.12-.26v1.36l-.7.7v3.71h-.91l-.7-.7h-1l.7.7,1.89,1.89,5.46,5.46,2.88,2.88Zm-9.33-8.35-.7-.7H158l-.7.7h-.59l.19.4,4.11,8.61v-7.12Zm9.33,8.35-.28-.6-.36-.75-.32-.66-3-6.34-.33-.7-2-4.15-.32-.66-.12-.26v1.36l-.7.7v3.71h-.91l-.7-.7h-1l.7.7,1.89,1.89,5.46,5.46,2.88,2.88Zm-9.33-8.35-.7-.7H158l-.7.7h-.59l.19.4,4.11,8.61v-7.12Zm9.33,8.35-.28-.6-.36-.75-.32-.66-3-6.34-.33-.7-2-4.15-.32-.66-.12-.26v1.36l-.7.7v3.71h-.91l-.7-.7h-1l.7.7,1.89,1.89,5.46,5.46,2.88,2.88Zm-9.33-8.35-.7-.7H158l-.7.7h-.59l.19.4,4.11,8.61v-7.12Zm9.05,7.75-.36-.75-.32-.66-3-6.34-.33-.7-2-4.15-.32-.66-.12-.26v1.36l-.7.7v3.71h-.91l8.35,8.35Zm-11.46-7.75.19.4.4-.4Zm5.44-4.85-.32-.66-.12-.26v1.36l-.7.7v3h3.12Zm-5.44,4.85.19.4.4-.4Zm5.44-4.85-.32-.66-.12-.26v1.36l-.7.7v3h3.12Zm-3,4.85-.7-.7-3.27-3.27-.64-.64.48,1h0l.29.6.28.6.81,1.69.21.43.13.27.19.4,4.11,8.61v-7.12Zm5-.7-2-4.15-.32-.66-.12-.26v1.36l-.7.7v3.71h3.45Zm-5,.7-.7-.7H158l-.7.7h-.59l.19.4,4.11,8.61v-7.12Zm5-.7-2-4.15-.32-.66-.12-.26v1.36l-.7.7v3.71h3.45Zm-5,.7-.7-.7H158l-.7.7h-.59l.19.4,4.11,8.61v-7.12Zm5-.7-2-4.15-.32-.66-.12-.26v1.36l-.7.7v3.71h3.45Zm.33.7h-4.36l-.7-.7H158l-.7.7h-.59l.19.4,4.11,8.61.7,1.47.53,1.1,4.72-4.72.53-.52Zm-.33-.7-2-4.15-.32-.66-.12-.26v1.36l-.7.7v3.71h3.45Zm.33.7h-4.36l-.7-.7H158l-.7.7h-.59l.19.4,4.11,8.61.7,1.47.53,1.1,4.72-4.72.53-.52Zm-.33-.7-2-4.15-.32-.66-.12-.26v1.36l-.7.7v3.71h3.45Zm.33.7h-4.36l-.7-.7H158l-.7.7h-.59l.19.4,4.11,8.61.7,1.47.53,1.1,4.72-4.72.53-.52Zm3.71,7.75-.36-.75-.32-.66-3-6.34-.33-.7-2-4.15-.32-.66-.12-.26v1.36l-.7.7v3.71h-.91l8.35,8.35ZM159.44,159H158l-.7.7h-.59l.19.4,4.11,8.61.7,1.47.53,1.1,4.72-4.72Zm8.77,8.45-.36-.75-.32-.66-3-6.34-.33-.7-2-4.15-.32-.66-.12-.26v1.36l-.7.7v3.71h-.91l8.35,8.35ZM159.44,159H158l-.7.7h-.59l.19.4,4.11,8.61.7,1.47.53,1.1,4.72-4.72Zm-.28.7-.7-.7H158l-.7.7h-.59l.19.4,4.11,8.61v-7.12Zm0,0-.7-.7H158l-.7.7h-.59l.19.4,4.11,8.61v-7.12Zm1,0h-1l-.7-.7-3.27-3.27-.64-.64.48,1h0l.29.6.28.6.81,1.69.21.43.13.27.19.4,4.11,8.61.7,1.47.53,1.1,4.72-4.72Zm0,0h-1l-.7-.7-3.27-3.27-.64-.64.48,1h0l.29.6.28.6.81,1.69.21.43.13.27.19.4,4.11,8.61.7,1.47.53,1.1,4.72-4.72ZM250.58,36.38A3.49,3.49,0,0,0,246,38.26l-9.12,22-.29.7-1.2,2.89-.12.29-.58,1.39,0,.05-9.4,22.65-5.1,2.1-.75.31-.74.31-8.8,3.62-.52.21-.7.29-.48.2-5.12,2.11-.37.15-.55.23-1.12.46L185,104.79h0l-.8.33-.7.29-.12,0-.58.24-8.64,3.55-1.66.69-10.71,4.41-.7.29v6.71l-1.45,1.45,1.45-.6.22-.09.48-.2,11.75-4.83,3.16-1.3h0l1.62-.66,4.47-1.84.7-.3,4.71-1.94,1.67-.68,14.85-6.11.93-.38,3-1.26.7-.29,7.36-3,1.67-.69,3.07-1.27L212,120.15h0l-.28.66h0l-.27.65-.42,1-.31.74-.29.7-.1.23-1,2.31-.7,1.69-9.58,23.06-.69,1.68-.71,1.72-.39.93L195.88,159l-.29.7-9.35,22.52-.44,1.06-.61,1.47-.29.69-1.44,3.48-.37.89-.29.7,0,.1-1.63,3.91-1.92-4-.33-.7-2.53-5.3-.23-.48-.22-.46-2.63-5.5-.31-.66-3.57-7.48-.9-1.88-.28-.6-.36-.75-.32-.66-3-6.34-.33-.7-2-4.15-.32-.66-.12-.26-.7-1.46-1.75-3.67-.58-1.2-2-4.12-.32-.67-2.38-5h0l-.44-.94-2.28-4.77-.32-.67-5.24,5.23h0l.32.67.35.74h0l.44.94,4.31,9,.32.67,2.14,4.48.9,1.88.48,1h0l.29.6.28.6.81,1.69.21.43.13.27.19.4,4.11,8.61.7,1.47.53,1.1.32.67,5.11,10.71.32.67.56,1.19h0l.45.95,2.08,4.34.32.7,5.08,10.63-4.23,1.53-.72.26-9.83,3.56-.7.25-21.4,7.75-.53.19-.51.18h0l-.66.24-.7.25h0l-2,.71-.51.19-.72.25-.31.12-17.5,6.34-.7.25-2.9,1.05-.94.34h0l-2.75,1-1.55.56-1.16.42,3.15-7.63.55-1.32L115.54,204l.7-1.7,1.07-2.59,0-.07.26-.62L118,198l3.1-7.52.29-.7,2-4.73,2.51-6.08.39-.95,2.88-7,.69-1.66,2.4-5.81.29-.69,1.32-3.21.29-.7,3.09-7.49.7-1.7,3.05-7.37.26-.65.29-.69.13-.33-.23.23-3.5-3.5v-6l-.7,1.69-1.06,2.57-.28.7-1.53,3.69-.22.54-.22.54-5.15,12.46-.7,1.67-.91,2.2-.28.7-.31.76-.3.7-6,14.47-.2.48-.19.47-3,7.18-.69,1.67,0,.06-.7,1.7-1.69,4.08-.29.7-1.32,3.21-.29.7-5.8,14h0l-.27.66-.27.66-.49,1.18-.68,1.67-6.12,14.82-.29.69-5.22,12.65-.69,1.66L85.87,257.5l-.38.92-.27.66-.29.69-4,9.57L80.29,271l-2.16,5.24-.21.5-.21.5-2.48,6a3.5,3.5,0,1,0,6.47,2.67l3.6-8.72.21-.5.21-.5,4.57-11.07.29-.7L92,261l.19-.46.19-.46.8-1.93.68-1.67,8.74-21.14,1.94-.7.72-.26,9.07-3.28.47-.17.48-.17.24-.09.7-.26,5.83-2.11,1.53-.55,13.64-4.94.67-.24h0l.48-.18.53-.19.57-.21.72-.26,20.81-7.53.7-.25,15.3-5.54.72-.26,4.65-1.69.13-.05.21-.08a3.57,3.57,0,0,0,.68-.4h0s0,0,0-.05a.44.44,0,0,0,.15-.12,3.46,3.46,0,0,0,1-1.34l5.65-13.6.12-.29.17-.4.12-.3,3.15-7.57h0l.22-.53.22-.53,8.91-21.47.2-.48.09-.22.1-.24.19-.47,4.91-11.81.7-1.69,2-4.8.69-1.68,3.07-7.38.27-.66.28-.67,2.33-5.61.29-.7,5-12,.69-1.67,5.94-14.3.3-.7.15-.37.19-.46.19-.47,5-12,.7-1.68,7.75-18.67.19-.47.1-.23.2-.49L245,59l2.69-6.48.7-1.68,4.11-9.9A3.49,3.49,0,0,0,250.58,36.38ZM116.24,190.46v8.19l.56.56-.56.56v2.54l1.07-2.59,0-.07.26-.62L118,198l3.1-7.52Zm13.09-30.81,3.21,3.21,1.32-3.21ZM135.28,216l-.51.19,2.47,2.47v-3.37ZM141,141.44l-3,3v5.31l3.05-7.37.26-.65Zm19.19,18.21h-1l-.7-.7-3.27-3.27-.64-.64.48,1h0l.29.6.28.6.81,1.69.21.43.13.27.19.4,4.11,8.61.7,1.47.53,1.1,4.72-4.72Zm0,0h-1l-.7-.7-3.27-3.27-.64-.64.48,1h0l.29.6.28.6.81,1.69.21.43.13.27.19.4,4.11,8.61.7,1.47.53,1.1,4.72-4.72Zm-1,0-.7-.7H158l-.7.7h-.59l.19.4,4.11,8.61v-7.12Zm0,0-.7-.7H158l-.7.7h-.59l.19.4,4.11,8.61v-7.12Zm.28-.7H158l-.7.7h-.59l.19.4,4.11,8.61.7,1.47.53,1.1,4.72-4.72Zm8.77,8.45-.36-.75-.32-.66-3-6.34-.33-.7-2-4.15-.32-.66-.12-.26v1.36l-.7.7v3.71h-.91l8.35,8.35ZM159.44,159H158l-.7.7h-.59l.19.4,4.11,8.61.7,1.47.53,1.1,4.72-4.72Zm8.77,8.45-.36-.75-.32-.66-3-6.34-.33-.7-2-4.15-.32-.66-.12-.26v1.36l-.7.7v3.71h-.91l8.35,8.35Zm-3.71-7.75h-4.36l-.7-.7H158l-.7.7h-.59l.19.4,4.11,8.61.7,1.47.53,1.1,4.72-4.72.53-.52Zm-.33-.7-2-4.15-.32-.66-.12-.26v1.36l-.7.7v3.71h3.45Zm.33.7h-4.36l-.7-.7H158l-.7.7h-.59l.19.4,4.11,8.61.7,1.47.53,1.1,4.72-4.72.53-.52Zm-.33-.7-2-4.15-.32-.66-.12-.26v1.36l-.7.7v3.71h3.45Zm.33.7h-4.36l-.7-.7H158l-.7.7h-.59l.19.4,4.11,8.61.7,1.47.53,1.1,4.72-4.72.53-.52Zm-.33-.7-2-4.15-.32-.66-.12-.26v1.36l-.7.7v3.71h3.45Zm.33.7h-4.36l-.7-.7H158l-.7.7h-.59l.19.4,4.11,8.61.7,1.47.53,1.1,4.72-4.72.53-.52Zm-.33-.7-2-4.15-.32-.66-.12-.26v1.36l-.7.7v3.71h3.45Zm-5,.7-.7-.7H158l-.7.7h-.59l.19.4,4.11,8.61v-7.12Zm5-.7-2-4.15-.32-.66-.12-.26v1.36l-.7.7v3.71h3.45Zm-5,.7-.7-.7H158l-.7.7h-.59l.19.4,4.11,8.61v-7.12Zm3-4.85-.32-.66-.12-.26v1.36l-.7.7v3h3.12Zm-3,4.85-.7-.7H158l-.7.7h-.59l.19.4,4.11,8.61v-7.12Zm3-4.85-.32-.66-.12-.26v1.36l-.7.7v3h3.12Zm-3,4.85-.7-.7H158l-.7.7h-.59l.19.4,4.11,8.61v-7.12Zm9.05,7.75-.36-.75-.32-.66-3-6.34-.33-.7-2-4.15-.32-.66-.12-.26v1.36l-.7.7v3.71h-.91l8.35,8.35Zm-9.05-7.75-.7-.7H158l-.7.7h-.59l.19.4,4.11,8.61v-7.12Zm9.33,8.35-.28-.6-.36-.75-.32-.66-3-6.34-.33-.7-2-4.15-.32-.66-.12-.26v1.36l-.7.7v3.71h-.91l-.7-.7h-1l.7.7,1.89,1.89,5.46,5.46,2.88,2.88Zm-9.33-8.35-.7-.7H158l-.7.7h-.59l.19.4,4.11,8.61v-7.12Zm9.33,8.35-.28-.6-.36-.75-.32-.66-3-6.34-.33-.7-2-4.15-.32-.66-.12-.26v1.36l-.7.7v3.71h-.91l-.7-.7h-1l.7.7,1.89,1.89,5.46,5.46,2.88,2.88Zm-9.33-8.35-.7-.7H158l-.7.7h-.59l.19.4,4.11,8.61v-7.12Zm9.33,8.35-.28-.6-.36-.75-.32-.66-3-6.34-.33-.7-2-4.15-.32-.66-.12-.26v1.36l-.7.7v3.71h-.91l-.7-.7h-1l.7.7,1.89,1.89,5.46,5.46,2.88,2.88Zm-9.33-8.35-.7-.7H158l-.7.7h-.59l.19.4,4.11,8.61v-7.12Zm9.33,8.35-.28-.6-.36-.75-.32-.66-3-6.34-.33-.7-2-4.15-.32-.66-.12-.26v1.36l-.7.7v3.71h-.91l-.7-.7h-1l.7.7,1.89,1.89,5.46,5.46,2.88,2.88Zm-9.33-8.35-.7-.7H158l-.7.7h-.59l.19.4,4.11,8.61v-7.12Zm9.33,8.35-.28-.6-.36-.75-.32-.66-3-6.34-.33-.7-2-4.15-.32-.66-.12-.26v1.36l-.7.7v3.71h-.91l-.7-.7h-1l.7.7,1.89,1.89,5.46,5.46,2.88,2.88Zm0,0-.28-.6-.36-.75-.32-.66-3-6.34-.33-.7-2-4.15-.32-.66-.12-.26v1.36l-.7.7v3.71h-.91l-.7-.7h-1l.7.7,1.89,1.89,5.46,5.46,2.88,2.88Zm0,0-.28-.6-.36-.75-.32-.66-3-6.34-.33-.7-2-4.15-.32-.66-.12-.26v1.36l-.7.7v3.71h-.91l-.7-.7h-1l.7.7,1.89,1.89,5.46,5.46,2.88,2.88Zm0,0-.28-.6-.36-.75-.32-.66-3-6.34-.33-.7-2-4.15-.32-.66-.12-.26v1.36l-.7.7v3.71h-.91l-.7-.7h-1l.7.7,1.89,1.89,5.46,5.46,2.88,2.88Zm0,0-.28-.6-.36-.75-.32-.66-3-6.34-.33-.7-2-4.15-.32-.66-.12-.26v1.36l-.7.7v3.71h-.91l-.7-.7h-1l.7.7,1.89,1.89,5.46,5.46,2.88,2.88Zm0,0-.28-.6-.36-.75-.32-.66-3-6.34-.33-.7-2-4.15-.32-.66-.12-.26v1.36l-.7.7v3.71h-.91l-.7-.7h-1l.7.7,1.89,1.89,5.46,5.46,2.88,2.88Zm0,0-.28-.6-.36-.75-.32-.66-3-6.34-.33-.7-2-4.15-.32-.66-.12-.26v1.36l-.7.7v3.71h-.91l-.7-.7h-1l.7.7,1.89,1.89,5.46,5.46,2.88,2.88Zm-.28-.6-.36-.75-.32-.66-3-6.34-.33-.7-2-4.15-.32-.66-.12-.26v1.36l-.7.7v3.71h-.91l8.35,8.35Zm0,0-.36-.75-.32-.66-3-6.34-.33-.7-2-4.15-.32-.66-.12-.26v1.36l-.7.7v3.71h-.91l8.35,8.35Z"/><path class="cls-1" d="M161.05,114.64v6.71l-1.45,1.45-1.07.44-1.7.7L149,127.17l2,4.22-5.25,5.24-1.28-2.69-2.2,5.31-.61,1.47-.23.23-3.5-3.5v-6l3-7.27a.85.85,0,0,1,.09-.22v0c0-.07.07-.13.1-.19a.93.93,0,0,1,.05-.1,3,3,0,0,1,.21-.33s0,0,0,0,0,0,0,0h0l0,0c.09-.1.18-.21.28-.31a2.55,2.55,0,0,1,.24-.23,3.43,3.43,0,0,1,.92-.56l.19-.07h0Z"/><path class="cls-1" d="M167.26,249.68c-.1-.45-.22-.9-.36-1.34-.09-.28-.17-.56-.27-.84s-.19-.56-.29-.84-.14-.39-.22-.58c-.13-.35-.28-.7-.43-1.05-.07-.17-.14-.33-.22-.5s-.15-.31-.23-.47c-.23-.47-.47-.93-.72-1.39s-.41-.71-.63-1.06-.39-.61-.58-.91l-.1-.14c-.12-.16-.23-.33-.35-.5s-.23-.33-.36-.49c-.24-.33-.49-.65-.75-1s-.46-.56-.7-.82A28,28,0,0,0,148,229.42c-.44-.13-.89-.25-1.33-.36a27.69,27.69,0,0,0-6.61-.79l-1,0-.63,0-.44,0h-.06l-.5,0h-.14c-.43,0-.86.1-1.29.16l-.49.08c-.33,0-.65.11-1,.18l-.15,0h0l-.13,0-.1,0h0l-.51.12-.06,0h0l-.12,0-.13,0-.26.06c-.43.11-.86.24-1.29.37s-.59.19-.88.3l-.18.07-.1,0-.17.06h0l-1.26.51-.18.08c-.27.11-.54.24-.81.37l-.15.07-.63.32-.64.34c-.35.19-.69.38-1,.59l-.46.28-.64.43h0a.09.09,0,0,0,0,0c-.37.25-.73.5-1.08.77l-.54.41c-.18.13-.35.27-.52.42-.35.29-.69.58-1,.88s-.66.61-1,.93-.63.64-.93,1l-.45.5c-.15.17-.29.35-.43.52l-.37.44-.35.46a2.83,2.83,0,0,0-.2.28c-.2.25-.38.51-.56.77s-.51.75-.75,1.14-.48.78-.7,1.18-.44.81-.64,1.23c-.11.22-.22.44-.32.66A27.81,27.81,0,0,0,112,256.28c0,.23,0,.46,0,.69s0,.23,0,.34,0,.23,0,.34,0,.27,0,.4c0,.38,0,.75.09,1.12v0c0,.2,0,.4.07.6l.12.87.15.84c.07.37.14.73.23,1.1s.16.66.25,1,.14.52.22.77l.24.76c.05.13.09.26.13.38s.09.26.14.38c.16.45.33.89.52,1.32.11.25.22.51.34.76s.26.56.4.83l.35.67.2.37c.06.1.11.21.18.31h0c.16.3.33.58.52.87s.48.76.74,1.13l.26.37c.25.35.5.69.77,1l.32.4c.25.31.51.61.78.91l.06.07c.31.35.63.69,1,1l.13.13.51.5c.17.17.35.33.53.49l.51.46h0l0,0c.27.24.55.47.84.7.51.41,1,.81,1.6,1.18l.51.34c.17.11.34.23.52.33l.1.06c.39.25.79.48,1.2.7s.52.28.79.41l.47.24.5.23c.38.18.76.34,1.14.49l.46.19.49.17a23.39,23.39,0,0,0,2.88.88l.51.12.5.11h.07c.36.08.73.15,1.1.21l.31.05h.08l.65.09.66.08.41,0,.29,0,.32,0c.2,0,.41,0,.61,0l.47,0c.24,0,.47,0,.7,0a27.81,27.81,0,0,0,11.67-2.55c.22-.1.44-.2.66-.32a28.14,28.14,0,0,0,8.68-6.64l.7-.81c.23-.28.45-.56.67-.85l.41-.57c.13-.18.26-.36.38-.55v0l.4-.6,0-.06c.15-.23.3-.47.44-.71l.33-.56.12-.22c.13-.24.26-.48.38-.72l.14-.28.06-.11.23-.46.06-.15c.14-.29.27-.59.4-.89s.25-.6.37-.91a5.37,5.37,0,0,0,.21-.56v0c.1-.26.19-.53.27-.8s.17-.51.24-.77c0,0,0,0,0,0,.09-.3.17-.61.25-.92,0,0,0,0,0,0s0-.05,0-.08v-.06c0-.15.08-.31.11-.46s.12-.51.17-.77.14-.72.2-1.09.11-.72.15-1.09.08-.74.11-1.11q.09-1.11.09-2.25A27.55,27.55,0,0,0,167.26,249.68Zm-15.21,23.83h0c-.31.22-.62.42-.94.62s-.75.45-1.14.66h0a21.08,21.08,0,0,1-2.91,1.29c-.25.08-.49.17-.74.24a20.85,20.85,0,0,1-6.26.95,18.35,18.35,0,0,1-2.1-.11,5.35,5.35,0,0,1-.7-.08c-.62-.08-1.24-.19-1.85-.33h0c-.38-.09-.73-.19-1.1-.3l-.15,0-.08,0h0l-.14,0-.08,0-.09,0-.11,0-.07,0h-.05l-.1,0-.19-.07-.13-.05a.35.35,0,0,1-.15-.07h0a.28.28,0,0,1-.12,0,19.54,19.54,0,0,1-3.3-1.56h0A21,21,0,0,1,120,250l.24-.74c.24-.66.5-1.3.8-1.93.09-.2.19-.4.29-.6s.2-.38.31-.57a21,21,0,0,1,15.1-10.62,4,4,0,0,1,.5-.09h0a4,4,0,0,1,.5-.06,1.2,1.2,0,0,1,.2,0,20.92,20.92,0,0,1,21.94,14c.07.17.12.35.18.52s.12.36.17.55a20.51,20.51,0,0,1,.82,5.79,21,21,0,0,1-9,17.22Z"/><polygon points="221.47 97.33 211.02 122.5 210.71 123.24 210.42 123.94 210.33 124.17 209.37 126.48 208.67 128.17 199.09 151.23 198.4 152.91 195.88 158.95 195.59 159.65 185.19 184.7 184.9 185.39 183.46 188.87 183.09 189.76 182.8 190.46 182.76 190.46 182.76 190.56 181.13 194.47 179.22 190.46 178.89 189.76 173.28 178.02 172.96 177.36 169.39 169.88 168.5 168 167.85 166.65 167.53 165.99 164.5 159.65 164.18 158.95 162.19 154.8 161.87 154.14 161.75 153.88 161.05 152.42 156.76 143.43 156.44 142.76 151.33 132.06 151.01 131.39 149 127.17 156.84 123.94 158.53 123.24 159.6 122.8 161.05 122.2 161.27 122.11 161.75 121.92 182.76 113.27 183.46 112.97 188.17 111.03 189.84 110.35 208.67 102.6 209.37 102.31 216.73 99.28 218.4 98.59 221.47 97.33"/><polygon points="176.53 201.09 172.31 202.62 171.58 202.88 161.75 206.44 161.05 206.69 137.94 215.06 137.25 215.31 135.28 216.03 134.77 216.21 134.05 216.47 133.74 216.59 116.24 222.92 115.54 223.17 108.94 225.56 107.39 226.12 106.23 226.54 115.54 204.01 116.24 202.31 117.31 199.72 117.34 199.65 117.6 199.03 118.03 197.98 121.13 190.46 121.43 189.76 129.16 171.02 129.85 169.35 132.25 163.55 132.54 162.86 133.86 159.65 134.15 158.95 137.25 151.46 137.94 149.76 140.99 142.39 141.26 141.75 141.54 141.05 141.68 140.72 144.48 133.95 145.77 136.63 146.08 137.3 151.19 148.01 151.51 148.68 153.65 153.16 154.55 155.04 156.42 158.95 156.63 159.38 156.75 159.65 156.94 160.05 161.05 168.66 161.75 170.13 162.28 171.23 162.6 171.9 167.71 182.61 168.03 183.28 171.13 189.76 171.46 190.46 176.53 201.09"/><path class="cls-1" d="M196.6,84.84h.08l.09-.14Zm0,0h.08l.09-.14Zm0,0h.08l.09-.14Zm0,0h.08l.09-.14Zm0,0h.08l.09-.14Zm0,0h.08l.09-.14Zm0,0h.08l.09-.14Zm0,0h.08l.09-.14Zm0,0h.08l.09-.14Zm0,0h.08l.09-.14Zm14.68-23.92c-.06-.23-.12-.47-.19-.7a26.83,26.83,0,0,0-1.73-4.5c-.21-.46-.45-.91-.7-1.36a28,28,0,0,0-24.5-14.45h-.7c-.24,0-.47,0-.7,0a27.94,27.94,0,0,0-21,11.19c-.25.32-.48.64-.7,1-.36.51-.69,1-1,1.58-.12.2-.24.41-.35.62l-.27.51c-.09.15-.16.3-.24.45l-.19.38,0,.08c-.18.36-.35.72-.51,1.09v0c-.13.28-.24.55-.35.83l0,.07c-.13.32-.24.64-.35,1,0,.1-.07.19-.1.29l0,.09c-.13.37-.24.74-.35,1.12s-.14.47-.2.7a28.38,28.38,0,0,0-.88,7c0,.44,0,.88,0,1.31s0,.87.1,1.3.05.57.09.85.07.58.12.87.08.54.14.81,0,.25.07.38c.06.3.13.6.2.91s.17.68.26,1,.19.68.3,1,.11.36.17.54.13.37.2.55.21.56.32.83.22.55.34.82.32.71.49,1q.12.27.27.54c.13.26.27.52.41.78s.29.51.44.76c.3.5.62,1,1,1.48.22.33.45.65.7,1s.5.64.75,1l.18.21.65.75.11.12c.25.28.51.55.78.82l.14.15c.28.28.57.56.87.83s.39.36.59.53l.59.5.44.35.52.4c.18.14.37.28.56.4h0c.26.2.53.38.8.56l.12.08c.23.15.46.31.7.45l0,0,0,0q.54.33,1.08.63c.32.18.65.36,1,.52a1.29,1.29,0,0,0,.16.09l.14.06.4.19.85.38,1.07.43c.35.13.71.26,1.08.38a26.19,26.19,0,0,0,2.53.7,27.41,27.41,0,0,0,4.83.66c.23,0,.46,0,.7,0h.7c.81,0,1.62,0,2.41-.11.37,0,.73-.07,1.09-.11.76-.1,1.51-.22,2.24-.38l.48-.1.21,0c.24-.05.47-.11.71-.18.55-.14,1.09-.3,1.62-.47l.57-.2.28-.1.29-.11.12,0,.53-.21.06,0,.15-.06.66-.29.24-.11.56-.26.46-.24h0c.33-.16.66-.34,1-.53s.66-.38,1-.58l.78-.5L200,91l.43-.3c.31-.22.62-.45.92-.69l.44-.35,0,0c.33-.27.65-.54,1-.83l.14-.12c.31-.28.61-.57.91-.87s.51-.52.76-.79.26-.27.38-.41.25-.28.36-.42.37-.42.54-.63l.29-.37.07-.08c.26-.33.51-.67.75-1s.35-.5.51-.76l.4-.6c.25-.41.5-.82.73-1.24s.49-.9.7-1.35.33-.7.48-1,.18-.42.26-.63.19-.47.28-.71h0c.09-.22.17-.45.24-.68l0-.08c.15-.42.29-.85.41-1.28s.26-.91.37-1.38v0c.09-.34.16-.69.23-1l0-.18a4.54,4.54,0,0,0,.09-.51s0-.06,0-.09,0-.21.05-.31.08-.48.11-.72.08-.72.11-1.09c.07-.79.1-1.61.1-2.42A27.92,27.92,0,0,0,211.28,60.92ZM198.05,83.65a4.13,4.13,0,0,1-.39.34.18.18,0,0,1-.07.05.58.58,0,0,1-.15.13.23.23,0,0,1-.07.07l-.1.08,0,0-.12.09-.24.19,0,0-.09.07-.17.13-.68.47h0a20.85,20.85,0,0,1-11.75,3.61l-.7,0a5.37,5.37,0,0,1-.7,0,20.41,20.41,0,0,1-3-.42h0c-.39-.09-.75-.18-1.13-.29s-.68-.2-1-.31a21,21,0,0,1-11.17-8.76c-.12-.19-.24-.38-.35-.57L165.7,78a21,21,0,0,1-1.35-17c.08-.24.17-.47.27-.7,0,0,0-.09,0-.13s.13-.31.21-.47l.21-.48A21,21,0,0,1,182.76,47a5.39,5.39,0,0,1,.7,0c.23,0,.46,0,.7,0a21,21,0,0,1,19.53,13.31c.1.23.19.46.27.7a21,21,0,0,1-5.9,22.72Zm-1.45,1.19h.08l.09-.14Zm0,0h.08l.09-.14Zm0,0h.08l.09-.14Zm0,0h.08l.09-.14Zm0,0h.08l.09-.14Zm0,0h.08l.09-.14Zm0,0h.08l.09-.14Zm0,0h.08l.09-.14Zm0,0h.08l.09-.14Zm0,0h.08l.09-.14Z"/><path class="cls-1" d="M144.8,249.07l-4,9.73h0v0h0l0,0h0l0,0h-.18a.09.09,0,0,1-.05,0l0,0h0l0,0h0l-2.2-4.63a.2.2,0,0,1,.09-.27.21.21,0,0,1,.28.09l2,4.21,3.86-9.3a.2.2,0,0,1,.27-.11A.21.21,0,0,1,144.8,249.07Z"/><path class="cls-1" d="M132.87,249.07l-4,9.73h0v0h0l0,0h0l0,0h-.19l0,0,0,0h0l0,0h0l-2-4.2-3.74,9a.21.21,0,0,1-.19.13h-.08a.22.22,0,0,1-.12-.28l3.92-9.47s0,0,0,0v0l0,0,0,0h.16l0,0h0l0,0,0,0h0l2,4.2,3.86-9.3a.2.2,0,0,1,.27-.11A.2.2,0,0,1,132.87,249.07Z"/><path class="cls-1" d="M137.13,256.92v0L136,254.54l-.84-1.75-.24-.51s0,0,0,0h0l0,0,0,0,0,0,0,0h-.16l0,0,0,0,0,0s0,0,0,0l-3.91,9.47a.21.21,0,0,0,.11.27l.08,0a.21.21,0,0,0,.19-.13l1.25-3,2.44-.88,1-.38,1.28-.46h0l0,0s0,0,0,0a.31.31,0,0,0,.07-.09v0a.16.16,0,0,0,0-.07h0v0Zm-1.37.28-1,.37-2.27.82,2.28-5.51.35.73.84,1.74h0l.72,1.52Z"/><path class="cls-1" d="M150.69,252.24l-4.76,2,2.11,4.42v.05h0s0,.05,0,.07h0a.36.36,0,0,1-.07.1h0l0,0h0l-4.83,1.75H143a.2.2,0,0,1-.19-.14.21.21,0,0,1,.12-.27l4.62-1.67-2.11-4.41v0h0v0h0v0a.24.24,0,0,1,0-.08h0v0h0a.22.22,0,0,1,.09-.07h0l4.95-2a.21.21,0,0,1,.27.11A.21.21,0,0,1,150.69,252.24Z"/><path class="cls-1" d="M157.76,252a.2.2,0,0,0-.27-.11l-.09,0-4.86,2h0a.22.22,0,0,0-.09.07h0s0,0,0,0h0a.24.24,0,0,0,0,.08v0h0v0h0v0l.87,1.82.46,1,.88,1.84,0,0h0l0,0s0,0,.05,0a0,0,0,0,0,0,0h.18l0,0h0v0h0v0l2.19-5.28.56-1.35a.3.3,0,0,0,0-.1A.36.36,0,0,0,157.76,252Zm-1.33,2.32-1.63,3.92-.74-1.55-.46-1-.71-1.5,3.75-1.54.56-.23Z"/><path class="cls-1" d="M155,249a1.67,1.67,0,1,0,1.67,1.67A1.66,1.66,0,0,0,155,249Zm0,2.92a1.25,1.25,0,1,1,1.25-1.25A1.25,1.25,0,0,1,155,251.93Z"/></svg>