<svg id="Layer_1" data-name="Layer 1" xmlns="http://www.w3.org/2000/svg" viewBox="0 0 35.92 35.91"><defs><style>.cls-1{fill:#fff;}</style></defs><path d="M29.83,7.56H6.09A1.33,1.33,0,0,0,4.76,8.89V27a1.33,1.33,0,0,0,1.33,1.33H29.83A1.34,1.34,0,0,0,31.16,27V8.89A1.34,1.34,0,0,0,29.83,7.56Zm0,0H6.09A1.33,1.33,0,0,0,4.76,8.89V27a1.33,1.33,0,0,0,1.33,1.33H29.83A1.34,1.34,0,0,0,31.16,27V8.89A1.34,1.34,0,0,0,29.83,7.56ZM35,.5H.92A.41.41,0,0,0,.5.91V35a.42.42,0,0,0,.42.41H35a.42.42,0,0,0,.42-.41V.91A.41.41,0,0,0,35,.5Zm-.08,34.41H1V1H34.92ZM6.09,28.35H29.83A1.34,1.34,0,0,0,31.16,27V8.89a1.34,1.34,0,0,0-1.33-1.33H6.09A1.33,1.33,0,0,0,4.76,8.89V27A1.33,1.33,0,0,0,6.09,28.35Z"/><path class="cls-1" d="M35,0H.92A.92.92,0,0,0,0,.91V35a.92.92,0,0,0,.92.91H35a.92.92,0,0,0,.92-.91V.91A.92.92,0,0,0,35,0Zm-.08,34.91H1V1H34.92Z"/><path d="M1,1V34.91H34.92V1ZM31.16,27a1.34,1.34,0,0,1-1.33,1.33H6.09A1.33,1.33,0,0,1,4.76,27V8.89A1.33,1.33,0,0,1,6.09,7.56H29.83a1.34,1.34,0,0,1,1.33,1.33Z"/><rect x="5.26" y="8.06" width="25.4" height="19.79" rx="0.83"/><path class="cls-1" d="M29.83,7.56H6.09A1.33,1.33,0,0,0,4.76,8.89V27a1.33,1.33,0,0,0,1.33,1.33H29.83A1.34,1.34,0,0,0,31.16,27V8.89A1.34,1.34,0,0,0,29.83,7.56ZM30.16,27a.33.33,0,0,1-.33.33H6.09A.33.33,0,0,1,5.76,27V8.89a.33.33,0,0,1,.33-.33H29.83a.33.33,0,0,1,.33.33Z"/><path class="cls-1" d="M18.41,20.25a.52.52,0,0,1-.19.2l-.06,0a.59.59,0,0,1-.22.05.47.47,0,0,1-.26-.08L5.76,14.57l-.5-.24-.5-.25V13h0l.49.24.5.25,12.19,6,.23.11A.5.5,0,0,1,18.41,20.25Z"/><path class="cls-1" d="M31.16,13v1.12l-.5.24-.5.25L18.22,20.45l-.06,0a.59.59,0,0,1-.22.05.47.47,0,0,1-.26-.08.52.52,0,0,1-.19-.2.5.5,0,0,1,.23-.67l.23-.11,12.21-6,.5-.24Z"/></svg>