<svg id="Layer_1" data-name="Layer 1" xmlns="http://www.w3.org/2000/svg" viewBox="0 0 106.15 91.94"><defs><style>.cls-1{fill:#fff;}.cls-2{fill:gold;}</style></defs><polygon points="32.19 73.35 21.75 91.44 42.63 91.44 32.19 73.35"/><path class="cls-1" d="M42.92,90.94l-.29-.5L33.06,73.85l-.29-.5-.29-.5-.29-.5-.58,1-.29.5L21.75,90.44l-.58,1-.29.5H43.5Zm-1.15,0H22.61l9.58-16.58Z"/><polygon points="21.75 91.44 32.19 73.35 11.31 73.35 21.75 91.44"/><path class="cls-1" d="M11,72.85l-.29.5.29.5.29.5,9.57,16.59.29.5.29.5H22l.28-.5h0l.28-.5h0l9.57-16.58h0l.29-.5.29-.5.29-.5Zm1.15,1H31.32L21.75,90.44,17,82.15Z"/><polygon points="53.08 73.35 42.63 91.44 63.52 91.44 53.08 73.35"/><path class="cls-1" d="M64.09,91.45h0L63.81,91h0l-.29-.5L53.94,73.85l-.58-1h-.58l-.28.5h0l-.28.5h0l-4.78,8.3-4.79,8.29-.29.5-.28.5-.29.5H64.38ZM43.5,90.94l9.57-16.59,9.58,16.59Z"/><polygon points="42.63 91.44 53.08 73.35 32.19 73.35 42.63 91.44"/><path class="cls-1" d="M31.32,72.85l.29.5.58,1h0l9.57,16.58h0l.28.5h0l.28.5h.58l.58-1,9.57-16.59h0l.29-.5h0l.28-.49.29-.5Zm20.89,1-4.79,8.3-4.79,8.29L33.06,73.85Z"/><polygon points="73.96 73.35 63.52 91.44 84.4 91.44 73.96 73.35"/><path class="cls-1" d="M85,91.44l-.29-.5-.29-.5h0L74.83,73.85l-.29-.5-.29-.5-.29-.5-.29.5-.29.5-.29.5L63.52,90.44l-.29.5-.29.5-.29.5H85.27Zm-20.6-.5L74,74.36l9.57,16.58Z"/><polygon points="63.52 91.44 73.96 73.35 53.08 73.35 63.52 91.44"/><path class="cls-1" d="M52.21,72.85l.29.5.29.5.28.5h0l9.57,16.59.29.5.29.5h.58l.28-.49h0l.28-.5h0L74,74.36h0l.29-.5.29-.5.29-.5ZM63.52,90.44,53.94,73.85H73.09Z"/><polygon class="cls-2" points="94.84 73.35 84.4 91.44 105.29 91.44 94.84 73.35"/><path class="cls-1" d="M95.71,73.85l-.29-.5-.29-.5-.29-.5-.29.5-.29.5-.28.5h0L84.4,90.43h0l-.29.5-.29.5-.29.5h22.62ZM85.27,90.94l9.57-16.59,9.58,16.59Z"/><polygon class="cls-1" points="11.31 73.35 0.86 91.44 21.75 91.44 11.31 73.35"/><path class="cls-1" d="M22.32,91.44l-.28-.5-.29-.5L17,82.15l-4.78-8.3h0l-.28-.5-.58-1-.29.5-.29.5-.29.5L0,91.94H22.61Zm-20.59-.5,9.58-16.59,9.57,16.59Z"/><polygon points="84.4 91.44 94.84 73.35 73.96 73.35 84.4 91.44"/><path class="cls-1" d="M95.13,72.85h-22l.29.5.29.5.29.5h0l9.57,16.58.29.5.29.5h.58l.29-.5.29-.5,9.57-16.59.29-.5.29-.5Zm-20.3,1H94L84.4,90.43Z"/><polygon points="63.52 19.09 42.63 19.09 53.08 37.18 63.52 19.09"/><path class="cls-1" d="M63.81,18.59H42.34l-.28.5.28.5h0l.28.5,4.79,8.3,4.78,8.29h0l.28.5h0l.28.5h0l.28.48.29-.49h0l.28-.49.29-.5,9.58-16.59.28-.5h0l.28-.49h0ZM53.07,36.18,43.5,19.59H62.65Z"/><polygon points="42.63 19.09 63.52 19.09 53.08 1 42.63 19.09"/><path class="cls-1" d="M64.09,19.09h0l-.28-.49h0l-.28-.49h0L53.07,0,42.63,18.09l-.28.5h0l-.28.5-.29.5H64.38Zm-20.59-.5L53.07,2l9.58,16.59Z"/><polygon points="73.96 37.18 53.08 37.18 63.52 55.26 73.96 37.18"/><path class="cls-1" d="M74.25,36.68h-22l.29.5.28.5h0l.28.48h0l9.57,16.58.29.5.29.5.29.5.29-.5.29-.5.28-.5h0L74,38.18l.29-.5.29-.5Zm-1.16,1L63.52,54.26,53.94,37.68Z"/><polygon points="53.08 37.18 73.96 37.18 63.52 19.09 53.08 37.18"/><path class="cls-1" d="M74.54,37.18l-.29-.5-.29-.5L64.38,19.59l-.29-.5h0l-.28-.49-.29-.49-.29.49-.29.5-.29.5L53.08,36.18h0l-.28.5-.29.5-.29.5H74.83Zm-20.6-.5,9.58-16.59,9.57,16.59Z"/><polygon points="84.4 55.26 63.52 55.26 73.96 73.35 84.4 55.26"/><path class="cls-1" d="M84.69,54.76h-22l.29.5.29.5.29.5,9.57,16.59.29.5.29.5.29.5.29-.5.29-.5.29-.5L84.4,56.26l.29-.5.29-.5Zm-1.16,1L74,72.35,64.38,55.76Z"/><polygon points="63.52 55.26 84.4 55.26 73.96 37.18 63.52 55.26"/><path class="cls-1" d="M85,55.26l-.29-.5-.29-.5L74.83,37.68l-.29-.5-.29-.5-.29-.5-.29.5-.29.5-.29.5L63.52,54.26l-.29.5-.29.5.29.5h22Zm-20.6-.5L74,38.18l9.57,16.58Z"/><polygon points="73.96 73.35 94.84 73.35 84.4 55.26 73.96 73.35"/><path class="cls-1" d="M95.42,73.35l-.29-.5-.29-.5L85.27,55.76l-.29-.5-.29-.5-.29-.5-.29.5-.29.5-.29.5L74,72.35l-.29.5-.29.5-.29.5H95.71Zm-20.59-.5L84.4,56.26,94,72.85Z"/><polygon points="21.75 55.26 32.19 73.35 42.63 55.26 21.75 55.26"/><path class="cls-1" d="M21.46,54.76l-.29.5.58,1,9.57,16.59.29.5.58,1,.29-.5.29-.5.29-.5,9.57-16.59.29-.5.58-1Zm20.31,1L32.19,72.35,22.61,55.76Z"/><polygon points="32.19 73.35 21.75 55.26 11.31 73.35 32.19 73.35"/><path class="cls-1" d="M32.77,73.35l-.29-.5-.29-.5L22.62,55.76h0l-.28-.5-.29-.5-.29-.5-.58,1-.29.5L11.31,72.35l-.29.5-.29.5-.29.5H33.06Zm-20.6-.5,9.58-16.59,9.57,16.59Z"/><polygon points="32.19 37.18 42.63 55.26 53.08 37.18 32.19 37.18"/><path class="cls-1" d="M31.9,36.68l-.29.5.58,1,9.57,16.58h0l.28.5.58,1,.29-.5.58-1,9.57-16.58h0l.28-.5h0l.28-.49.29-.5Zm20.31,1L42.63,54.26,33.06,37.68Z"/><polygon points="42.63 55.26 32.19 37.18 21.75 55.26 42.63 55.26"/><path class="cls-1" d="M42.92,54.76l-.29-.5L33.06,37.68l-.29-.5-.29-.5-.29-.5-.58,1-.29.5L21.75,54.26l-.58,1-.29.5h22l.29-.5Zm-20.31,0,9.58-16.58,9.58,16.58Z"/><polygon points="53.08 37.18 42.63 19.09 32.19 37.18 53.08 37.18"/><path class="cls-1" d="M53.65,37.18l-.28-.49h0l-.28-.5h0L43.5,19.59l-.58-1-.29-.5-.29.5-.28.5-.29.5L32.19,36.18l-.58,1-.29.5H53.94Zm-20.59-.5,9.57-16.59,4.79,8.3,4.79,8.29Z"/></svg>