<svg id="Layer_1" data-name="Layer 1" xmlns="http://www.w3.org/2000/svg" viewBox="0 0 106.16 106.16"><defs><style>.cls-1{fill:#fff;}</style></defs><polygon class="cls-1" points="73.96 80.46 94.85 80.46 84.41 62.37 73.96 80.46"/><path d="M95.42,80.45h0L95.14,80h0l-.28-.49h0L85.27,62.87l-.58-1-.29-.5-.28.5h0l-.29.5-.28.5h0l-4.78,8.29L74,79.45l-.28.5h0l-.28.49h0L73.1,81H95.71ZM74.83,80,84.4,63.37,94,80Z"/><polygon class="cls-1" points="94.85 80.46 73.96 80.46 84.41 98.55 94.85 80.46"/><path d="M95.14,80h-22l.29.5h0l.28.49h0l.28.5,4.79,8.3L83.53,98h0l.28.5h0l.28.5h.58l.58-1,9.58-16.59.28-.5h0l.28-.49h0ZM84.4,97.54,74.83,81H94Z"/><polygon class="cls-1" points="63.52 62.37 84.41 62.37 73.96 44.29 63.52 62.37"/><path d="M84.69,61.87l-.29-.5L74.83,44.78l-.58-1-.29-.5-.58,1-.28.5h0L63.52,61.37l-.58,1,.29.5h22Zm-20.3,0L74,45.28l9.58,16.59Z"/><polygon class="cls-1" points="84.41 62.37 63.52 62.37 73.96 80.46 84.41 62.37"/><path d="M84.69,61.87h-22l.29.5.58,1L73.09,80h0l.28.5h0l.28.49.29.5.29-.5.58-1L84.4,63.37l.29-.5h0l.28-.5Zm-5.94,9.29L74,79.45,64.39,62.87H83.54Z"/><polygon class="cls-1" points="53.08 44.29 73.96 44.29 63.52 26.2 53.08 44.29"/><path d="M74.25,43.78l-.29-.5L64.39,26.7l-.58-1-.29-.5-.58,1-.29.5L53.08,43.28l-.58,1-.29.5H74.83Zm-20.31,0L63.52,27.2,73.1,43.78Z"/><polygon class="cls-1" points="73.96 44.29 53.08 44.29 63.52 62.37 73.96 44.29"/><path d="M74.25,43.78h-22l.29.5.58,1,9.57,16.59.29.5.58,1,.29-.5.58-1L74,45.28l.29-.5.29-.5Zm-1.15,1L63.52,61.37,53.94,44.78Z"/><polygon class="cls-1" points="42.64 26.2 63.52 26.2 53.08 8.11 42.64 26.2"/><path d="M63.81,25.7l-.29-.5L53.08,7.12,42.64,25.2l-.58,1-.29.5H64.39Zm-20.31,0L53.08,9.12,62.65,25.7Z"/><polygon class="cls-1" points="84.41 98.55 105.29 98.55 94.85 80.46 84.41 98.55"/><path d="M95.71,81l-.29-.5h0L95.14,80l-.29-.49-.29.49-.29.5L94,81,84.41,97.54h0l-.28.5-.29.5-.29.5h22.62ZM104.42,98H85.27l9.58-16.59Z"/><polygon class="cls-1" points="63.52 26.2 42.64 26.2 53.08 44.29 63.52 26.2"/><path d="M63.81,25.7H42.35l-.29.5.58,1,9.57,16.58.29.5.58,1,.29-.5.28-.49h0l.28-.5h0L63.52,27.2l.29-.5.29-.5ZM53.08,43.28,48.29,35,43.5,26.7H62.65Z"/><polygon class="cls-1" points="11.31 80.46 21.75 98.55 32.19 80.46 11.31 80.46"/><path d="M11,80l-.29.5L11,81l.29.5L20.88,98h0l.28.5h0l.28.5H22l.29-.5.29-.5,9.57-16.59h0l.28-.5.29-.5.29-.5Zm15.52,9.3-4.79,8.29L12.18,81H31.33Z"/><polygon class="cls-1" points="21.75 98.55 11.31 80.46 0.87 98.55 21.75 98.55"/><path d="M22.33,98.54l-.58-1L12.18,81l-.29-.5-.58-1L11,80l-.58,1L0,99H22.62ZM1.73,98l9.58-16.59L20.89,98Z"/><polygon class="cls-1" points="21.75 62.37 32.19 80.46 42.64 62.37 21.75 62.37"/><path d="M21.46,61.87l-.28.5h0l.28.5h0l.28.5,4.79,8.29L31.32,80h0l.28.5h0l.28.49h0l.29.49.29-.49.29-.5.29-.5,9.58-16.58h0l.28-.5h0l.28-.5.29-.5Zm20.31,1L32.19,79.45,22.62,62.87Z"/><polygon class="cls-1" points="32.19 80.46 21.75 62.37 11.31 80.46 32.19 80.46"/><path d="M32.77,80.45l-.58-1L22.62,62.87l-.29-.5-.58-1-.29.5-.28.5h0l-.29.5L11.31,79.45,11,80l-.58,1H33.06ZM12.18,80l9.57-16.58,4.79,8.29L31.33,80Z"/><polygon class="cls-1" points="32.19 44.29 42.64 62.37 53.08 44.29 32.19 44.29"/><path d="M31.9,43.78l-.28.5.28.49h0l.28.5,9.58,16.59.29.5.29.5.29.5.29-.5.28-.5.29-.5,9.58-16.59.28-.5h0l.28-.49h0l.29-.5ZM42.64,61.37,33.06,44.78H52.21Z"/><polygon class="cls-1" points="42.64 62.37 32.19 44.29 21.75 62.37 42.64 62.37"/><path d="M42.93,61.88h0l-.28-.5L33.06,44.78l-.29-.5-.29-.5-.29-.49-.29.49-.28.5-.29.5L21.75,61.37l-.28.5h0l-.28.5h0l-.29.5h22l.28-.5Zm-20.31,0,9.57-16.59,9.58,16.59Z"/><polygon class="cls-1" points="53.08 44.29 42.64 26.2 32.19 44.29 53.08 44.29"/><path d="M53.65,44.29h0l-.28-.49h0l-.28-.5L48.29,35,43.51,26.7h0l-.28-.5-.29-.5-.29-.5-.58,1-.29.5L32.19,43.29l-.28.49h0l-.28.5-.29.5H53.94Zm-20.59-.51L42.64,27.2l9.57,16.58Z"/><polygon class="cls-1" points="63.52 98.55 73.96 80.46 53.08 80.46 63.52 98.55"/><path d="M52.21,80l.29.5.58,1L62.65,98l.29.5.29.5h.58l.58-1L74,81.45l.29-.5.58-1Zm1.73,1H73.1L63.52,97.53Z"/><polygon class="cls-1" points="73.96 80.46 63.52 98.55 84.41 98.55 73.96 80.46"/><path d="M85,98.54l-.28-.49h0l-.29-.5h0L74.83,81l-.58-1-.29-.5-.29.5h0l-.28.49h0l-.28.5h0L63.52,97.53h0l-.58,1-.29.5H85.27ZM64.39,98,74,81.45l4.79,8.3L83.54,98Z"/><polygon class="cls-1" points="42.64 98.55 53.08 80.46 32.19 80.46 42.64 98.55"/><path d="M31.33,80l.29.5.28.49h0l.28.49h0L41.77,98l.29.5.29.5h.58l.28-.5h0l.28-.5h0l4.78-8.29,4.79-8.3.29-.5.28-.5.29-.5Zm20.88,1L42.64,97.54,33.06,81Z"/><polygon class="cls-1" points="53.08 80.46 42.64 98.55 63.52 98.55 53.08 80.46"/><path d="M63.81,98l-.29-.5h0L54,81h0l-.28-.5h0l-.28-.5h-.58l-.29.5-.29.5L42.64,97.54l-.58,1-.29.5H64.39ZM43.5,98l4.79-8.29,4.79-8.3L62.65,98Z"/><polygon class="cls-1" points="32.19 80.46 21.75 98.55 42.64 98.55 32.19 80.46"/><path d="M43.21,98.54l-.28-.49h0l-.29-.5L33.06,81l-.29-.5-.58-1-.29.5-.28.5h0l-.28.5h0l-4.78,8.3-4.79,8.29-.29.5-.28.5-.29.5H43.5ZM22.62,98l9.57-16.59L41.77,98Z"/></svg>