<svg id="Layer_1" data-name="Layer 1" xmlns="http://www.w3.org/2000/svg" viewBox="0 0 106.16 91.93"><defs><style>.cls-1{fill:#fff;}</style></defs><polygon class="cls-1" points="73.96 73.34 94.85 73.34 84.41 55.26 73.96 73.34"/><path d="M95.42,73.34h0l-.28-.49h0l-.28-.49h0L85.27,55.76l-.58-1-.29-.5-.28.49h0l-.29.5-.28.5h0l-4.78,8.29L74,72.34l-.28.5h0l-.28.49h0l-.29.49H95.71Zm-20.59-.5L84.4,56.26,94,72.84Z"/><polygon class="cls-1" points="94.85 73.34 73.96 73.34 84.41 91.43 94.85 73.34"/><path d="M95.14,72.84h-22l.29.5h0l.28.49h0l.28.5,4.79,8.3,4.78,8.29h0l.28.5h0l.28.5h.58l.58-1,9.58-16.59.28-.5h0l.28-.49h0ZM84.4,90.43,74.83,73.84H94Z"/><polygon class="cls-1" points="63.52 55.26 84.41 55.26 73.96 37.17 63.52 55.26"/><path d="M84.69,54.76l-.29-.5L74.83,37.67l-.58-1-.29-.5-.58,1-.28.5h0L63.52,54.26l-.58,1,.29.5h22Zm-20.3,0L74,38.17l9.58,16.59Z"/><polygon class="cls-1" points="84.41 55.26 63.52 55.26 73.96 73.34 84.41 55.26"/><path d="M84.69,54.76h-22l.29.5.58,1,9.57,16.58h0l.28.5h0l.28.49.29.5.29-.5.58-1L84.4,56.26l.29-.5h0l.28-.49Zm-5.94,9.29L74,72.34,64.39,55.76H83.54Z"/><polygon class="cls-1" points="53.08 37.17 73.96 37.17 63.52 19.09 53.08 37.17"/><path d="M74.25,36.67l-.29-.5L64.39,19.59l-.58-1-.29-.5-.58,1-.29.5L53.08,36.17l-.58,1-.29.5H74.83Zm-20.31,0,9.58-16.58L73.1,36.67Z"/><polygon class="cls-1" points="73.96 37.17 53.08 37.17 63.52 55.26 73.96 37.17"/><path d="M74.25,36.67h-22l.29.5.58,1,9.57,16.59.29.5.58,1,.29-.5.58-1L74,38.17l.29-.5.29-.5Zm-1.15,1L63.52,54.26,53.94,37.67Z"/><polygon class="cls-1" points="42.64 19.09 63.52 19.09 53.08 1 42.64 19.09"/><path d="M63.81,18.59l-.29-.5L53.08,0,42.64,18.09l-.58,1-.29.5H64.39Zm-20.31,0L53.08,2l9.57,16.59Z"/><polygon class="cls-1" points="84.41 91.43 105.29 91.43 94.85 73.34 84.41 91.43"/><path d="M95.71,73.84l-.29-.5h0l-.28-.49-.29-.49-.29.49-.29.5-.29.5L84.41,90.43h0l-.28.5-.29.5-.29.5h22.62Zm8.71,17.09H85.27l9.58-16.59Z"/><polygon class="cls-1" points="63.52 19.09 42.64 19.09 53.08 37.17 63.52 19.09"/><path d="M63.81,18.59H42.35l-.29.5.58,1,9.57,16.58.29.5.58,1,.29-.5.28-.49h0l.28-.5h0l9.57-16.58.29-.5.29-.5ZM53.08,36.17l-4.79-8.29L43.5,19.59H62.65Z"/><polygon class="cls-1" points="11.31 73.34 21.75 91.43 32.19 73.34 11.31 73.34"/><path d="M11,72.84l-.29.5.29.5.29.5,9.57,16.59h0l.28.5h0l.28.5H22l.29-.5.29-.5,9.57-16.59h0l.28-.5.29-.5.29-.5Zm15.52,9.3-4.79,8.29L12.18,73.84H31.33Z"/><polygon class="cls-1" points="21.75 91.43 11.31 73.34 0.87 91.43 21.75 91.43"/><path d="M22.33,91.43l-.58-1L12.18,73.84l-.29-.5-.58-1-.29.5-.58,1L0,91.93H22.62Zm-20.6-.5,9.58-16.59,9.58,16.59Z"/><polygon class="cls-1" points="21.75 55.26 32.19 73.34 42.64 55.26 21.75 55.26"/><path d="M21.46,54.76l-.28.49h0l.28.49h0l.28.5,4.79,8.29,4.78,8.29h0l.28.5h0l.28.49h0l.29.49.29-.49.29-.5.29-.5,9.58-16.58h0l.28-.49h0l.28-.5.29-.5Zm20.31,1L32.19,72.34,22.62,55.76Z"/><polygon class="cls-1" points="32.19 73.34 21.75 55.26 11.31 73.34 32.19 73.34"/><path d="M32.77,73.34l-.58-1L22.62,55.76l-.29-.5-.58-1-.29.5-.28.49h0l-.29.5L11.31,72.34l-.29.5-.58,1H33.06Zm-20.59-.5,9.57-16.58,4.79,8.29,4.79,8.29Z"/><polygon class="cls-1" points="32.19 37.17 42.64 55.26 53.08 37.17 32.19 37.17"/><path d="M31.9,36.67l-.28.5.28.49h0l.28.5,9.58,16.59.29.5.29.5.29.49.29-.49.28-.5.29-.5,9.58-16.59.28-.5h0l.28-.49h0l.29-.5ZM42.64,54.26,33.06,37.67H52.21Z"/><polygon class="cls-1" points="42.64 55.26 32.19 37.17 21.75 55.26 42.64 55.26"/><path d="M42.93,54.77h0l-.28-.5L33.06,37.67l-.29-.5-.29-.5-.29-.49-.29.49-.28.5-.29.5L21.75,54.26l-.28.5h0l-.28.49h0l-.29.5h22l.28-.5Zm-20.31,0,9.57-16.59,9.58,16.59Z"/><polygon class="cls-1" points="53.08 37.17 42.64 19.09 32.19 37.17 53.08 37.17"/><path d="M53.65,37.18h0l-.28-.49h0l-.28-.5-4.79-8.29-4.78-8.29h0l-.28-.5-.29-.5-.29-.5-.58,1-.29.5L32.19,36.18l-.28.49h0l-.28.5-.29.5H53.94Zm-20.59-.51,9.58-16.58,9.57,16.58Z"/><polygon class="cls-1" points="63.52 91.43 73.96 73.34 53.08 73.34 63.52 91.43"/><path d="M52.21,72.84l.29.5.58,1,9.57,16.59.29.5.29.5h.58l.58-1L74,74.34l.29-.5.58-1Zm1.73,1H73.1L63.52,90.42Z"/><polygon class="cls-1" points="73.96 73.34 63.52 91.43 84.41 91.43 73.96 73.34"/><path d="M85,91.43l-.28-.49h0l-.29-.5h0L74.83,73.84l-.58-1-.29-.5-.29.5h0l-.28.49h0l-.28.5h0L63.52,90.42h0l-.58,1-.29.5H85.27Zm-20.59-.5L74,74.34l4.79,8.3,4.79,8.29Z"/><polygon class="cls-1" points="42.64 91.43 53.08 73.34 32.19 73.34 42.64 91.43"/><path d="M31.33,72.84l.29.5.28.49h0l.28.49h0l9.57,16.59.29.5.29.5h.58l.28-.5h0l.28-.5h0l4.78-8.29,4.79-8.3.29-.5.28-.5.29-.5Zm20.88,1L42.64,90.43,33.06,73.84Z"/><polygon class="cls-1" points="53.08 73.34 42.64 91.43 63.52 91.43 53.08 73.34"/><path d="M63.81,90.93l-.29-.5h0L54,73.84h0l-.28-.5h0l-.28-.5h-.58l-.29.5-.29.5L42.64,90.43l-.58,1-.29.5H64.39Zm-20.31,0,4.79-8.29,4.79-8.3,9.57,16.59Z"/><polygon class="cls-1" points="32.19 73.34 21.75 91.43 42.64 91.43 32.19 73.34"/><path d="M43.21,91.43l-.28-.49h0l-.29-.5L33.06,73.84l-.29-.5-.58-1-.29.5-.28.5h0l-.28.5h0l-4.78,8.3-4.79,8.29-.29.5-.28.5-.29.5H43.5Zm-20.59-.5,9.57-16.59,9.58,16.59Z"/></svg>