<svg id="Layer_1" data-name="Layer 1" xmlns="http://www.w3.org/2000/svg" viewBox="0 0 80.11 64.31"><defs><style>.cls-1{fill:#fff;}</style></defs><path class="cls-1" d="M33.71,17.31H15.31c-8.24.23-14.09,6-14.16,11.62,0,5.09,4.6,8.6,5.24,9.06C1.13,45,.68,47.74,1.54,48.85c.43.56,1.32.84,1.4,1.66.13,1.18-1.63,1.84-2.42,3.06a4.2,4.2,0,0,0-.36,3.32A8.65,8.65,0,0,0,6.69,63.4a35.27,35.27,0,0,0,9,.89c4.83-.15,12.36-.38,15.83-5.61.16-.25,3.58-5.58.76-10.09-2.23-3.58-6.72-3.92-7.27-4L9.32,43.1l2.18-3.19C20.37,42.1,28.23,38,30,32.25,31.46,27.56,28.48,23,27.84,22h5.87ZM24,53.82c-.35.58-3.35,5.39-8.56,5.62-3.89.17-8.56-2.25-8.55-4.85,0-.51.19-1.68,2.17-3.06ZM22.22,29.19c-.42,3.22-3.83,5.31-6.9,5a6,6,0,0,1-5.23-4.34A6.3,6.3,0,0,1,16,22.55C19.47,22.46,22.67,25.72,22.22,29.19Z"/><path class="cls-1" d="M39.26,5.68a5.81,5.81,0,0,1,11.62-.06,5.81,5.81,0,0,1-11.62.06Z"/><path class="cls-1" d="M69.13,15.89V6.64H62.87a8.26,8.26,0,0,1-1.59,7.15A8.12,8.12,0,0,1,55,16.53V22h4.22V40.21a10.5,10.5,0,0,0,2.41,7.15c3.65,4,11.47,4.33,18.45-.32-.72-1.64-1.45-3.27-2.17-4.91a5.57,5.57,0,0,1-6.38,1.34,5.68,5.68,0,0,1-2.88-4V22.09h9.14V15.76Z"/><path class="cls-1" d="M41.3,43.47l-4,1.08v4.79H55v-4.6l-4.28-.83V16.59H37.46v4.68l3.71,1.84Q41.25,33.28,41.3,43.47Z"/></svg>