<svg id="Layer_1" data-name="Layer 1" xmlns="http://www.w3.org/2000/svg" viewBox="0 0 77.69 75.7"><defs><style>.cls-1{fill:#fff;}</style></defs><path class="cls-1" d="M29.43,74.17c-.13-3.4-.26-6.81-.38-10.21-4,1.32-6.53.76-8,0-2.16-1.08-2.88-2.82-5.87-6.51A63.76,63.76,0,0,0,10,51.83a6,6,0,0,1,4.46-.38c2,.74,2.18,2.52,4.22,4.59.46.48,4.44,4.43,8,3.32,2.39-.73,4-3.51,4.47-6.76a16.43,16.43,0,0,1-15.7-10c-3.34-8.16,1.88-15.45,2.17-15.83a11.67,11.67,0,0,1-.77-6.51,11.36,11.36,0,0,1,1.66-4.21,20,20,0,0,1,4.72,1.14,20.45,20.45,0,0,1,5.62,3.2,33.85,33.85,0,0,1,19.79-.13,20.84,20.84,0,0,1,11.1-4.21,20.62,20.62,0,0,1,.9,5.23,20.4,20.4,0,0,1-.51,5.36c.68.86,5,6.51,3.44,13.41s-8.57,12.46-17.1,12.63l2,5q.12,8.17.25,16.34C65.94,69,77.6,53.93,77.69,37.66,77.8,17.2,59.6.05,39,0,16.58-.06-1.25,20.17.07,41.11c1,15.25,12,29,27.83,34.59Z"/></svg>