<svg id="Layer_1" data-name="Layer 1" xmlns="http://www.w3.org/2000/svg" viewBox="0 0 70.21 70.21"><defs><style>.cls-1{fill:#fff;}</style></defs><rect class="cls-1" width="70.21" height="70.21"/><path d="M18.61,59,24,55.77c1,1.83,2,3.39,4.23,3.39s3.52-.85,3.52-4.14V32.65H38.3V55.11c0,6.82-4,9.92-9.82,9.92A10.22,10.22,0,0,1,18.61,59Z"/><path d="M41.88,58.31l5.35-3.1c1.41,2.3,3.25,4,6.49,4,2.72,0,4.46-1.36,4.46-3.24,0-2.26-1.78-3.05-4.79-4.37l-1.64-.71c-4.75-2-7.9-4.55-7.9-9.91,0-4.94,3.76-8.7,9.63-8.7,4.19,0,7.2,1.46,9.36,5.27l-5.13,3.29c-1.12-2-2.35-2.82-4.23-2.82a2.86,2.86,0,0,0-3.14,2.82c0,2,1.22,2.77,4,4l1.64.71c5.59,2.39,8.74,4.84,8.74,10.34,0,5.92-4.65,9.16-10.9,9.16S43.8,62.12,41.88,58.31Z"/></svg>