<svg id="Layer_1" data-name="Layer 1" xmlns="http://www.w3.org/2000/svg" viewBox="0 0 98.81 60.28"><defs><style>.cls-1{font-size:4.41px;font-family:ArialMT, Arial;}</style></defs><path d="M66.28,0V15.69L62.6,13.57,52.42,19.44V31.19L62.6,37.06l10.17-5.87V4.34Zm0,27.44L62.6,29.57l-3.69-2.13V23.19l3.69-2.13,3.68,2.13Z"/><polygon points="20.34 19.44 20.34 35.14 16.92 33.17 13.85 31.4 13.85 23.19 10.17 21.06 6.48 23.19 6.48 31.4 3.42 33.17 0 35.14 0 19.44 10.17 13.57 20.34 19.44"/><polygon points="46.55 31.19 46.55 19.44 36.38 13.57 26.21 19.44 26.21 31.19 36.38 37.06 46.55 31.19"/><polygon points="88.64 23.1 90.55 24.21 90.55 26.42 88.64 27.53 86.72 26.42 86.72 24.21 88.64 23.1"/><polygon points="92.32 26.97 92.32 27.36 92.15 27.07 92.32 26.97"/><polygon points="98.81 23.22 92.32 26.97 92.32 23.19 88.64 21.06 84.95 23.19 84.95 27.44 88.32 29.38 88.64 29.57 95.13 33.31 88.64 37.06 78.47 31.19 78.47 19.44 88.64 13.57 98.81 19.44 98.81 23.22"/><polygon points="88.64 23.1 90.55 24.21 90.55 26.42 88.64 27.53 86.72 26.42 86.72 24.21 88.64 23.1"/><polygon points="92.32 26.97 92.32 27.36 92.15 27.07 92.32 26.97"/><polygon points="90.55 24.21 90.55 26.42 88.64 27.53 86.72 26.42 86.72 24.21 88.64 23.1 90.55 24.21"/><polygon points="92.32 26.97 92.32 27.36 92.15 27.07 92.32 26.97"/><path d="M55.13,49.49a3,3,0,0,0-1.3-1,13.35,13.35,0,0,0-2.21-.63,5.36,5.36,0,0,1-2-.72,1.14,1.14,0,0,1-.39-.89,1.31,1.31,0,0,1,.55-1.06,2.81,2.81,0,0,1,1.75-.44,2.74,2.74,0,0,1,1.75.48A2.1,2.1,0,0,1,54,46.64l1.27-.1A3,3,0,0,0,54.75,45a2.87,2.87,0,0,0-1.31-1.05,5,5,0,0,0-2-.36,4.71,4.71,0,0,0-1.84.34,2.65,2.65,0,0,0-1.26,1A2.54,2.54,0,0,0,48,46.31a2.33,2.33,0,0,0,.35,1.25,2.74,2.74,0,0,0,1.07.93,8.74,8.74,0,0,0,1.93.63,15.64,15.64,0,0,1,1.79.49,2,2,0,0,1,.9.59,1.3,1.3,0,0,1,.27.82,1.43,1.43,0,0,1-.28.86,1.9,1.9,0,0,1-.86.62,3.73,3.73,0,0,1-1.34.22,4,4,0,0,1-1.54-.29,2.28,2.28,0,0,1-1-.78,2.75,2.75,0,0,1-.41-1.24l-1.25.11a3.29,3.29,0,0,0,.55,1.8,3.21,3.21,0,0,0,1.44,1.2,5.83,5.83,0,0,0,2.28.39,4.62,4.62,0,0,0,1.93-.39,3,3,0,0,0,1.31-1.1,2.68,2.68,0,0,0,.46-1.51A2.52,2.52,0,0,0,55.13,49.49Z"/><path d="M44.23,44.85v8.31a6,6,0,0,1-.14,1.51,1.45,1.45,0,0,1-.5.75,1.35,1.35,0,0,1-.8.27h-.06a1.26,1.26,0,0,1-1.06-.51,1.05,1.05,0,0,1-.12-.21l-1.49-.86a4.78,4.78,0,0,0,.24,1.3l2.9,1.67a2.56,2.56,0,0,0,1.09-.4l.09-.07a2.41,2.41,0,0,0,.87-1.2,7.14,7.14,0,0,0,.3-2.34V44.85Z"/><path d="M41.55,55a1.05,1.05,0,0,0,.12.21,1.26,1.26,0,0,0,1.06.51h.06Zm7.19-19.34L38.07,41.79V54.12l2.23,1.29,2.9,1.67a2.56,2.56,0,0,0,1.09-.4l.09-.07-1.59-.92L41.55,55l-1.49-.86-1-.57V42.37l9.67-5.58,9.67,5.58V53.54l-9.67,5.58-2.59-1.49-1,.57,3.6,2.08,10.67-6.16V41.79Z"/><text class="cls-1" transform="translate(61.31 44.37)">®</text></svg>