<svg id="Layer_1" data-name="Layer 1" xmlns="http://www.w3.org/2000/svg" viewBox="0 0 106.15 106.15"><defs><style>.cls-1{fill:#fff;}.cls-2{fill:#dba828;}</style></defs><polygon points="32.19 77.68 21.75 95.77 42.63 95.77 32.19 77.68"/><path class="cls-1" d="M42.92,95.27l-.29-.5L33.06,78.18l-.29-.5-.29-.5-.29-.5-.58,1-.29.5L21.75,94.77l-.58,1-.29.5H43.5Zm-1.15,0H22.61l9.58-16.58Z"/><polygon points="21.75 95.77 32.19 77.68 11.31 77.68 21.75 95.77"/><path class="cls-1" d="M11,77.18l-.29.5.29.5.29.5,9.57,16.59.29.5.29.5H22l.28-.5h0l.28-.5h0l9.57-16.58h0l.29-.5.29-.5.29-.5Zm1.15,1H31.32L21.75,94.77,17,86.48Z"/><polygon points="53.08 77.68 42.63 95.77 63.52 95.77 53.08 77.68"/><path class="cls-1" d="M64.09,95.78h0l-.28-.49h0l-.29-.5L53.94,78.18l-.58-1h-.58l-.28.5h0l-.28.5h0l-4.78,8.3-4.79,8.29-.29.5-.28.5-.29.5H64.38ZM43.5,95.27l9.57-16.59,9.58,16.59Z"/><polygon points="42.63 95.77 53.08 77.68 32.19 77.68 42.63 95.77"/><path class="cls-1" d="M31.32,77.18l.29.5.58,1h0l9.57,16.58h0l.28.5h0l.28.5h.58l.58-1,9.57-16.59h0l.29-.5h0l.28-.49.29-.5Zm20.89,1-4.79,8.3-4.79,8.29L33.06,78.18Z"/><polygon points="73.96 77.68 63.52 95.77 84.4 95.77 73.96 77.68"/><path class="cls-1" d="M85,95.77l-.29-.5-.29-.5h0L74.83,78.18l-.29-.5-.29-.5-.29-.5-.29.5-.29.5-.29.5L63.52,94.77l-.29.5-.29.5-.29.5H85.27Zm-20.6-.5L74,78.69l9.57,16.58Z"/><polygon points="63.52 95.77 73.96 77.68 53.08 77.68 63.52 95.77"/><path class="cls-1" d="M52.21,77.18l.29.5.29.5.28.5h0l9.57,16.59.29.5.29.5h.58l.28-.49h0l.28-.5h0L74,78.69h0l.29-.5.29-.5.29-.5ZM63.52,94.77,53.94,78.18H73.09Z"/><polygon class="cls-2" points="11.31 77.68 0.87 95.77 21.76 95.77 11.31 77.68"/><path class="cls-1" d="M12.18,78.18l-.29-.5-.29-.5-.29-.5-.29.5-.29.5-.28.5h0L.87,94.76h0l-.29.5-.29.5-.29.5H22.62ZM1.74,95.27l9.57-16.59,9.58,16.59Z"/><polygon class="cls-1" points="94.84 77.68 84.39 95.77 105.28 95.77 94.84 77.68"/><path class="cls-1" d="M105.85,95.77l-.28-.5-.29-.5-4.79-8.29-4.78-8.3h0l-.28-.5-.58-1-.29.5-.29.5-.29.5L83.53,96.27h22.61Zm-20.59-.5,9.58-16.59,9.57,16.59Z"/><polygon points="84.4 95.77 94.84 77.68 73.96 77.68 84.4 95.77"/><path class="cls-1" d="M95.13,77.18h-22l.29.5.29.5.29.5h0l9.57,16.58.29.5.29.5h.58l.29-.5.29-.5,9.57-16.59.29-.5.29-.5Zm-20.3,1H94L84.4,94.76Z"/><polygon points="63.52 23.43 42.63 23.43 53.08 41.51 63.52 23.43"/><path class="cls-1" d="M63.81,22.92H42.34l-.28.5.28.5h0l.28.5,4.79,8.3L52.2,41h0l.28.5h0l.28.5h0l.28.48.29-.49h0l.28-.49.29-.5,9.58-16.59.28-.5h0l.28-.49h0ZM53.07,40.51,43.5,23.92H62.65Z"/><polygon points="42.63 23.43 63.52 23.43 53.08 5.34 42.63 23.43"/><path class="cls-1" d="M64.09,23.42h0l-.28-.49h0l-.28-.49h0L53.07,4.33,42.63,22.42l-.28.5h0l-.28.5-.29.5H64.38Zm-20.59-.5L53.07,6.33l9.58,16.59Z"/><polygon points="73.96 41.51 53.08 41.51 63.52 59.6 73.96 41.51"/><path class="cls-1" d="M74.25,41h-22l.29.5.28.5h0l.28.48h0l9.57,16.58.29.5.29.5.29.5.29-.5.29-.5.28-.5h0L74,42.51l.29-.5.29-.5Zm-1.16,1L63.52,58.59,53.94,42Z"/><polygon points="53.08 41.51 73.96 41.51 63.52 23.43 53.08 41.51"/><path class="cls-1" d="M74.54,41.51l-.29-.5-.29-.5L64.38,23.92l-.29-.5h0l-.28-.49-.29-.49-.29.49-.29.5-.29.5L53.08,40.51h0l-.28.5-.29.5-.29.5H74.83ZM53.94,41l9.58-16.59L73.09,41Z"/><polygon points="84.4 59.6 63.52 59.6 73.96 77.68 84.4 59.6"/><path class="cls-1" d="M84.69,59.09h-22l.29.5.29.5.29.5,9.57,16.59.29.5.29.5.29.5.29-.5.29-.5.29-.5L84.4,60.59l.29-.5.29-.5Zm-1.16,1L74,76.68,64.38,60.09Z"/><polygon points="63.52 59.6 84.4 59.6 73.96 41.51 63.52 59.6"/><path class="cls-1" d="M85,59.59l-.29-.5-.29-.5L74.83,42l-.29-.5-.29-.5-.29-.5-.29.5-.29.5-.29.5L63.52,58.59l-.29.5-.29.5.29.5h22Zm-20.6-.5L74,42.51l9.57,16.58Z"/><polygon points="73.96 77.68 94.84 77.68 84.4 59.6 73.96 77.68"/><path class="cls-1" d="M95.42,77.68l-.29-.5-.29-.5L85.27,60.09l-.29-.5-.29-.5-.29-.5-.29.5-.29.5-.29.5L74,76.68l-.29.5-.29.5-.29.5H95.71Zm-20.59-.5L84.4,60.59,94,77.18Z"/><polygon points="21.75 59.6 32.19 77.68 42.63 59.6 21.75 59.6"/><path class="cls-1" d="M21.46,59.09l-.29.5.58,1,9.57,16.59.29.5.58,1,.29-.5.29-.5.29-.5,9.57-16.59.29-.5.58-1Zm20.31,1L32.19,76.68,22.61,60.09Z"/><polygon points="32.19 77.68 21.75 59.6 11.31 77.68 32.19 77.68"/><path class="cls-1" d="M32.77,77.68l-.29-.5-.29-.5L22.62,60.09h0l-.28-.5-.29-.5-.29-.5-.58,1-.29.5L11.31,76.68l-.29.5-.29.5-.29.5H33.06Zm-20.6-.5,9.58-16.59,9.57,16.59Z"/><polygon points="32.19 41.51 42.63 59.6 53.08 41.51 32.19 41.51"/><path class="cls-1" d="M31.9,41l-.29.5.58,1,9.57,16.58h0l.28.5.58,1,.29-.5.58-1,9.57-16.58h0l.28-.5h0l.28-.49.29-.5Zm20.31,1L42.63,58.59,33.06,42Z"/><polygon points="42.63 59.6 32.19 41.51 21.75 59.6 42.63 59.6"/><path class="cls-1" d="M42.92,59.09l-.29-.5L33.06,42l-.29-.5-.29-.5-.29-.5-.58,1-.29.5L21.75,58.59l-.58,1-.29.5h22l.29-.5Zm-20.31,0,9.58-16.58,9.58,16.58Z"/><polygon points="53.08 41.51 42.63 23.43 32.19 41.51 53.08 41.51"/><path class="cls-1" d="M53.65,41.51,53.37,41h0l-.28-.5h0L43.5,23.92l-.58-1-.29-.5-.29.5-.28.5-.29.5L32.19,40.51l-.58,1-.29.5H53.94ZM33.06,41l9.57-16.59,4.79,8.3L52.21,41Z"/></svg>