<svg xmlns="http://www.w3.org/2000/svg" viewBox="0 0 1920 1080"><defs><style>.cls-1{fill:#dba828;}</style></defs><g id="Layer_4" data-name="Layer 4"><rect width="1920" height="1080"/><polygon class="cls-1" points="225.95 96.8 225.82 96.86 225.81 96.86 225.43 96.99 0 177.74 0 176.56 224.26 96.25 225.28 95.88 225.55 95.78 225.75 96.29 225.76 96.29 225.76 96.3 225.95 96.8"/><polygon class="cls-1" points="225.99 95.8 225.76 96.28 225.75 96.29 225.75 96.3 225.51 96.79 225.31 96.7 224.26 96.25 3.98 0 6.73 0 225.38 95.54 225.91 95.77 225.99 95.8"/><polygon class="cls-1" points="256.34 0 256.2 0.43 226.49 95.84 226.35 96.27 226.29 96.45 225.76 96.3 225.75 96.3 225.75 96.29 225.2 96.14 225.28 95.88 225.38 95.54 255.15 0 256.34 0"/><polygon class="cls-1" points="476.01 128.93 225.67 96.83 225.82 95.75 476.16 127.85 476.01 128.93"/><polygon class="cls-1" points="274.39 219.22 225.22 96.49 226.28 96.1 275.45 218.83 274.39 219.22"/><polygon class="cls-1" points="476.39 127.92 476.13 128.33 476.09 128.39 476.08 128.39 476.05 128.46 475.79 128.86 475.76 128.84 475.37 128.61 474.89 128.34 473.5 127.52 473.49 127.51 256.2 0.43 255.47 0 257.64 0 475.89 127.63 476.21 127.81 476.22 127.81 476.39 127.92"/><polygon class="cls-1" points="555.55 0 554.99 0.91 477.21 127.64 477.21 127.65 476.84 128.23 476.61 128.62 476.58 128.66 476.18 128.44 476.09 128.4 476.09 128.39 476.08 128.39 475.59 128.12 475.68 127.98 475.68 127.97 475.79 127.81 475.89 127.63 553.91 0.52 554.23 0 555.55 0"/><polygon class="cls-1" points="476.19 128.93 475.99 127.86 768.79 76.88 769 77.95 476.19 128.93"/><polygon class="cls-1" points="667.99 253.46 475.77 128.84 476.41 127.94 668.63 252.56 667.99 253.46"/><polygon class="cls-1" points="402.85 285.33 401.81 284.88 475.57 128.17 476.61 128.62 402.85 285.33"/><polygon class="cls-1" points="275 218.48 274.93 219 274.93 219.03 274.83 219.56 274.75 219.55 273.31 219.33 1.08 179.13 0 178.97 0 177.87 274.04 218.34 274.82 218.46 274.83 218.46 275 218.48"/><polygon class="cls-1" points="136.64 300.67 136.04 299.75 274.63 218.56 275.22 219.49 136.64 300.67"/><polygon class="cls-1" points="402.06 285.58 274.65 219.5 275.19 218.54 402.6 284.63 402.06 285.58"/><polygon class="cls-1" points="275.16 219.51 274.68 218.53 475.85 127.9 476.33 128.88 275.16 219.51"/><polygon class="cls-1" points="136.38 300.75 136.31 299.67 402.29 284.56 402.36 285.65 136.38 300.75"/><polygon class="cls-1" points="136.72 299.81 136.34 300.2 136.34 300.21 136.28 300.26 135.95 300.61 135.89 300.55 135.88 300.54 135.4 300.12 0 179.66 0 178.16 1.08 179.13 136.41 299.53 136.55 299.66 136.72 299.81"/><polygon class="cls-1" points="136.64 300.67 136.51 300.75 136.5 300.75 136.19 300.93 0 380.68 0 379.41 135.4 300.12 136.04 299.75 136.34 300.2 136.34 300.21 136.35 300.21 136.64 300.67"/><polygon class="cls-1" points="267.76 470.46 135.88 300.54 136.8 299.89 268.67 469.82 267.76 470.46"/><polygon class="cls-1" points="268.68 470.45 267.75 469.83 401.86 284.8 402.79 285.42 268.68 470.45"/><polygon class="cls-1" points="402.4 285.64 402.25 284.57 668.24 252.47 668.38 253.55 402.4 285.64"/><polygon class="cls-1" points="612.28 340.39 402.18 285.63 402.48 284.58 612.58 339.34 612.28 340.39"/><polygon class="cls-1" points="268.43 470.65 268.01 469.64 612.22 339.36 612.64 340.37 268.43 470.65"/><polygon class="cls-1" points="268.4 469.62 268.21 470.12 268.21 470.14 268.03 470.65 267.7 470.55 266.79 470.25 263.81 469.29 0 383.76 0 382.61 266.66 469.06 266.67 469.06 268 469.49 268.2 469.56 268.34 469.61 268.35 469.61 268.4 469.62"/><polygon class="cls-1" points="268.26 469.6 268.21 470.13 268.21 470.14 268.17 470.68 268.17 470.69 267.73 470.65 266.2 470.55 0 451.81 0 450.71 263.81 469.29 267.02 469.51 267.93 469.58 268.12 469.59 268.26 469.6"/><polygon class="cls-1" points="268.48 470.62 268.43 470.64 268.33 470.7 267.77 470.98 1.13 605.83 1.11 605.83 0.81 605.98 0 606.4 0 605.16 266.2 470.55 266.79 470.25 267.36 469.96 267.82 469.73 267.95 469.67 268.21 470.13 268.21 470.14 268.25 470.21 268.25 470.22 268.48 470.62"/><polygon class="cls-1" points="298.94 689.24 267.65 470.21 268.78 470.07 300.07 689.09 298.94 689.24"/><polygon class="cls-1" points="601.19 508.44 268.15 470.68 268.28 469.6 601.32 507.36 601.19 508.44"/><polygon class="cls-1" points="299.66 688.64 299.52 689.14 299.5 689.16 299.35 689.68 299.15 689.63 298.56 689.47 2.97 607.47 2.96 607.46 0 606.65 0 606.08 0.16 605.56 1.11 605.83 1.13 605.83 298.83 688.41 299.43 688.57 299.58 688.62 299.66 688.64"/><polygon class="cls-1" points="299.96 689.49 299.88 689.59 299.79 689.71 299.48 690.1 237.86 769.5 237.23 770.3 237.01 770.6 236.94 770.68 236.77 770.9 236.49 771.25 0 1075.94 0 1074.13 235.3 770.97 235.83 770.27 236.18 769.84 236.52 769.4 298.56 689.47 298.91 689.01 299.05 688.83 299.5 689.16 299.52 689.16 299.96 689.49"/><polygon class="cls-1" points="299.81 689.62 299.21 688.7 600.95 507.44 601.56 508.36 299.81 689.62"/><polygon class="cls-1" points="802.41 697.26 299.5 689.71 299.52 688.62 802.43 696.17 802.41 697.26"/><polygon class="cls-1" points="334.8 740.45 299.04 689.47 299.98 688.86 335.74 739.84 334.8 740.45"/><polygon class="cls-1" points="237.1 770.87 236.75 769.83 335.1 739.62 335.44 740.66 237.1 770.87"/><polygon class="cls-1" points="335.33 740.68 335.22 739.6 802.37 696.17 802.48 697.26 335.33 740.68"/><polygon class="cls-1" points="257.55 889.55 256.53 889.06 334.76 739.9 335.78 740.39 257.55 889.55"/><polygon class="cls-1" points="553.96 910.5 334.91 740.56 335.63 739.72 554.68 909.65 553.96 910.5"/><polygon class="cls-1" points="256.48 889.39 236.36 770.44 237.49 770.26 257.6 889.22 256.48 889.39"/><polygon class="cls-1" points="554.28 910.62 257 889.85 257.08 888.76 554.36 909.53 554.28 910.62"/><polygon class="cls-1" points="257.39 889.74 257.22 889.85 256.82 890.16 2.4 1080 0.55 1080 256.42 889.07 256.59 888.95 256.69 888.88 257.04 889.3 257.04 889.31 257.05 889.31 257.39 889.74"/><polygon class="cls-1" points="343.85 1080 342.61 1080 256.82 890.16 256.52 889.52 257.04 889.31 257.05 889.31 257.05 889.3 257.06 889.3 257.56 889.09 257.6 889.18 257.66 889.32 257.92 889.91 343.85 1080"/><polygon class="cls-1" points="236.95 770.89 236.5 770.91 0.02 782.18 0 781.74 0 781.09 236.9 769.8 236.95 770.89"/><polygon class="cls-1" points="237.26 769.91 236.93 770.35 236.93 770.36 236.59 770.79 236.39 770.66 235.83 770.27 235.27 769.88 0 606.77 0 606.08 0.33 605.65 0.81 605.98 2.96 607.46 2.97 607.47 236.52 769.4 237.03 769.75 237.26 769.91"/><polygon class="cls-1" points="769.09 76.9 768.9 77.4 768.9 77.42 768.89 77.44 768.69 77.92 768.61 77.89 768.6 77.89 768.08 77.71 766.78 77.23 766.77 77.23 554.99 0.91 553.91 0.52 552.46 0 555.66 0 768.93 76.85 769.01 76.87 769.02 76.88 769.09 76.9"/><polygon class="cls-1" points="1084.79 0 771.91 77.23 770.17 77.65 769.27 77.88 769.03 77.94 768.9 77.41 768.75 76.89 768.8 76.88 768.93 76.85 1080.23 0 1084.79 0"/><polygon class="cls-1" points="864.66 147.71 768.55 77.85 769.24 76.98 865.35 146.84 864.66 147.71"/><polygon class="cls-1" points="668.81 253.27 667.81 252.75 768.39 77.15 769.39 77.67 668.81 253.27"/><polygon class="cls-1" points="668.59 253.48 668.03 252.53 864.73 146.8 865.28 147.75 668.59 253.48"/><polygon class="cls-1" points="612.79 340.29 612.08 339.44 864.65 146.85 865.36 147.7 612.79 340.29"/><polygon class="cls-1" points="612.92 340.15 611.95 339.58 667.83 252.72 668.79 253.29 612.92 340.15"/><polygon class="cls-1" points="612.49 340.4 612.37 339.32 876.12 312.89 876.24 313.97 612.49 340.4"/><polygon class="cls-1" points="601.82 507.94 600.69 507.87 611.86 339.83 613 339.9 601.82 507.94"/><polygon class="cls-1" points="802.02 697.1 600.86 508.29 601.65 507.52 802.82 696.33 802.02 697.1"/><polygon class="cls-1" points="601.59 508.34 600.92 507.47 875.84 312.99 876.52 313.87 601.59 508.34"/><polygon class="cls-1" points="554.5 910.59 554.13 909.56 797.77 830.26 798.13 831.29 554.5 910.59"/><polygon class="cls-1" points="797.84 831.3 335.16 740.67 335.38 739.61 798.07 830.24 797.84 831.3"/><polygon class="cls-1" points="798.52 830.79 797.38 830.75 801.85 696.7 802.99 696.73 798.52 830.79"/><polygon class="cls-1" points="554.85 910.29 554.74 910.51 554.2 911.74 478.98 1080 477.74 1080 552.82 912.05 553.49 910.56 553.63 910.24 553.8 909.86 554.31 910.07 554.32 910.07 554.32 910.08 554.85 910.29"/><polygon class="cls-1" points="798.41 831.09 798.32 831.21 798.22 831.34 798.08 831.51 797.87 831.81 796.92 833.01 606.41 1080 604.99 1080 796.41 831.84 796.96 831.13 797.38 830.59 797.48 830.47 797.49 830.45 797.94 830.75 797.95 830.76 797.95 830.77 797.96 830.77 798.06 830.84 798.41 831.09"/><polygon class="cls-1" points="602.81 1080 601.63 1080 554.2 911.74 554 911.06 553.87 910.58 553.81 910.38 553.76 910.21 554.31 910.07 554.32 910.07 554.87 909.93 555 910.43 602.81 1080"/><polygon class="cls-1" points="554.7 910.48 554.61 910.56 554 911.06 552.82 912.05 351.78 1080 350.91 1080 350.54 1079.6 552.92 910.51 553.43 910.09 553.95 909.67 554.31 910.07 554.32 910.07 554.32 910.08 554.7 910.48"/><polygon class="cls-1" points="868.91 234.15 864.44 147.3 865.57 147.25 870.04 234.1 868.91 234.15"/><polygon class="cls-1" points="612.66 340.36 612.21 339.36 869.25 233.63 869.7 234.63 612.66 340.36"/><polygon class="cls-1" points="865.17 147.79 864.84 146.75 1003.42 105.22 1003.76 106.25 865.17 147.79"/><polygon class="cls-1" points="1003.51 106.27 768.82 77.95 768.97 76.87 1003.66 105.19 1003.51 106.27"/><polygon class="cls-1" points="1118.15 0 1119.79 0 1005.06 105.14 1004.49 105.66 1003.98 106.13 1003.58 105.74 1003.58 105.73 1003.2 105.34 1003.29 105.26 1003.39 105.16 1118.15 0"/><polygon class="cls-1" points="869.57 234.66 869.38 233.59 1135.37 190.16 1135.56 191.24 869.57 234.66"/><polygon class="cls-1" points="1135.37 191.24 864.91 147.81 865.1 146.74 1135.56 190.16 1135.37 191.24"/><polygon class="cls-1" points="1135.14 191.15 1003.27 106.19 1003.9 105.28 1135.78 190.25 1135.14 191.15"/><polygon class="cls-1" points="875.61 313.47 868.91 234.17 870.04 234.08 876.75 313.38 875.61 313.47"/><polygon class="cls-1" points="1062.16 287.31 1061.24 286.67 1135 190.38 1135.92 191.02 1062.16 287.31"/><polygon class="cls-1" points="876.26 313.96 876.1 312.89 1061.62 286.46 1061.78 287.53 876.26 313.96"/><polygon class="cls-1" points="601.35 508.44 601.17 507.37 773.27 480.93 773.45 482.01 601.35 508.44"/><polygon class="cls-1" points="773.86 481.75 772.87 481.2 875.69 313.15 876.67 313.7 773.86 481.75"/><polygon class="cls-1" points="801.9 696.94 732.61 553.45 733.65 552.99 802.94 696.49 801.9 696.94"/><polygon class="cls-1" points="733.63 553.48 732.63 552.96 772.86 481.21 773.87 481.73 733.63 553.48"/><polygon class="cls-1" points="732.94 553.73 601.06 508.42 601.45 507.39 733.32 552.71 732.94 553.73"/><rect class="cls-1" x="734.25" y="553.15" width="258.16" height="1.09" transform="translate(-2.25 3.53) rotate(-0.23)"/><polygon class="cls-1" points="991.89 553.45 875.66 313.66 876.7 313.2 992.93 552.99 991.89 553.45"/><polygon class="cls-1" points="802.77 697.14 802.07 696.29 992.06 552.79 992.76 553.64 802.77 697.14"/><polygon class="cls-1" points="1211.42 853.97 797.92 831.32 797.98 830.23 1211.49 852.89 1211.42 853.97"/><polygon class="cls-1" points="1210.99 853.74 991.94 553.53 992.88 552.91 1211.92 853.12 1210.99 853.74"/><polygon class="cls-1" points="798.42 831.07 797.48 830.47 991.94 552.92 992.88 553.52 798.42 831.07"/><polygon class="cls-1" points="1211.17 853.9 1003.3 736.84 1003.88 735.9 1211.74 852.96 1211.17 853.9"/><polygon class="cls-1" points="798.2 831.26 797.71 830.28 1003.34 735.88 1003.83 736.86 798.2 831.26"/><polygon class="cls-1" points="1003.02 736.4 991.84 553.25 992.98 553.19 1004.15 736.33 1003.02 736.4"/><polygon class="cls-1" points="929.96 1080 928.68 1080 798.2 832.44 797.87 831.81 797.67 831.44 797.57 831.25 797.45 831.01 797.95 830.77 797.96 830.77 797.96 830.76 798.46 830.52 798.52 830.64 798.52 830.67 798.61 830.82 798.72 831.02 798.9 831.37 799.41 832.34 929.55 1079.23 929.96 1080"/><polygon class="cls-1" points="1211.94 853.72 1211.91 853.78 1211.89 853.8 1211.79 853.95 1211.64 854.16 1211.52 854.35 1063.01 1079.11 1062.42 1080 1061.08 1080 1061.76 1078.97 1209.96 854.68 1209.96 854.66 1210.46 853.91 1210.67 853.61 1210.77 853.45 1210.84 853.35 1210.93 853.23 1210.95 853.19 1210.97 853.14 1211.43 853.41 1211.45 853.43 1211.45 853.44 1211.46 853.44 1211.94 853.72"/><polygon class="cls-1" points="1345.71 1008.78 1345.64 1008.8 1345.47 1008.85 1063.94 1080 1061.69 1080 1061.56 1079.48 1061.99 1079.37 1063.01 1079.11 1344.56 1007.95 1345.42 1007.73 1345.56 1008.25 1345.57 1008.26 1345.71 1008.78"/><polygon class="cls-1" points="1459.28 1080 1457.24 1080 1345.47 1008.85 1345.25 1008.71 1345.57 1008.26 1345.57 1008.24 1345.88 1007.81 1345.97 1007.86 1347.15 1008.61 1459.28 1080"/><polygon class="cls-1" points="1345.13 1008.6 1211.02 853.78 1211.89 853.08 1346 1007.91 1345.13 1008.6"/><polygon class="cls-1" points="987.63 950.18 797.64 831.23 798.26 830.32 988.25 949.27 987.63 950.18"/><polygon class="cls-1" points="988.47 949.93 988.38 950.13 988 950.97 987.46 952.22 930.45 1080 929.81 1080 929.3 1079.79 929.55 1079.23 987.24 949.93 987.24 949.92 987.42 949.51 987.93 949.72 987.95 949.72 987.95 949.73 988.47 949.93"/><polygon class="cls-1" points="988.17 950.22 987.71 949.23 1211.22 852.93 1211.69 853.92 988.17 950.22"/><polygon class="cls-1" points="1062.2 1079.75 1061.71 1080 1061.06 1080 988.58 951.99 988 950.97 987.51 950.11 987.51 950.1 987.45 949.98 987.93 949.73 987.95 949.73 987.95 949.72 988.45 949.47 988.73 949.98 1061.76 1078.97 1061.99 1079.37 1062.2 1079.75"/><polygon class="cls-1" points="992.41 1080 991.28 1080 987.46 952.22 987.39 950.02 987.38 949.74 987.93 949.73 987.95 949.73 987.95 949.72 988.51 949.71 988.52 950.06 988.58 951.99 992.41 1080"/><polygon class="cls-1" points="798.5 830.87 798.48 830.99 798.48 831 798.45 831.14 798.41 831.35 798.35 831.68 798.2 832.44 749.36 1080 748.2 1080 796.92 833.01 797.21 831.59 797.29 831.2 797.38 830.75 797.38 830.71 797.39 830.67 797.94 830.76 797.95 830.76 797.95 830.77 797.96 830.77 798.5 830.87"/><polygon class="cls-1" points="992.48 553.76 992.34 552.68 1108.57 539.46 1108.71 540.54 992.48 553.76"/><polygon class="cls-1" points="1211.99 853.63 1210.93 853.23 1309.27 611.55 1310.33 611.95 1211.99 853.63"/><polygon class="cls-1" points="1345.64 1008.79 1345.49 1007.72 1455.02 994.5 1455.16 995.58 1345.64 1008.79"/><polygon class="cls-1" points="1010.01 387.54 875.9 313.9 876.47 312.96 1010.58 386.59 1010.01 387.54"/><polygon class="cls-1" points="1135.7 191.19 1135.22 190.21 1356.5 92.03 1356.98 93.01 1135.7 191.19"/><polygon class="cls-1" points="1215.66 364.89 1061.44 287.48 1061.96 286.51 1216.19 363.93 1215.66 364.89"/><polygon class="cls-1" points="1003.61 106.28 1003.56 105.19 1356.72 91.97 1356.76 93.06 1003.61 106.28"/><polygon class="cls-1" points="1356.95 92.02 1356.74 92.51 1356.74 92.52 1356.52 93.02 1356.31 92.93 1355.33 92.55 1354.1 92.07 1119.6 0.5 1119.81 0 1121.31 0 1356.73 91.93 1356.95 92.02"/><polygon class="cls-1" points="1216.18 364.89 1215.67 363.92 1432.48 260.07 1432.99 261.05 1216.18 364.89"/><polygon class="cls-1" points="1432.22 260.78 1356.22 92.73 1357.26 92.3 1433.26 260.34 1432.22 260.78"/><polygon class="cls-1" points="1432.6 261.09 1135.33 191.23 1135.6 190.17 1432.87 260.03 1432.6 261.09"/><polygon class="cls-1" points="1215.41 364.63 1134.94 190.92 1135.98 190.48 1216.45 364.19 1215.41 364.63"/><polygon class="cls-1" points="1010.36 387.6 1010.23 386.52 1215.86 363.87 1215.99 364.95 1010.36 387.6"/><polygon class="cls-1" points="1010.8 387.3 1009.78 386.82 1061.19 286.75 1062.21 287.23 1010.8 387.3"/><polygon class="cls-1" points="992.79 553.63 992.03 552.81 1215.55 364 1216.3 364.81 992.79 553.63"/><polygon class="cls-1" points="992.98 553.27 991.84 553.16 1009.73 387.01 1010.86 387.12 992.98 553.27"/><polygon class="cls-1" points="1309.61 612.26 1108.44 540.51 1108.84 539.49 1310 611.24 1309.61 612.26"/><polygon class="cls-1" points="1210.91 853.59 1108.1 540.16 1109.18 539.84 1212 853.27 1210.91 853.59"/><polygon class="cls-1" points="1109.13 540.28 1108.15 539.73 1215.44 364.13 1216.42 364.68 1109.13 540.28"/><polygon class="cls-1" points="1417.66 470.18 1416.52 470.1 1432.17 260.52 1433.31 260.6 1417.66 470.18"/><polygon class="cls-1" points="1310.26 612.07 1309.34 611.43 1416.63 469.82 1417.55 470.46 1310.26 612.07"/><polygon class="cls-1" points="1416.82 470.62 1215.65 364.88 1216.2 363.93 1417.37 469.67 1416.82 470.62"/><polygon class="cls-1" points="1108.77 540.53 1108.51 539.47 1416.96 469.61 1417.22 470.67 1108.77 540.53"/><polygon class="cls-1" points="1211.5 853.97 1211.41 852.89 1680.8 818.9 1680.88 819.99 1211.5 853.97"/><polygon class="cls-1" points="1340.54 742.15 1309.25 611.87 1310.36 611.63 1341.65 741.91 1340.54 742.15"/><polygon class="cls-1" points="1211.84 853.83 1211.08 853.02 1340.72 741.63 1341.48 742.43 1211.84 853.83"/><polygon class="cls-1" points="1341.64 742.17 1340.55 741.89 1416.54 470 1417.64 470.28 1341.64 742.17"/><polygon class="cls-1" points="1455.45 995.46 1454.73 994.62 1680.48 819.02 1681.2 819.87 1455.45 995.46"/><polygon class="cls-1" points="1454.79 995.5 1211.16 853.89 1211.75 852.97 1455.38 994.57 1454.79 995.5"/><polygon class="cls-1" points="992.23 553.73 773.18 481.98 773.55 480.96 992.59 552.7 992.23 553.73"/><polygon class="cls-1" points="1499.38 1080 1498.1 1080 1454.75 995.62 1454.65 995.42 1454.58 995.28 1455.09 995.04 1455.6 994.8 1455.8 995.19 1499.38 1080"/><polygon class="cls-1" points="1681.35 819.69 1681.05 820.24 1541.95 1080 1540.67 1080 1679.09 821.5 1679.87 820.06 1680 819.81 1680.22 819.41 1680.32 819.22 1680.33 819.19 1680.85 819.44 1681.35 819.69"/><polygon class="cls-1" points="1563.17 0 1357.48 92.79 1356.99 93.01 1356.74 92.52 1356.74 92.51 1356.5 92.03 1356.61 91.97 1356.73 91.93 1560.52 0 1563.17 0"/><polygon class="cls-1" points="1620.23 0 1433.82 260.01 1433.61 260.31 1433.45 260.52 1433.3 260.74 1433.2 260.87 1432.74 260.57 1432.74 260.56 1432.73 260.56 1432.27 260.25 1432.35 260.14 1432.49 259.95 1432.85 259.45 1618.85 0 1620.23 0"/><polygon class="cls-1" points="1680.71 819.97 1340.96 742.56 1341.23 741.5 1680.97 818.91 1680.71 819.97"/><polygon class="cls-1" points="1920 971.06 1920 972.37 1681.05 820.24 1680.87 820.12 1680.68 820 1680.61 819.96 1680.53 819.9 1680.83 819.44 1680.85 819.44 1681.15 818.99 1681.3 819.09 1681.56 819.25 1920 971.06"/><polygon class="cls-1" points="1341.31 742.53 1340.88 741.53 1606.87 637.68 1607.3 638.69 1341.31 742.53"/><polygon class="cls-1" points="1680.31 819.64 1606.55 638.38 1607.61 637.99 1681.37 819.25 1680.31 819.64"/><rect class="cls-1" x="1417.09" y="469.6" width="198.93" height="1.09"/><polygon class="cls-1" points="1615.59 470.49 1432.3 260.91 1433.17 260.21 1616.46 469.79 1615.59 470.49"/><polygon class="cls-1" points="1606.69 638.58 1416.7 470.54 1417.48 469.74 1607.47 637.78 1606.69 638.58"/><polygon class="cls-1" points="1607.65 638.21 1606.51 638.16 1615.45 470.11 1616.59 470.17 1607.65 638.21"/><rect class="cls-1" x="1432.74" y="260.02" width="379.98" height="1.09"/><polygon class="cls-1" points="1813.26 260.38 1812.72 260.56 1812.72 260.57 1812.71 260.57 1812.18 260.74 1812.11 260.55 1811.91 260.01 1717.86 0 1719.07 0 1812.88 259.35 1813.15 260.11 1813.26 260.38"/><polygon class="cls-1" points="1920 106.96 1920 108.91 1813.64 260.22 1813.22 260.82 1813.19 260.86 1812.72 260.57 1812.71 260.57 1812.71 260.56 1812.24 260.26 1812.42 260.01 1812.88 259.35 1920 106.96"/><polygon class="cls-1" points="1616.31 470.61 1615.73 469.67 1763.25 386.6 1763.83 387.53 1616.31 470.61"/><polygon class="cls-1" points="1763.33 387.57 1432.53 261.06 1432.95 260.06 1763.75 386.56 1763.33 387.57"/><polygon class="cls-1" points="1920 374.7 1920 375.79 1764.2 387.57 1763.71 387.6 1763.59 387.61 1763.54 387.07 1763.54 387.06 1763.5 386.52 1763.63 386.51 1764.38 386.46 1920 374.7"/><polygon class="cls-1" points="1764.08 387.25 1763.01 386.88 1812.18 260.37 1813.25 260.75 1764.08 387.25"/><polygon class="cls-1" points="1920 284.96 1920 286.08 1813.08 261.2 1812.63 261.1 1812.59 261.09 1812.71 260.59 1812.71 260.57 1812.72 260.57 1812.85 260.03 1813.15 260.11 1813.64 260.22 1920 284.96"/><polygon class="cls-1" points="1796.77 576.34 1615.72 470.61 1616.32 469.68 1797.37 575.41 1796.77 576.34"/><polygon class="cls-1" points="1796.51 575.97 1762.98 387.15 1764.1 386.97 1797.63 575.78 1796.51 575.97"/><polygon class="cls-1" points="1607.27 638.7 1606.9 637.67 1796.88 575.36 1797.25 576.39 1607.27 638.7"/><polygon class="cls-1" points="1681.36 819.67 1680.32 819.22 1796.55 575.65 1797.59 576.1 1681.36 819.67"/><polygon class="cls-1" points="1920 774.67 1920 776.82 1797.13 577.05 1796.65 576.26 1796.58 576.16 1797.07 575.88 1797.07 575.87 1797.56 575.6 1797.61 575.68 1797.85 576.06 1920 774.67"/><polygon class="cls-1" points="1920 501.75 1920 503.04 1797.85 576.06 1797.52 576.25 1797.37 576.34 1797.08 575.91 1797.07 575.88 1797.06 575.87 1796.77 575.42 1796.81 575.38 1797.06 575.24 1797.48 574.98 1920 501.75"/></g></svg>