<svg id="Layer_1" data-name="Layer 1" xmlns="http://www.w3.org/2000/svg" viewBox="0 0 79.69 77.85"><defs><style>.cls-1{stroke:#dba828;stroke-miterlimit:10;stroke-width:2px;}</style></defs><path class="cls-1" d="M30.43,75.17c-.13-3.4-.26-6.81-.38-10.21-4,1.32-6.53.76-8,0-2.16-1.08-2.88-2.82-5.87-6.51A63.76,63.76,0,0,0,11,52.83a6,6,0,0,1,4.46-.38c2,.74,2.18,2.52,4.22,4.59.46.48,4.44,4.43,8,3.32,2.39-.73,4-3.51,4.47-6.76a16.43,16.43,0,0,1-15.7-10c-3.34-8.16,1.88-15.45,2.17-15.83a11.67,11.67,0,0,1-.77-6.51,11.36,11.36,0,0,1,1.66-4.21,20,20,0,0,1,4.72,1.14,20.45,20.45,0,0,1,5.62,3.2,33.85,33.85,0,0,1,19.79-.13,20.84,20.84,0,0,1,11.1-4.21,20.62,20.62,0,0,1,.9,5.23,20.4,20.4,0,0,1-.51,5.36c.68.86,5,6.51,3.44,13.41s-8.57,12.46-17.1,12.63l2,5q.12,8.17.25,16.34c.65-.18,1.54-.46,2.57-.84C64.53,69.62,78.6,56,78.69,38.66,78.78,19.24,61.2,1.06,40,1,17.58.94-.25,21.17,1.07,42.11c1,15.72,13.72,28.61,25.27,33.6,1,.44,1.9.77,2.56,1l.76-.76Z"/></svg>