<svg id="Layer_1" data-name="Layer 1" xmlns="http://www.w3.org/2000/svg" viewBox="0 0 91.93 106.15"><defs><style>.cls-1{fill:#dba828;}</style></defs><polygon points="18.58 73.96 18.58 94.85 36.67 84.41 18.58 73.96"/><path class="cls-1" d="M18.58,95.42l.5-.29.5-.29,16.59-9.57.5-.29.5-.29.5-.29-.5-.29-.5-.29-.5-.29L19.58,74l-.5-.29-.5-.29-.5.29v22Zm.5-20.6L35.67,84.4,19.08,94Z"/><polygon points="18.58 94.85 18.58 73.96 0.5 84.41 18.58 94.85"/><path class="cls-1" d="M.5,85l.5.29,16.58,9.57.5.29h0l.49.29.5-.29v-22l-.5.29-.5.29-.5.29L.5,83.82l-.5.29v.58ZM18.08,74.82V94L1.5,84.4Z"/><polygon points="36.67 63.52 36.67 84.41 54.76 73.96 36.67 63.52"/><path class="cls-1" d="M36.67,85l.5-.29.5-.29,16.59-9.58.5-.29.5-.28.5-.29-.5-.29-.5-.29-.5-.29L37.67,63.52l-.5-.29-.5-.29-.5.29v22ZM53.76,74,37.17,83.53V64.38l8.29,4.79Z"/><polygon points="36.67 84.41 36.67 63.52 18.58 73.96 36.67 84.41"/><path class="cls-1" d="M18.08,74.25l.5.29.5.28h0L35.67,84.4l.5.29.5.29.5-.29v-22l-.5.29-.5.29-.5.29L19.08,73.09l-.5.29-.5.29-.5.29Zm18.09-9.87V83.53L19.58,74Z"/><polygon points="54.76 53.08 54.76 73.96 72.84 63.52 54.76 53.08"/><path class="cls-1" d="M54.76,74.53l.5-.28h0l.5-.28,16.58-9.58.5-.29h0l.49-.28.49-.29-.49-.29-.5-.29-.5-.29L55.76,53.07l-.5-.28h0l-.49-.28h0l-.49-.29V74.82Zm17.08-11L55.26,73.09V53.94Z"/><polygon points="54.76 73.96 54.76 53.08 36.67 63.52 54.76 73.96"/><path class="cls-1" d="M36.17,63.81l.5.29.5.28h0l8.29,4.78L53.76,74l.5.28h0l.5.28.5-.28v-22l-.5.29h0l-.48.28h0l-.48.28h0L37.17,62.65l-.5.29-.5.29-.5.29Zm18.09-9.87V73.09L37.67,63.52Z"/><polygon points="72.84 42.64 72.84 63.52 90.93 53.08 72.84 42.64"/><path class="cls-1" d="M72.84,64.09h0l.49-.28h0l.49-.28,18.1-10.45L73.84,42.63l-.5-.28h0l-.49-.28h0l-.5-.29V64.38Zm.5-1.44V43.5l16.59,9.57Z"/><polygon points="0.5 84.41 0.5 105.29 18.58 94.85 0.5 84.41"/><path class="cls-1" d="M18.08,95.71l.5-.29.5-.29.5-.29-.49-.28h0l-.5-.29-.5-.28h0L1.5,84.4,1,84.11l-.5-.29-.5.29v22ZM1,85.27l16.58,9.57L1,104.42Z"/><polygon points="72.84 63.52 72.84 42.64 54.76 53.08 72.84 63.52"/><path class="cls-1" d="M54.26,53.36h0l.49.29.5.29,16.58,9.58.5.28h0l.49.28h0l.49-.28V42.34l-.49-.28h0l-.49.28h0l-.5.28-8.29,4.79L55.26,52.2h0l-.5.28h0l-.48.28h0l-.48.28Zm18.08,9.29L55.76,53.07,72.34,43.5Z"/><polygon points="18.58 11.31 0.5 21.75 18.58 32.2 18.58 11.31"/><path class="cls-1" d="M.49,22.32l17.09,9.87.5.29.5.29.5.29V11l-.5-.29-.5.29-.5.29L1,20.88l-.5.29-.5.29V22Zm17.59,9L1.5,21.75,9.79,17l8.29-4.79Z"/><polygon points="0.5 21.75 18.58 11.31 0.5 0.87 0.5 21.75"/><path class="cls-1" d="M.49,22.32,1,22H1l.5-.29L9.79,17l8.29-4.78h0l.5-.28,1-.58-.5-.29-.5-.29-.5-.29L0,0V22ZM1,1.73l16.58,9.58L1,20.88Z"/><polygon points="36.67 21.75 18.58 32.2 36.67 42.64 36.67 21.75"/><path class="cls-1" d="M18.08,32.48l.5.29.5.29,16.59,9.57.5.29,1,.58v-22l-.5-.29-1,.58L19.08,31.32l-.5.29-1,.58Zm18.09-9.87V41.77L19.58,32.19Z"/><polygon points="18.58 32.2 36.67 21.75 18.58 11.31 18.58 32.2"/><path class="cls-1" d="M18.58,32.77l.5-.29.5-.29,16.59-9.57h0l.5-.28.5-.29.5-.29-1-.58-.5-.29L19.58,11.31l-.5-.29-.5-.29-.5-.29v22Zm.5-20.6,16.59,9.58L19.08,31.32Z"/><polygon points="54.76 32.2 36.67 42.64 54.76 53.08 54.76 32.2"/><path class="cls-1" d="M36.17,42.92l1,.58,16.59,9.57h0l.49.29h0l.49.29.5.29v-22l-.5-.29-1,.58L37.17,41.76h0l-.5.28-1,.58Zm18.09-9.86V52.21L37.67,42.63Z"/><polygon points="36.67 42.64 54.76 32.2 36.67 21.75 36.67 42.64"/><path class="cls-1" d="M36.67,43.21l.5-.29.5-.29,16.59-9.57.5-.29.5-.29.5-.29-1-.58-.5-.29L37.67,21.75l-1-.58-.5-.29v22Zm.5-20.6,16.59,9.58L37.17,41.77Z"/><polygon points="54.76 53.08 72.84 42.64 54.76 32.2 54.76 53.08"/><path class="cls-1" d="M54.76,53.65l.49-.29h0l.5-.29L72.34,43.5l1-.58.5-.29-.5-.29-.49-.28h0l-.5-.29L55.76,32.19l-1-.58-.5-.29V53.94Zm.5-20.59,16.58,9.57-8.29,4.79-8.29,4.79Z"/></svg>