<svg id="Layer_1" data-name="Layer 1" xmlns="http://www.w3.org/2000/svg" viewBox="0 0 76.9 78.06"><defs><style>.cls-1{fill:#dba828;}</style></defs><path class="cls-1" d="M25.31,39.32A13.2,13.2,0,0,1,38.2,25.66,13.15,13.15,0,0,1,38.33,52,13.18,13.18,0,0,1,25.31,39.32Z"/><path class="cls-1" d="M8.33,14c1.52-1.79,12.38-14.19,30-14A39.43,39.43,0,0,1,72.16,20.55L39.48,19.28a20.1,20.1,0,0,0-14.17,5.1,19,19,0,0,0-5,7.79Z"/><path class="cls-1" d="M74.5,25.23c.82,2.21,6.25,17.77-2.56,33A39.46,39.46,0,0,1,37.38,77.56L54.6,49.75A20.14,20.14,0,0,0,57.14,34.9a19.1,19.1,0,0,0-4.32-8.17Z"/><path class="cls-1" d="M32.16,78.06C29.84,77.65,13.67,74.48,5,59.17a39.42,39.42,0,0,1,.78-39.58L21,48.5a20.07,20.07,0,0,0,11.53,9.68,19,19,0,0,0,9.24.4Z"/></svg>