<svg id="Layer_1" data-name="Layer 1" xmlns="http://www.w3.org/2000/svg" viewBox="0 0 106.16 106.16"><defs><style>.cls-1{fill:#dba828;}.cls-2{fill:#fff;}</style></defs><polygon points="32.19 80.46 21.75 98.55 42.63 98.55 32.19 80.46"/><path class="cls-1" d="M42.92,98.05l-.29-.5L33.06,81l-.29-.5-.29-.5-.29-.5-.58,1-.29.5L21.75,97.55l-.58,1-.29.5H43.5Zm-1.15,0H22.61l9.58-16.58Z"/><polygon points="21.75 98.55 32.19 80.46 11.31 80.46 21.75 98.55"/><path class="cls-1" d="M11,80l-.29.5L11,81l.29.5,9.57,16.59.29.5.29.5H22l.28-.5h0l.28-.5h0l9.57-16.58h0l.29-.5.29-.5.29-.5Zm1.15,1H31.32L21.75,97.55,17,89.26Z"/><polygon points="53.07 80.46 42.63 98.55 63.52 98.55 53.07 80.46"/><path class="cls-1" d="M64.09,98.55l-.28-.49h0l-.29-.5L53.94,81l-.58-1h-.58l-.28.5h0l-.28.5h0l-4.78,8.3-4.79,8.29-.29.5-.28.5-.29.5H64.38Zm-20.59-.5,9.57-16.59,9.58,16.59Z"/><polygon points="42.63 98.55 53.07 80.46 32.19 80.46 42.63 98.55"/><path class="cls-1" d="M31.32,80l.29.5.58,1h0l9.57,16.58h0l.28.5h0l.28.5h.58l.58-1,9.57-16.59h0l.28-.5.58-1Zm20.89,1-4.79,8.3-4.79,8.29L33.06,81Z"/><polygon points="73.96 80.46 63.52 98.55 84.4 98.55 73.96 80.46"/><path class="cls-1" d="M85,98.55l-.29-.5-.29-.5h0L74.83,81h0l-.28-.5h0l-.28-.5-.29-.5-.29.5-.29.5-.29.5L63.52,97.55l-.29.5-.29.5-.29.5H85.27Zm-20.6-.5,4.79-8.29L74,81.46l9.57,16.59Z"/><polygon points="63.52 98.55 73.96 80.46 53.07 80.46 63.52 98.55"/><path class="cls-1" d="M52.21,80l.29.5.28.49h0l.29.5h0l9.57,16.59.29.5.29.5h.58l.28-.5h0l.28-.5h0l4.78-8.29L74,81.46l.28-.5h0l.28-.5.29-.5ZM63.52,97.55,53.94,81H73.09Z"/><polygon points="94.84 80.46 84.4 98.55 105.28 98.55 94.84 80.46"/><path class="cls-1" d="M95.71,81l-.29-.5-.29-.5-.29-.5-.29.5-.29.5L94,81h0L84.4,97.54h0l-.29.5-.29.5-.29.5h22.62ZM85.27,98.05l9.57-16.59,9.58,16.59Z"/><polygon class="cls-2" points="11.31 80.46 0.86 98.55 21.75 98.55 11.31 80.46"/><path class="cls-1" d="M22.32,98.55l-.28-.5-.29-.5L17,89.26,12.18,81h0l-.28-.5-.58-1L11,80l-.29.5-.29.5L0,99.05H22.61Zm-20.59-.5,9.58-16.59,9.57,16.59Z"/><polygon points="84.4 98.55 94.84 80.46 73.96 80.46 84.4 98.55"/><path class="cls-1" d="M95.13,80h-22l.29.5.29.5.29.5,9.57,16.59.29.5.29.5h.58l.29-.5.29-.5,9.57-16.59.29-.5.29-.5ZM74.82,81H94L84.4,97.54Z"/><polygon points="63.52 26.2 42.63 26.2 53.07 44.29 63.52 26.2"/><path class="cls-1" d="M63.81,25.7H42.34l-.28.5.28.5h0l.28.5,4.79,8.3,4.78,8.29h0l.28.5h0l.28.49h0l.29.49.29-.49.58-1L63.52,27.2l.28-.5h0l.28-.49ZM53.07,43.29,43.5,26.7H62.65Z"/><polygon class="cls-1" points="42.63 26.2 63.52 26.2 53.07 8.11 42.63 26.2"/><path class="cls-1" d="M64.09,26.2l-.28-.5h0l-.28-.49h0L53.07,7.11,42.63,25.2l-.28.5h0l-.28.5-.29.5H64.38ZM43.5,25.7,53.07,9.11,62.65,25.7Z"/><polygon points="73.96 44.29 53.07 44.29 63.52 62.37 73.96 44.29"/><path class="cls-1" d="M74.25,43.79h-22l.29.5.28.49h0l.28.49h0l9.57,16.58.29.5.29.5.29.5.29-.5.29-.5.28-.5h0l4.78-8.28L74,45.29l.28-.5h0l.28-.5Zm-1.16,1L63.52,61.37,53.94,44.79Z"/><polygon points="53.07 44.29 73.96 44.29 63.52 26.2 53.07 44.29"/><path class="cls-1" d="M74.53,44.29l-.28-.5h0l-.28-.5L64.38,26.7l-.29-.5-.28-.5-.29-.49-.29.49-.29.5-.29.5L53.08,43.29h0l-.28.5h0l-.28.49-.29.5H74.82Zm-20.59-.5L63.52,27.2l9.57,16.59Z"/><polygon points="84.4 62.37 63.52 62.37 73.96 80.46 84.4 62.37"/><path class="cls-1" d="M84.69,61.87h-22l.29.5.29.5.29.5L73.09,80l.29.5.29.5.29.5.29-.5.28-.5h0l.28-.5h0L84.4,63.37l.29-.5.29-.5Zm-1.16,1L74,79.46,64.38,62.87Z"/><polygon points="63.52 62.37 84.4 62.37 73.96 44.29 63.52 62.37"/><path class="cls-1" d="M85,62.37l-.29-.5-.29-.5L74.82,44.79l-.29-.5-.28-.5-.29-.5-.29.5-.29.5-.29.5L63.52,61.37l-.29.5-.29.5.29.5h22Zm-20.6-.5,4.79-8.28L74,45.29l9.57,16.58Z"/><polygon points="73.96 80.46 94.84 80.46 84.4 62.37 73.96 80.46"/><path class="cls-1" d="M95.42,80.46l-.29-.5-.29-.5L85.27,62.87l-.29-.5-.29-.5-.29-.5-.29.5-.29.5-.29.5L74,79.46l-.29.5-.29.5-.29.5H95.71ZM74.82,80,84.4,63.37,94,80Z"/><polygon points="21.75 62.37 32.19 80.46 42.63 62.37 21.75 62.37"/><path class="cls-1" d="M21.46,61.87l-.29.5.58,1L31.32,80l.29.5.58,1,.29-.5.29-.5.29-.5,9.57-16.59.29-.5.58-1Zm20.31,1L32.19,79.46,22.61,62.87Z"/><polygon points="32.19 80.46 21.75 62.37 11.31 80.46 32.19 80.46"/><path class="cls-1" d="M32.77,80.46l-.29-.5-.29-.5L22.62,62.87h0l-.28-.5-.29-.5-.29-.5-.58,1-.29.5L11.31,79.46,11,80l-.29.5-.29.5H33.06ZM12.17,80l9.58-16.59L31.32,80Z"/><polygon points="32.19 44.29 42.63 62.37 53.07 44.29 32.19 44.29"/><path class="cls-1" d="M31.9,43.79l-.29.5.58,1,9.57,16.58h0l.28.5.58,1,.29-.5.58-1,9.57-16.58h0l.28-.5.58-1Zm20.31,1L42.63,61.37,33.06,44.79Z"/><polygon points="42.63 62.37 32.19 44.29 21.75 62.37 42.63 62.37"/><path class="cls-1" d="M42.92,61.87l-.29-.5L33.06,44.79l-.29-.5-.29-.5-.29-.5-.58,1-.29.5L21.75,61.37l-.58,1-.29.5h22l.29-.5Zm-20.31,0,9.58-16.58,9.58,16.58Z"/><polygon points="53.07 44.29 42.63 26.2 32.19 44.29 53.07 44.29"/><path class="cls-1" d="M53.36,43.79l-.28-.5h0L43.5,26.7l-.58-1-.29-.5-.29.5-.28.5-.29.5L32.19,43.29l-.58,1-.29.5H53.94Zm-20.3,0L42.63,27.2l4.79,8.3,4.79,8.29Z"/></svg>